<?xml version="1.0" encoding="UTF-8"?>
<svg width="100px" height="100px" viewBox="0 0 100 100" version="1.1" xmlns="http://www.w3.org/2000/svg" xmlns:xlink="http://www.w3.org/1999/xlink">
    <title>channel_help</title>
    <g id="channel_help" stroke="none" stroke-width="1" fill="none" fill-rule="evenodd" class="hover-fill">
        <g id="help_FILL0_wght400_GRAD0_opsz48" transform="translate(3.750000, 3.750000)" fill="#4285F4" fill-rule="nonzero" class="primary-fill">
            <path d="M46.7125,73.190625 C47.9458333,73.190625 48.9864583,72.7666667 49.834375,71.91875 C50.6822917,71.0708333 51.10625,70.0302083 51.10625,68.796875 C51.10625,67.5635417 50.6822917,66.5229167 49.834375,65.675 C48.9864583,64.8270833 47.9458333,64.403125 46.7125,64.403125 C45.4791667,64.403125 44.4385417,64.8270833 43.590625,65.675 C42.7427083,66.5229167 42.31875,67.5635417 42.31875,68.796875 C42.31875,70.0302083 42.7427083,71.0708333 43.590625,71.91875 C44.4385417,72.7666667 45.4791667,73.190625 46.7125,73.190625 Z M42.665625,56.309375 L49.4875,56.309375 C49.4875,54.3052083 49.7380208,52.4744792 50.2390625,50.8171875 C50.7401042,49.1598958 52.3010417,47.2520833 54.921875,45.09375 C57.3114583,43.0895833 59.0072917,41.1239583 60.009375,39.196875 C61.0114583,37.2697917 61.5125,35.15 61.5125,32.8375 C61.5125,28.7520833 60.1828125,25.4760417 57.5234375,23.009375 C54.8640625,20.5427083 51.3375,19.309375 46.94375,19.309375 C43.1666667,19.309375 39.8328125,20.2536458 36.9421875,22.1421875 C34.0515625,24.0307292 31.9510417,26.6322917 30.640625,29.946875 L36.76875,32.259375 C37.6166667,30.1010417 38.8885417,28.4244792 40.584375,27.2296875 C42.2802083,26.0348958 44.284375,25.4375 46.596875,25.4375 C49.2177083,25.4375 51.3375,26.1505208 52.95625,27.5765625 C54.575,29.0026042 55.384375,30.8333333 55.384375,33.06875 C55.384375,34.7645833 54.8833333,36.3640625 53.88125,37.8671875 C52.8791667,39.3703125 51.4145833,40.93125 49.4875,42.55 C47.175,44.5541667 45.4598958,46.5390625 44.3421875,48.5046875 C43.2244792,50.4703125 42.665625,53.071875 42.665625,56.309375 L42.665625,56.309375 Z M46.25,92.5 C39.9291667,92.5 33.9552083,91.2859375 28.328125,88.8578125 C22.7010417,86.4296875 17.7869792,83.1151042 13.5859375,78.9140625 C9.38489583,74.7130208 6.0703125,69.7989583 3.6421875,64.171875 C1.2140625,58.5447917 0,52.5708333 0,46.25 C0,39.8520833 1.2140625,33.8395833 3.6421875,28.2125 C6.0703125,22.5854167 9.38489583,17.690625 13.5859375,13.528125 C17.7869792,9.365625 22.7010417,6.0703125 28.328125,3.6421875 C33.9552083,1.2140625 39.9291667,0 46.25,0 C52.6479167,0 58.6604167,1.2140625 64.2875,3.6421875 C69.9145833,6.0703125 74.809375,9.365625 78.971875,13.528125 C83.134375,17.690625 86.4296875,22.5854167 88.8578125,28.2125 C91.2859375,33.8395833 92.5,39.8520833 92.5,46.25 C92.5,52.5708333 91.2859375,58.5447917 88.8578125,64.171875 C86.4296875,69.7989583 83.134375,74.7130208 78.971875,78.9140625 C74.809375,83.1151042 69.9145833,86.4296875 64.2875,88.8578125 C58.6604167,91.2859375 52.6479167,92.5 46.25,92.5 Z M46.25,85.5625 C57.1958333,85.5625 66.484375,81.7276042 74.115625,74.0578125 C81.746875,66.3880208 85.5625,57.11875 85.5625,46.25 C85.5625,35.3041667 81.746875,26.015625 74.115625,18.384375 C66.484375,10.753125 57.1958333,6.9375 46.25,6.9375 C35.38125,6.9375 26.1119792,10.753125 18.4421875,18.384375 C10.7723958,26.015625 6.9375,35.3041667 6.9375,46.25 C6.9375,57.11875 10.7723958,66.3880208 18.4421875,74.0578125 C26.1119792,81.7276042 35.38125,85.5625 46.25,85.5625 Z" id="Shape"></path>
        </g>
    </g>
</svg>