<?xml version="1.0" encoding="UTF-8"?>
<svg width="100px" height="100px" viewBox="0 0 100 100" version="1.1" xmlns="http://www.w3.org/2000/svg" xmlns:xlink="http://www.w3.org/1999/xlink">
    <title>channel_about</title>
    <g id="channel_about" stroke="none" stroke-width="1" fill="none" fill-rule="evenodd" class="hover-fill">
        <g id="article_FILL0_wght400_GRAD0_opsz48" transform="translate(4.250000, 4.250000)" fill="#4285F4" fill-rule="nonzero" class="primary-fill">
            <path d="M19.9520833,71.29375 L54.9,71.29375 L54.9,63.66875 L19.9520833,63.66875 L19.9520833,71.29375 Z M19.9520833,49.5625 L71.5479167,49.5625 L71.5479167,41.9375 L19.9520833,41.9375 L19.9520833,49.5625 Z M19.9520833,27.83125 L71.5479167,27.83125 L71.5479167,20.20625 L19.9520833,20.20625 L19.9520833,27.83125 Z M7.625,91.5 C5.59166667,91.5 3.8125,90.7375 2.2875,89.2125 C0.7625,87.6875 0,85.9083333 0,83.875 L0,7.625 C0,5.59166667 0.7625,3.8125 2.2875,2.2875 C3.8125,0.7625 5.59166667,0 7.625,0 L83.875,0 C85.9083333,0 87.6875,0.7625 89.2125,2.2875 C90.7375,3.8125 91.5,5.59166667 91.5,7.625 L91.5,83.875 C91.5,85.9083333 90.7375,87.6875 89.2125,89.2125 C87.6875,90.7375 85.9083333,91.5 83.875,91.5 L7.625,91.5 Z M7.625,83.875 L83.875,83.875 L83.875,7.625 L7.625,7.625 L7.625,83.875 Z M7.625,7.625 L7.625,83.875 L7.625,7.625 Z" id="Shape"></path>
        </g>
    </g>
</svg>