<?xml version="1.0" encoding="UTF-8"?>
<svg width="100px" height="100px" viewBox="0 0 100 100" version="1.1" xmlns="http://www.w3.org/2000/svg" xmlns:xlink="http://www.w3.org/1999/xlink">
    <title>channel_settings</title>
    <g id="channel_settings" stroke="none" stroke-width="1" fill="none" fill-rule="evenodd" class="hover-fill">
        <g id="settings_FILL0_wght400_GRAD0_opsz48" transform="translate(3.750000, 3.750000)" fill="#4285F4" fill-rule="nonzero" class="primary-fill">
            <path d="M35.6125,92.5 L33.3,77.93125 C31.8354167,77.3916667 30.29375,76.659375 28.675,75.734375 C27.05625,74.809375 25.6302083,73.8458333 24.396875,72.84375 L10.753125,79.0875 L0,60.125 L12.4875,50.990625 C12.3333333,50.296875 12.2369792,49.5067708 12.1984375,48.6203125 C12.1598958,47.7338542 12.140625,46.94375 12.140625,46.25 C12.140625,45.55625 12.1598958,44.7661458 12.1984375,43.8796875 C12.2369792,42.9932292 12.3333333,42.203125 12.4875,41.509375 L0,32.375 L10.753125,13.4125 L24.396875,19.65625 C25.6302083,18.6541667 27.05625,17.690625 28.675,16.765625 C30.29375,15.840625 31.8354167,15.146875 33.3,14.684375 L35.6125,0 L56.8875,0 L59.2,14.56875 C60.6645833,15.1083333 62.2255208,15.8213542 63.8828125,16.7078125 C65.5401042,17.5942708 66.946875,18.5770833 68.103125,19.65625 L81.746875,13.4125 L92.5,32.375 L80.0125,41.278125 C80.1666667,42.0489583 80.2630208,42.8776042 80.3015625,43.7640625 C80.3401042,44.6505208 80.359375,45.4791667 80.359375,46.25 C80.359375,47.0208333 80.3401042,47.8302083 80.3015625,48.678125 C80.2630208,49.5260417 80.1666667,50.3354167 80.0125,51.10625 L92.5,60.125 L81.746875,79.0875 L68.103125,72.84375 C66.8697917,73.8458333 65.4630208,74.8286458 63.8828125,75.7921875 C62.3026042,76.7557292 60.7416667,77.46875 59.2,77.93125 L56.8875,92.5 L35.6125,92.5 Z M46.25,61.28125 C50.4125,61.28125 53.9583333,59.8166667 56.8875,56.8875 C59.8166667,53.9583333 61.28125,50.4125 61.28125,46.25 C61.28125,42.0875 59.8166667,38.5416667 56.8875,35.6125 C53.9583333,32.6833333 50.4125,31.21875 46.25,31.21875 C42.0875,31.21875 38.5416667,32.6833333 35.6125,35.6125 C32.6833333,38.5416667 31.21875,42.0875 31.21875,46.25 C31.21875,50.4125 32.6833333,53.9583333 35.6125,56.8875 C38.5416667,59.8166667 42.0875,61.28125 46.25,61.28125 Z M46.25,54.34375 C44.0145833,54.34375 42.1067708,53.5536458 40.5265625,51.9734375 C38.9463542,50.3932292 38.15625,48.4854167 38.15625,46.25 C38.15625,44.0145833 38.9463542,42.1067708 40.5265625,40.5265625 C42.1067708,38.9463542 44.0145833,38.15625 46.25,38.15625 C48.4854167,38.15625 50.3932292,38.9463542 51.9734375,40.5265625 C53.5536458,42.1067708 54.34375,44.0145833 54.34375,46.25 C54.34375,48.4854167 53.5536458,50.3932292 51.9734375,51.9734375 C50.3932292,53.5536458 48.4854167,54.34375 46.25,54.34375 Z M41.1625,85.5625 L51.3375,85.5625 L52.95625,72.6125 C55.5,71.9958333 57.9088542,71.0322917 60.1828125,69.721875 C62.4567708,68.4114583 64.51875,66.83125 66.36875,64.98125 L78.625,70.3 L83.25,61.975 L72.38125,53.996875 C72.6895833,52.6864583 72.9401042,51.3953125 73.1328125,50.1234375 C73.3255208,48.8515625 73.421875,47.5604167 73.421875,46.25 C73.421875,44.9395833 73.3447917,43.6484375 73.190625,42.3765625 C73.0364583,41.1046875 72.7666667,39.8135417 72.38125,38.503125 L83.25,30.525 L78.625,22.2 L66.36875,27.51875 C64.5958333,25.5145833 62.5916667,23.8380208 60.35625,22.4890625 C58.1208333,21.1401042 55.6541667,20.2729167 52.95625,19.8875 L51.3375,6.9375 L41.1625,6.9375 L39.54375,19.8875 C36.9229167,20.4270833 34.4755208,21.3520833 32.2015625,22.6625 C29.9276042,23.9729167 27.9041667,25.5916667 26.13125,27.51875 L13.875,22.2 L9.25,30.525 L20.11875,38.503125 C19.8104167,39.8135417 19.5598958,41.1046875 19.3671875,42.3765625 C19.1744792,43.6484375 19.078125,44.9395833 19.078125,46.25 C19.078125,47.5604167 19.1744792,48.8515625 19.3671875,50.1234375 C19.5598958,51.3953125 19.8104167,52.6864583 20.11875,53.996875 L9.25,61.975 L13.875,70.3 L26.13125,64.98125 C27.98125,66.83125 30.0432292,68.4114583 32.3171875,69.721875 C34.5911458,71.0322917 37,71.9958333 39.54375,72.6125 L41.1625,85.5625 Z" id="Shape"></path>
        </g>
    </g>
</svg>