<?xml version="1.0" encoding="UTF-8"?>
<svg width="100px" height="100px" viewBox="0 0 100 100" version="1.1" xmlns="http://www.w3.org/2000/svg" xmlns:xlink="http://www.w3.org/1999/xlink">
    <title>channel_preview</title>
    <g id="channel_preview" stroke="none" stroke-width="1" fill="none" fill-rule="evenodd" class="hover-fill">
        <g id="analytics_FILL0_wght400_GRAD0_opsz48" transform="translate(3.750000, 3.750000)" fill="#4285F4" fill-rule="nonzero" class="primary-fill">
            <path d="M21.0694444,72.3298611 L28.7777778,72.3298611 L28.7777778,45.9930556 L21.0694444,45.9930556 L21.0694444,72.3298611 Z M63.7222222,72.3298611 L71.4305556,72.3298611 L71.4305556,18.3715278 L63.7222222,18.3715278 L63.7222222,72.3298611 Z M42.3958333,72.3298611 L50.1041667,72.3298611 L50.1041667,57.1701389 L42.3958333,57.1701389 L42.3958333,72.3298611 Z M42.3958333,45.9930556 L50.1041667,45.9930556 L50.1041667,38.2847222 L42.3958333,38.2847222 L42.3958333,45.9930556 Z M7.70833333,92.5 C5.65277778,92.5 3.85416667,91.7291667 2.3125,90.1875 C0.770833333,88.6458333 0,86.8472222 0,84.7916667 L0,7.70833333 C0,5.65277778 0.770833333,3.85416667 2.3125,2.3125 C3.85416667,0.770833333 5.65277778,0 7.70833333,0 L84.7916667,0 C86.8472222,0 88.6458333,0.770833333 90.1875,2.3125 C91.7291667,3.85416667 92.5,5.65277778 92.5,7.70833333 L92.5,84.7916667 C92.5,86.8472222 91.7291667,88.6458333 90.1875,90.1875 C88.6458333,91.7291667 86.8472222,92.5 84.7916667,92.5 L7.70833333,92.5 Z M7.70833333,84.7916667 L84.7916667,84.7916667 L84.7916667,7.70833333 L7.70833333,7.70833333 L7.70833333,84.7916667 Z M7.70833333,7.70833333 L7.70833333,84.7916667 L7.70833333,7.70833333 Z" id="Shape"></path>
        </g>
    </g>
</svg>