<?xml version="1.0" encoding="UTF-8"?>
<svg width="100px" height="100px" viewBox="0 0 100 100" version="1.1" xmlns="http://www.w3.org/2000/svg" xmlns:xlink="http://www.w3.org/1999/xlink">
    <title>channel_source</title>
    <g id="channel_source" stroke="none" stroke-width="1" fill="none" fill-rule="evenodd" class="hover-fill">
        <g id="account_tree_FILL0_wght400_GRAD0_opsz48" transform="translate(50.000000, 50.000000) scale(-1, -1) translate(-50.000000, -50.000000) translate(3.333333, 8.000000)" fill="#4285F4" fill-rule="nonzero" class="primary-fill">
            <path d="M61.1333333,84 L61.1333333,69.4166667 L43.1666667,69.4166667 L43.1666667,21.5833333 L32.3166667,21.5833333 L32.3166667,36.75 L0,36.75 L0,0 L32.3166667,0 L32.3166667,14.5833333 L61.1333333,14.5833333 L61.1333333,0 L93.3333333,0 L93.3333333,36.75 L61.1333333,36.75 L61.1333333,21.5833333 L50.1666667,21.5833333 L50.1666667,62.4166667 L61.1333333,62.4166667 L61.1333333,47.25 L93.3333333,47.25 L93.3333333,84 L61.1333333,84 Z M7,7 L7,29.75 L7,7 Z M68.1333333,54.25 L68.1333333,77 L68.1333333,54.25 Z M68.1333333,7 L68.1333333,29.75 L68.1333333,7 Z M68.1333333,29.75 L86.3333333,29.75 L86.3333333,7 L68.1333333,7 L68.1333333,29.75 Z M68.1333333,77 L86.3333333,77 L86.3333333,54.25 L68.1333333,54.25 L68.1333333,77 Z M7,29.75 L25.3166667,29.75 L25.3166667,7 L7,7 L7,29.75 Z" id="Shape"></path>
        </g>
    </g>
</svg>