<?xml version="1.0" encoding="UTF-8"?>
<svg width="100px" height="100px" viewBox="0 0 100 100" version="1.1" xmlns="http://www.w3.org/2000/svg" xmlns:xlink="http://www.w3.org/1999/xlink">
    <title>channel_query</title>
    <g id="channel_query" stroke="none" stroke-width="1" fill="none" fill-rule="evenodd" class="hover-fill">
        <g id="travel_explore_FILL0_wght400_GRAD0_opsz48" transform="translate(2.685232, 3.500000)" fill="#4285F4" fill-rule="nonzero" class="primary-fill">
            <path d="M43.9974969,93 C37.8673342,92.689612 32.1251564,91.2540676 26.7709637,88.6933667 C21.416771,86.1326658 16.7609512,82.7765957 12.8035044,78.6251564 C8.84605757,74.4737171 5.72277847,69.6433041 3.43366708,64.1339174 C1.14455569,58.6245307 0,52.7659574 0,46.5581977 C0,40.1176471 1.22215269,34.0650814 3.66645807,28.4005006 C6.11076345,22.7359199 9.42803504,17.8085106 13.6182728,13.6182728 C17.8085106,9.42803504 22.7359199,6.11076345 28.4005006,3.66645807 C34.0650814,1.22215269 40.1176471,0 46.5581977,0 C58.1201502,0 68.1689612,3.64705882 76.7046308,10.9411765 C85.2403004,18.2352941 90.4780976,27.3917397 92.4180225,38.4105131 L85.3178974,38.4105131 C83.9987484,31.8923655 81.2440551,26.0725907 77.0538173,20.951189 C72.8635795,15.8297872 67.6257822,11.9887359 61.3404255,9.42803504 L61.3404255,11.5231539 C61.3404255,14.2390488 60.4092616,16.6057572 58.5469337,18.6232791 C56.6846058,20.640801 54.3954944,21.649562 51.6795995,21.649562 L41.5531915,21.649562 L41.5531915,31.77597 C41.5531915,33.0951189 41.0294118,34.1814768 39.9818523,35.0350438 C38.9342929,35.8886108 37.7509387,36.3153942 36.4317897,36.3153942 L26.7709637,36.3153942 L26.7709637,46.5581977 L39.5744681,46.5581977 L39.5744681,61.1076345 L31.77597,61.1076345 L8.03128911,37.3629537 C7.64330413,38.9148936 7.37171464,40.4474343 7.21652065,41.9605757 C7.06132666,43.4737171 6.98372966,45.0062578 6.98372966,46.5581977 C6.98372966,57.0337922 10.514393,66.0738423 17.5757196,73.6783479 C24.6370463,81.2828536 33.4443054,85.3954944 43.9974969,86.0162703 L43.9974969,93 Z M89.6245307,89.9737171 L74.0275344,74.3767209 C72.3979975,75.5406758 70.6326658,76.4330413 68.7315394,77.0538173 C66.830413,77.6745932 64.8710889,77.9849812 62.853567,77.9849812 C57.3441802,77.9849812 52.6689612,76.0644556 48.8279099,72.2234043 C44.9868586,68.3823529 43.0663329,63.7071339 43.0663329,58.1977472 C43.0663329,52.6883605 44.9868586,48.0131414 48.8279099,44.1720901 C52.6689612,40.3310388 57.3441802,38.4105131 62.853567,38.4105131 C68.3629537,38.4105131 73.0381727,40.3310388 76.879224,44.1720901 C80.7202753,48.0131414 82.640801,52.6883605 82.640801,58.1977472 C82.640801,60.2152691 82.3110138,62.1745932 81.6514393,64.0757196 C80.9918648,65.9768461 80.1188986,67.7809762 79.0325407,69.4881101 L94.6295369,84.9687109 L89.6245307,89.9737171 Z M62.853567,71.0012516 C66.4230288,71.0012516 69.4493116,69.7596996 71.9324155,67.2765957 C74.4155194,64.7934919 75.6570713,61.767209 75.6570713,58.1977472 C75.6570713,54.6282854 74.4155194,51.6020025 71.9324155,49.1188986 C69.4493116,46.6357947 66.4230288,45.3942428 62.853567,45.3942428 C59.2841051,45.3942428 56.2578223,46.6357947 53.7747184,49.1188986 C51.2916145,51.6020025 50.0500626,54.6282854 50.0500626,58.1977472 C50.0500626,61.767209 51.2916145,64.7934919 53.7747184,67.2765957 C56.2578223,69.7596996 59.2841051,71.0012516 62.853567,71.0012516 Z" id="Shape"></path>
        </g>
    </g>
</svg>