<?xml version="1.0" encoding="UTF-8"?>
<svg width="16px" height="16px" viewBox="3 3 10 10" version="1.1" xmlns="http://www.w3.org/2000/svg" xmlns:xlink="http://www.w3.org/1999/xlink">
    <title>malloy-icon-on-off</title>
    <g id="malloy-icon-on-off" stroke="none" stroke-width="1" fill="none" fill-rule="evenodd">
        <g id="Group-Copy" transform="translate(4.000000, 4.500000)" fill="#85B0F7" fill-rule="nonzero">
            <path d="M1.91456839,3.19128704 L6.08543161,3.19128704 C6.97964906,3.19128704 7.70455553,2.50020954 7.70455553,1.64772223 C7.70455553,0.795234931 6.97964906,0.104157428 6.08543161,0.104157428 L1.91456839,0.104157428 C1.02035094,0.104157428 0.295444466,0.795234931 0.295444466,1.64772223 C0.295444466,2.50020954 1.02035094,3.19128704 1.91456839,3.19128704 Z M1.91456839,0.72158335 L6.08543161,0.72158335 C6.62196208,0.72158335 7.05690596,1.13622985 7.05690596,1.64772223 C7.05690596,2.15921461 6.62196208,2.57386112 6.08543161,2.57386112 L1.91456839,2.57386112 C1.37803792,2.57386112 0.943094035,2.15921461 0.943094035,1.64772223 C0.943094035,1.13622985 1.37803792,0.72158335 1.91456839,0.72158335 Z" id="Shape-Copy-20"></path>
            <path d="M2.13289582,2.24100941 C2.3830645,2.24304337 2.60973321,2.09391109 2.70688127,1.86336684 C2.80402933,1.63282258 2.75245196,1.36644163 2.57627365,1.18881942 C2.40009535,1.01119721 2.13414403,0.957447111 1.90281418,1.05270987 C1.67148434,1.14797263 1.52049829,1.37341617 1.52049829,1.62359286 C1.52049829,1.96263189 1.79386765,2.23825299 2.13289582,2.24100941 L2.13289582,2.24100941 Z" id="Path-Copy-14"></path>
            <path d="M6.0854316,3.80871296 L1.91456836,3.80871296 C1.02035092,3.80871296 0.295444466,4.49979048 0.295444466,5.35227777 C0.295444466,6.20476506 1.02035092,6.89584257 1.91456836,6.89584257 L6.0854316,6.89584257 C6.97964906,6.89584257 7.70455553,6.20476507 7.70455553,5.35227777 C7.70455553,4.49979046 6.97964906,3.80871296 6.0854316,3.80871296 L6.0854316,3.80871296 Z M6.0854316,6.27841665 L1.91456836,6.27841665 C1.37803789,6.27841665 0.943094004,5.86377015 0.943094004,5.35227777 C0.943094004,4.84078539 1.37803789,4.42613888 1.91456836,4.42613888 L6.0854316,4.42613888 C6.62196208,4.42613888 7.05690596,4.84078539 7.05690596,5.35227777 C7.05690596,5.86377015 6.62196208,6.27841665 6.0854316,6.27841665 L6.0854316,6.27841665 Z" id="Shape-Copy-21"></path>
            <path d="M5.83936825,4.78190288 C5.58919957,4.77986892 5.36253086,4.9290012 5.2653828,5.15954545 C5.16823474,5.39008971 5.21981211,5.65647067 5.39599042,5.83409287 C5.57216872,6.01171508 5.83812004,6.06546518 6.06944989,5.97020242 C6.30077973,5.87493966 6.45176578,5.64949612 6.45176578,5.39931943 C6.45176578,5.0602804 6.17839642,4.7846593 5.83936825,4.78190288 Z" id="Path-Copy-15"></path>
        </g>
    </g>
</svg>