<?xml version="1.0" encoding="UTF-8"?>
<svg width="18px" height="16px" viewBox="0 0 18 16" version="1.1" xmlns="http://www.w3.org/2000/svg" xmlns:xlink="http://www.w3.org/1999/xlink">
    <g id="Page-1" stroke="none" stroke-width="1" fill="none" fill-rule="evenodd">
        <g id="refresh" transform="translate(0.674662, 0.565290)" fill="#4285F4" fill-rule="nonzero">
            <path d="M8.78176107,0 C5.58252797,0 2.83263359,1.94978909 1.70298428,4.72380952 L1.25276783,3.92727273 C1.13489179,3.70501796 0.901684382,3.56831016 0.650170432,3.57402597 C0.415280742,3.57926589 0.200588527,3.70806252 0.085402535,3.91283754 C-0.029783457,4.11761256 -0.028366016,4.36797093 0.089131245,4.57142857 L1.30817908,6.75325562 C1.48433486,7.0657653 1.87661343,7.18222594 2.19475917,7.01646573 L4.36272454,5.90822511 C4.58458201,5.80652208 4.73290328,5.59146282 4.74913616,5.34794539 C4.76536904,5.10442796 4.64690497,4.87158478 4.44050951,4.7413344 C4.23411406,4.61108401 3.97295428,4.60435722 3.76012714,4.72380952 L2.96359034,5.13246753 C3.91606992,2.90407508 6.16033216,1.32987013 8.78176107,1.32987013 C12.2728031,1.32987013 15.077876,4.10536229 15.077876,7.53593517 C15.077876,10.9664904 12.2728031,13.7419958 8.78176107,13.7419958 C5.79533378,13.7419958 3.30768759,11.6925551 2.65190203,8.96277496 C2.59622229,8.73140296 2.4213366,8.54731126 2.19312271,8.47984526 C1.96490881,8.41237936 1.71803782,8.47178896 1.54550366,8.63569496 C1.3729695,8.79960106 1.3009842,9.04310236 1.35666393,9.27447436 C2.15556125,12.5999698 5.18703346,15.0718659 8.78176107,15.0718659 C12.9820007,15.0718659 16.4077462,11.6948381 16.4077462,7.53593517 C16.4077462,3.37701901 12.9820007,0 8.78176107,0 L8.78176107,0 Z" id="Shape-Copy-2"></path>
        </g>
    </g>
</svg>