<?xml version="1.0" encoding="UTF-8"?>
<svg width="110px" height="110px" viewBox="0 0 110 110" version="1.1" xmlns="http://www.w3.org/2000/svg" xmlns:xlink="http://www.w3.org/1999/xlink">
    <title>viz_json</title>
    <g id="viz_json" stroke="none" stroke-width="1" fill="none" fill-rule="evenodd">
        <g id="{;}" transform="translate(24.000000, 22.000000)" fill="#9aa0a6" fill-rule="nonzero">
            <path d="M17.0296296,66 C13.2765432,66 10.3209877,64.871179 8.16296296,62.6135371 C6.00493827,60.3558952 4.92592593,57.3296943 4.92592593,53.5349345 L4.92592593,41.6462882 C4.92592593,39.9170306 4.45679012,38.5840611 3.51851852,37.6473799 C2.58024691,36.7106987 1.40740741,36.2423581 0,36.2423581 L0,29.7576419 C1.40740741,29.7576419 2.58024691,29.2893013 3.51851852,28.3526201 C4.45679012,27.4159389 4.92592593,26.0829694 4.92592593,24.3537118 L4.92592593,12.4650655 C4.92592593,8.67030568 6.00493827,5.6441048 8.16296296,3.38646288 C10.3209877,1.12882096 13.2765432,0 17.0296296,0 L19,0 L19,6.41266376 L17.7333333,6.41266376 C16.091358,6.41266376 14.7425926,6.98908297 13.687037,8.1419214 C12.6314815,9.29475983 12.1037037,10.8318777 12.1037037,12.7532751 L12.1037037,24.3537118 C12.1037037,26.7074236 11.7166667,28.5687773 10.9425926,29.9377729 C10.1685185,31.3067686 8.93703704,32.2554585 7.24814815,32.7838428 L7.24814815,33.2161572 C8.93703704,33.7445415 10.1685185,34.6812227 10.9425926,36.0262009 C11.7166667,37.371179 12.1037037,39.2445415 12.1037037,41.6462882 L12.1037037,53.2467249 C12.1037037,55.1681223 12.6314815,56.7052402 13.687037,57.8580786 C14.7425926,59.010917 16.091358,59.5873362 17.7333333,59.5873362 L19,59.5873362 L19,66 L17.0296296,66 Z" id="Path"></path>
            <path d="M44,59.5873362 L45.4074074,59.5873362 C47.0493827,59.5873362 48.3864198,59.010917 49.4185185,57.8580786 C50.4506173,56.7052402 50.9666667,55.1681223 50.9666667,53.2467249 L50.9666667,41.6462882 C50.9666667,39.2445415 51.3537037,37.371179 52.1277778,36.0262009 C52.9018519,34.6812227 54.1333333,33.7445415 55.8222222,33.2161572 L55.8222222,32.7838428 C54.1333333,32.2554585 52.9018519,31.3067686 52.1277778,29.9377729 C51.3537037,28.5687773 50.9666667,26.7074236 50.9666667,24.3537118 L50.9666667,12.7532751 C50.9666667,10.8318777 50.4506173,9.29475983 49.4185185,8.1419214 C48.3864198,6.98908297 47.0493827,6.41266376 45.4074074,6.41266376 L44,6.41266376 L44,0 L46.0407407,0 C49.7938272,0 52.7493827,1.12882096 54.9074074,3.38646288 C57.0654321,5.6441048 58.1444444,8.67030568 58.1444444,12.4650655 L58.1444444,24.3537118 C58.1444444,26.0829694 58.6018519,27.4159389 59.5166667,28.3526201 C60.4314815,29.2893013 61.5925926,29.7576419 63,29.7576419 L63,36.2423581 C61.5925926,36.2423581 60.4314815,36.7106987 59.5166667,37.6473799 C58.6018519,38.5840611 58.1444444,39.9170306 58.1444444,41.6462882 L58.1444444,53.5349345 C58.1444444,57.3296943 57.0654321,60.3558952 54.9074074,62.6135371 C52.7493827,64.871179 49.7938272,66 46.0407407,66 L44,66 L44,59.5873362 Z" id="Path"></path>
        </g>
    </g>
</svg>