<?xml version="1.0" encoding="UTF-8"?>
<svg width="110px" height="110px" viewBox="0 0 110 110" version="1.1" xmlns="http://www.w3.org/2000/svg" xmlns:xlink="http://www.w3.org/1999/xlink">
    <title>viz_column_chart</title>
    <g id="viz_column_chart" stroke="none" stroke-width="1" fill="none" fill-rule="evenodd">
        <g id="Group" transform="translate(23.500000, 19.500000)" fill="#9aa0a6">
            <path d="M-26.5,30.5 L35.5,30.5 C37.709139,30.5 39.5,32.290861 39.5,34.5 L39.5,35.5 C39.5,37.709139 37.709139,39.5 35.5,39.5 L-26.5,39.5 C-28.709139,39.5 -30.5,37.709139 -30.5,35.5 L-30.5,34.5 C-30.5,32.290861 -28.709139,30.5 -26.5,30.5 Z" id="Rectangle-Copy-59" transform="translate(4.500000, 35.000000) rotate(-90.000000) translate(-4.500000, -35.000000) "></path>
            <path d="M-0.5,38.5 L45.5,38.5 C47.709139,38.5 49.5,40.290861 49.5,42.5 L49.5,43.5 C49.5,45.709139 47.709139,47.5 45.5,47.5 L-0.5,47.5 C-2.709139,47.5 -4.5,45.709139 -4.5,43.5 L-4.5,42.5 C-4.5,40.290861 -2.709139,38.5 -0.5,38.5 Z" id="Rectangle-Copy-62" transform="translate(22.500000, 43.000000) rotate(-90.000000) translate(-22.500000, -43.000000) "></path>
            <path d="M23.5,45.5 L57.5,45.5 C59.709139,45.5 61.5,47.290861 61.5,49.5 L61.5,50.5 C61.5,52.709139 59.709139,54.5 57.5,54.5 L23.5,54.5 C21.290861,54.5 19.5,52.709139 19.5,50.5 L19.5,49.5 C19.5,47.290861 21.290861,45.5 23.5,45.5 Z" id="Rectangle-Copy-66" transform="translate(40.500000, 50.000000) rotate(-90.000000) translate(-40.500000, -50.000000) "></path>
            <path d="M47.5,50.5 L70.5,50.5 C72.709139,50.5 74.5,52.290861 74.5,54.5 L74.5,55.5 C74.5,57.709139 72.709139,59.5 70.5,59.5 L47.5,59.5 C45.290861,59.5 43.5,57.709139 43.5,55.5 L43.5,54.5 C43.5,52.290861 45.290861,50.5 47.5,50.5 Z" id="Rectangle-Copy-67" transform="translate(59.000000, 55.000000) rotate(-90.000000) translate(-59.000000, -55.000000) "></path>
        </g>
    </g>
</svg>