<?xml version="1.0" encoding="UTF-8"?>
<svg width="110px" height="110px" viewBox="0 0 110 110" version="1.1" xmlns="http://www.w3.org/2000/svg" xmlns:xlink="http://www.w3.org/1999/xlink">
    <title>viz_bar_chart</title>
    <g id="viz_bar_chart" stroke="none" stroke-width="1" fill="none" fill-rule="evenodd">
        <g id="Group-3" transform="translate(20.000000, 24.000000)" fill="#9aa0a6">
            <g id="Group-2" transform="translate(34.500000, 31.000000) rotate(-270.000000) translate(-34.500000, -31.000000) translate(3.500000, -3.500000)">
                <path d="M-26.056314,30.056314 L34.943686,30.056314 C37.152825,30.056314 38.943686,31.847175 38.943686,34.056314 L38.943686,34.943686 C38.943686,37.152825 37.152825,38.943686 34.943686,38.943686 L-26.056314,38.943686 C-28.265453,38.943686 -30.056314,37.152825 -30.056314,34.943686 L-30.056314,34.056314 C-30.056314,31.847175 -28.265453,30.056314 -26.056314,30.056314 Z" id="Rectangle-Copy-59" transform="translate(4.443686, 34.500000) rotate(-90.000000) translate(-4.443686, -34.500000) "></path>
                <path d="M-0.491247385,37.8466366 L44.9281075,37.8466366 C47.1372465,37.8466366 48.9281075,39.6374976 48.9281075,41.8466366 L48.9281075,42.7340086 C48.9281075,44.9431476 47.1372465,46.7340086 44.9281075,46.7340086 L-0.491247385,46.7340086 C-2.70038638,46.7340086 -4.49124739,44.9431476 -4.49124739,42.7340086 L-4.49124739,41.8466366 C-4.49124739,39.6374976 -2.70038638,37.8466366 -0.491247385,37.8466366 Z" id="Rectangle-Copy-62" transform="translate(22.218430, 42.290323) rotate(-90.000000) translate(-22.218430, -42.290323) "></path>
                <path d="M23.3837854,43.9469253 L56.6025627,43.9469253 C58.8117017,43.9469253 60.6025627,45.7377863 60.6025627,47.9469253 L60.6025627,48.8342973 C60.6025627,51.0434363 58.8117017,52.8342973 56.6025627,52.8342973 L23.3837854,52.8342973 C21.1746464,52.8342973 19.3837854,51.0434363 19.3837854,48.8342973 L19.3837854,47.9469253 C19.3837854,45.7377863 21.1746464,43.9469253 23.3837854,43.9469253 Z" id="Rectangle-Copy-66" transform="translate(39.993174, 48.390611) rotate(-90.000000) translate(-39.993174, -48.390611) "></path>
                <path d="M46.7286345,49.7286345 L68.8072017,49.7286345 C71.0163407,49.7286345 72.8072017,51.5194955 72.8072017,53.7286345 L72.8072017,54.1927983 C72.8072017,56.4019373 71.0163407,58.1927983 68.8072017,58.1927983 L46.7286345,58.1927983 C44.5194955,58.1927983 42.7286345,56.4019373 42.7286345,54.1927983 L42.7286345,53.7286345 C42.7286345,51.5194955 44.5194955,49.7286345 46.7286345,49.7286345 Z" id="Rectangle-Copy-67" transform="translate(57.767918, 53.960716) rotate(-90.000000) translate(-57.767918, -53.960716) "></path>
            </g>
        </g>
    </g>
</svg>