<?xml version="1.0" encoding="UTF-8"?>
<svg width="110px" height="110px" viewBox="0 0 110 110" version="1.1" xmlns="http://www.w3.org/2000/svg" xmlns:xlink="http://www.w3.org/1999/xlink">
    <title>viz_dashboard</title>
    <g id="viz_dashboard" stroke="none" stroke-width="1" fill="none" fill-rule="evenodd">
        <g id="dashboard_black_24dp" transform="translate(13.000000, 13.000000)">
            <path d="M5,0 L80,0 C82.7614237,-5.07265313e-16 85,2.23857625 85,5 L85,80 C85,82.7614237 82.7614237,85 80,85 L5,85 C2.23857625,85 3.38176876e-16,82.7614237 0,80 L0,5 C-3.38176876e-16,2.23857625 2.23857625,5.07265313e-16 5,0 Z" id="Path"></path>
            <path d="M67,18 L67,25 L53,25 L53,18 L67,18 M32,18 L32,39 L18,39 L18,18 L32,18 M67,46 L67,67 L53,67 L53,46 L67,46 M32,60 L32,67 L18,67 L18,60 L32,60 M69,11 L51,11 C48.2385763,11 46,13.2385763 46,16 L46,27 C46,29.7614237 48.2385763,32 51,32 L69,32 C71.7614237,32 74,29.7614237 74,27 L74,16 C74,13.2385763 71.7614237,11 69,11 Z M34,11 L16,11 C13.2385763,11 11,13.2385763 11,16 L11,41 C11,43.7614237 13.2385763,46 16,46 L34,46 C36.7614237,46 39,43.7614237 39,41 L39,16 C39,13.2385763 36.7614237,11 34,11 Z M69,39 L51,39 C48.2385763,39 46,41.2385763 46,44 L46,69 C46,71.7614237 48.2385763,74 51,74 L69,74 C71.7614237,74 74,71.7614237 74,69 L74,44 C74,41.2385763 71.7614237,39 69,39 Z M34,53 L16,53 C13.2385763,53 11,55.2385763 11,58 L11,69 C11,71.7614237 13.2385763,74 16,74 L34,74 C36.7614237,74 39,71.7614237 39,69 L39,58 C39,55.2385763 36.7614237,53 34,53 Z" id="Shape" fill="#9aa0a6" fill-rule="nonzero"></path>
        </g>
    </g>
</svg>