<?xml version="1.0" encoding="UTF-8"?>
<svg width="110px" height="110px" viewBox="0 0 110 110" version="1.1" xmlns="http://www.w3.org/2000/svg" xmlns:xlink="http://www.w3.org/1999/xlink">
    <title>viz_map_segment</title>
    <g id="viz_map_segment" stroke="none" stroke-width="1" fill="none" fill-rule="evenodd">
        <g id="Group-Copy-36" transform="translate(11.000000, 27.000000)" fill-rule="nonzero">
            <path d="M17,0 C7.60142857,0 0,7.6685 0,17.15 C0,30.0125 17,49 17,49 C17,49 34,30.0125 34,17.15 C34,7.6685 26.3985714,0 17,0 Z M4.85714286,17.15 C4.85714286,10.388 10.2971429,4.9 17,4.9 C23.7028571,4.9 29.1428571,10.388 29.1428571,17.15 C29.1428571,24.206 22.1485714,34.7655 17,41.356 C11.9485714,34.8145 4.85714286,24.1325 4.85714286,17.15 Z" id="Shape" fill="#9aa0a6"></path>
            <path d="M17,24 C20.31368,24 23,21.31368 23,18 C23,14.686296 20.31368,12 17,12 C13.68632,12 11,14.686296 11,18 C11,21.31368 13.68632,24 17,24 Z" id="Path" fill="#9aa0a6"></path>
        </g>
        <g id="Group-Copy-37" transform="translate(62.000000, 27.000000)" fill-rule="nonzero">
            <path d="M17,0 C7.60142857,0 0,7.6685 0,17.15 C0,30.0125 17,49 17,49 C17,49 34,30.0125 34,17.15 C34,7.6685 26.3985714,0 17,0 Z M4.85714286,17.15 C4.85714286,10.388 10.2971429,4.9 17,4.9 C23.7028571,4.9 29.1428571,10.388 29.1428571,17.15 C29.1428571,24.206 22.1485714,34.7655 17,41.356 C11.9485714,34.8145 4.85714286,24.1325 4.85714286,17.15 Z" id="Shape" fill="#9aa0a6"></path>
            <path d="M17,24 C20.31368,24 23,21.31368 23,18 C23,14.686296 20.31368,12 17,12 C13.68632,12 11,14.686296 11,18 C11,21.31368 13.68632,24 17,24 Z" id="Path" fill="#9aa0a6"></path>
        </g>
        <line x1="28.5" y1="81.5" x2="79.5" y2="81.5" id="Line-3" stroke="#9aa0a6" stroke-width="5" stroke-linecap="round" stroke-dasharray="5,10"></line>
    </g>
</svg>