<?xml version="1.0" encoding="UTF-8"?>
<svg width="110px" height="110px" viewBox="0 0 110 110" version="1.1" xmlns="http://www.w3.org/2000/svg" xmlns:xlink="http://www.w3.org/1999/xlink">
    <title>viz_map_shape</title>
    <g id="viz_map_shape" stroke="none" stroke-width="1" fill="none" fill-rule="evenodd">
        <g id="noun-world-4667432-2" transform="translate(19.000000, 19.000000)" fill="#9aa0a6" fill-rule="nonzero">
            <g id="noun-world-4667432">
                <path d="M36,5 C18.8798665,5 5,18.8793071 5,36 C5,53.1206929 18.8793071,67 36,67 C53.1206929,67 67,53.1206929 67,36 C67,18.8793071 53.1206929,5 36,5 Z M0,36 C0,16.1177143 16.1177143,0 36,0 C55.8822857,0 72,16.1177143 72,36 C72,55.8822857 55.8822857,72 36,72 C16.1177143,72 0,55.8822857 0,36 Z" id="Shape"></path>
                <path d="M37.2848685,1.50131372 C37.8999474,1.48477633 38.4631152,1.71654937 38.8767996,2.10376364 C39.2928262,2.49317029 39.5578301,3.03960333 39.57434,3.65023916 L39.57434,3.65023916 L40.0344656,20.7428771 C40.0487121,21.2893502 39.8586306,21.8212062 39.4992535,22.2375953 L39.4992535,22.2375953 L32.1172188,30.7832284 C31.7924232,31.1592888 31.3490374,31.4169308 30.8586892,31.5134813 L30.8586892,31.5134813 L24.6865498,32.7324332 L28.0628423,42.7359018 C28.4533111,43.8925701 28.4513039,45.0197005 28.1633304,46.0321806 C27.8503264,47.132665 27.1975708,48.0987342 26.3338575,48.8190181 C25.4716664,49.5380326 24.3999821,50.0114808 23.2508211,50.1317463 C22.1949716,50.2422462 21.0728206,50.0558305 19.9867908,49.4837618 L19.9867908,49.4837618 L1.68382097,39.8433672 C1.13885361,39.5565384 0.764084629,39.078393 0.597525292,38.5380041 C0.430427538,37.9958684 0.472619244,37.3906551 0.763987861,36.8508084 C1.05393693,36.3139129 1.53648052,35.9433066 2.08313472,35.7791188 C2.62798313,35.6154734 3.2361363,35.657153 3.77860632,35.9426925 L3.77860632,35.9426925 L22.0816454,45.5831236 C22.3171919,45.7071442 22.5603781,45.7498863 22.7897862,45.7258621 C23.0398735,45.6996723 23.2725259,45.5956093 23.4599703,45.4392842 C23.6458558,45.2842591 23.7880139,45.0772117 23.8554593,44.8399997 C23.9169381,44.6237728 23.9147045,44.383346 23.8314444,44.1367864 L23.8314444,44.1367864 L19.6527943,31.7569079 C19.4493668,31.1542234 19.517516,30.4944328 19.8403231,29.9450638 C20.1614725,29.3985413 20.7046793,29.014044 21.3323155,28.8900909 L21.3323155,28.8900909 L29.2286003,27.3302661 L35.5513871,20.0108413 L35.1144494,3.7686887 C35.0979491,3.15801867 35.3331708,2.59836837 35.7276711,2.18746751 C36.1199426,1.77888802 36.6699139,1.51752889 37.2848685,1.50131372 Z" id="Path" stroke="#9aa0a6"></path>
                <path d="M42.2538467,56.3169014 C42.834665,56.3169014 43.3919278,56.5473051 43.8025756,56.957964 L43.8025756,56.957964 L50.5634819,63.7190531 C50.990585,64.1465338 51.2042254,64.7070592 51.2042254,65.267637 C51.2042254,65.8282064 50.9905908,66.3887389 50.5631792,66.8165562 C50.1353619,67.244019 49.5748515,67.4577465 49.0143336,67.4577465 C48.453827,67.4577465 47.893307,67.2440267 47.4652769,66.8163886 L47.4652769,66.8163886 L41.3467145,60.697095 L29.639469,60.697095 L23.5207389,66.8165562 C23.0929158,67.2440249 22.5323953,67.4577465 21.9719658,67.4577465 C21.4114352,67.4577465 20.8509999,67.2439558 20.4235838,66.8165562 C19.995665,66.388992 19.7816901,65.8283383 19.7816901,65.2676696 C19.7816901,64.7070094 19.9956592,64.1463486 20.4234173,63.7189168 L20.4234173,63.7189168 L27.1839229,56.9576493 C27.5952192,56.5470739 28.1516855,56.3169014 28.7323368,56.3169014 L28.7323368,56.3169014 Z" id="Path" stroke="#9aa0a6"></path>
                <path d="M63.9378166,21.2379048 C64.4225216,20.8714311 65.0086399,20.7379975 65.5642349,20.8181856 C66.1191803,20.8982799 66.6440521,21.191578 67.006552,21.6798365 C67.3682973,22.1662502 67.5006358,22.75458 67.4216695,23.3126471 C67.3426278,23.8712474 67.0519787,24.3991735 66.5692317,24.7645164 L66.5692317,24.7645164 L53.5947929,34.5837331 L50.8571888,42.8725775 L63.4236834,55.5534973 C63.8498746,55.9835692 64.0634024,56.5474048 64.0634024,57.111468 C64.0634024,57.6755228 63.8498803,58.2393656 63.4235328,58.6696236 C62.9952729,59.1014133 62.434079,59.3169014 61.8731786,59.3169014 C61.3121772,59.3169014 60.7510686,59.1013441 60.3230649,58.6694716 L60.3230649,58.6694716 L46.8022881,45.0255804 C46.5094233,44.730049 46.31189,44.3642735 46.2203738,43.9732706 C46.1289585,43.5826987 46.1433461,43.1669732 46.2741073,42.7711741 L46.2741073,42.7711741 L49.6544877,32.5388634 C49.7943202,32.1133276 50.0607882,31.7409505 50.416846,31.4711161 L50.416846,31.4711161 Z" id="Path" stroke="#9aa0a6"></path>
            </g>
        </g>
    </g>
</svg>