<?xml version="1.0" encoding="UTF-8"?>
<svg width="110px" height="110px" viewBox="0 0 110 110" version="1.1" xmlns="http://www.w3.org/2000/svg" xmlns:xlink="http://www.w3.org/1999/xlink">
    <title>viz_link</title>
    <g id="viz_link" stroke="none" stroke-width="1" fill="none" fill-rule="evenodd">
        <g id="link_black_24dp" transform="translate(5.000000, 5.000000)">
            <path d="M5,0 L96,0 C98.7614237,-5.07265313e-16 101,2.23857625 101,5 L101,96 C101,98.7614237 98.7614237,101 96,101 L5,101 C2.23857625,101 3.38176876e-16,98.7614237 0,96 L0,5 C-3.38176876e-16,2.23857625 2.23857625,5.07265313e-16 5,0 Z" id="Path"></path>
            <path d="M71,30 L58.4,30 C56.0804041,30 54.2,31.8804041 54.2,34.2 C54.2,36.5195959 56.0804041,38.4 58.4,38.4 L71,38.4 L71,38.4 C77.93,38.4 83.6,44.07 83.6,51 C83.6,57.93 77.93,63.6 71,63.6 L58.4,63.6 C56.0804041,63.6 54.2,65.4804041 54.2,67.8 C54.2,70.1195959 56.0804041,72 58.4,72 L71,72 L71,72 C82.592,72 92,62.592 92,51 C92,39.408 82.592,30 71,30 Z M41.6,63.6 L29,63.6 L29,63.6 C22.07,63.6 16.4,57.93 16.4,51 C16.4,44.07 22.07,38.4 29,38.4 L41.6,38.4 C43.9195959,38.4 45.8,36.5195959 45.8,34.2 C45.8,31.8804041 43.9195959,30 41.6,30 L29,30 L29,30 C17.408,30 8,39.408 8,51 C8,62.592 17.408,72 29,72 L41.6,72 C43.9195959,72 45.8,70.1195959 45.8,67.8 C45.8,65.4804041 43.9195959,63.6 41.6,63.6 Z M37.4,46.8 L62.6,46.8 C64.9195959,46.8 66.8,48.6804041 66.8,51 C66.8,53.3195959 64.9195959,55.2 62.6,55.2 L37.4,55.2 C35.0804041,55.2 33.2,53.3195959 33.2,51 C33.2,48.6804041 35.0804041,46.8 37.4,46.8 Z" id="Shape" fill="#9aa0a6" fill-rule="nonzero"></path>
        </g>
    </g>
</svg>