<?xml version="1.0" encoding="UTF-8"?>
<svg width="110px" height="110px" viewBox="0 0 110 110" version="1.1" xmlns="http://www.w3.org/2000/svg" xmlns:xlink="http://www.w3.org/1999/xlink">
    <title>viz_text</title>
    <g id="viz_text" stroke="none" stroke-width="1" fill="none" fill-rule="evenodd">
        <rect id="Rectangle-Copy" stroke="#9aa0a6" stroke-width="6" x="15.5" y="35" width="79" height="40" rx="5"></rect>
        <g id="abc" transform="translate(33.090000, 44.134000)" fill="#9aa0a6" fill-rule="nonzero">
            <path d="M4.81,19.032 C3.406,19.032 2.25333333,18.6203333 1.352,17.797 C0.450666667,16.9736667 0,15.8946667 0,14.56 C0,13.676 0.234,12.896 0.702,12.22 C1.17,11.544 1.81133333,11.024 2.626,10.66 C3.44066667,10.296 4.342,10.114 5.33,10.114 C6.69933333,10.114 7.86933333,10.3133333 8.84,10.712 L8.84,10.14 C8.84,9.412 8.567,8.82266667 8.021,8.372 C7.475,7.92133333 6.74266667,7.696 5.824,7.696 C5.2,7.696 4.59766667,7.839 4.017,8.125 C3.43633333,8.411 2.95533333,8.788 2.574,9.256 L0.39,7.54 C1.03133333,6.708 1.83733333,6.06666667 2.808,5.616 C3.77866667,5.16533333 4.836,4.94 5.98,4.94 C8.008,4.94 9.55066667,5.408 10.608,6.344 C11.6653333,7.28 12.194,8.64933333 12.194,10.452 L12.194,18.616 L8.84,18.616 L8.84,17.264 L8.632,17.264 C8.23333333,17.784 7.709,18.2086667 7.059,18.538 C6.409,18.8673333 5.65933333,19.032 4.81,19.032 Z M5.616,16.38 C6.604,16.38 7.38833333,16.0636667 7.969,15.431 C8.54966667,14.7983333 8.84,14.0573333 8.84,13.208 C7.956,12.792 7.02866667,12.584 6.058,12.584 C4.29,12.584 3.406,13.2426667 3.406,14.56 C3.406,15.0973333 3.59666667,15.535 3.978,15.873 C4.35933333,16.211 4.90533333,16.38 5.616,16.38 Z" id="Shape"></path>
            <path d="M22.724,19.032 C21.8226667,19.032 21.021,18.8413333 20.319,18.46 C19.617,18.0786667 19.0926667,17.602 18.746,17.03 L18.538,17.03 L18.538,18.616 L15.34,18.616 L15.34,0 L18.746,0 L18.746,5.096 L18.538,6.968 L18.746,6.968 C19.11,6.396 19.6386667,5.915 20.332,5.525 C21.0253333,5.135 21.8226667,4.94 22.724,4.94 C23.92,4.94 25.0076667,5.239 25.987,5.837 C26.9663333,6.435 27.7333333,7.27133333 28.288,8.346 C28.8426667,9.42066667 29.12,10.634 29.12,11.986 C29.12,13.3553333 28.8426667,14.573 28.288,15.639 C27.7333333,16.705 26.9663333,17.537 25.987,18.135 C25.0076667,18.733 23.92,19.032 22.724,19.032 Z M22.126,15.886 C22.7673333,15.886 23.3653333,15.7213333 23.92,15.392 C24.4746667,15.0626667 24.9166667,14.6033333 25.246,14.014 C25.5753333,13.4246667 25.74,12.7486667 25.74,11.986 C25.74,11.2233333 25.5753333,10.5473333 25.246,9.958 C24.9166667,9.36866667 24.4746667,8.91366667 23.92,8.593 C23.3653333,8.27233333 22.7673333,8.112 22.126,8.112 C21.502,8.112 20.9126667,8.27233333 20.358,8.593 C19.8033333,8.91366667 19.3613333,9.36866667 19.032,9.958 C18.7026667,10.5473333 18.538,11.2233333 18.538,11.986 C18.538,12.7486667 18.7026667,13.4246667 19.032,14.014 C19.3613333,14.6033333 19.8033333,15.0626667 20.358,15.392 C20.9126667,15.7213333 21.502,15.886 22.126,15.886 Z" id="Shape"></path>
            <path d="M37.986,19.032 C36.6513333,19.032 35.4553333,18.733 34.398,18.135 C33.3406667,17.537 32.513,16.7006667 31.915,15.626 C31.317,14.5513333 31.018,13.338 31.018,11.986 C31.018,10.634 31.317,9.425 31.915,8.359 C32.513,7.293 33.3406667,6.45666667 34.398,5.85 C35.4553333,5.24333333 36.6513333,4.94 37.986,4.94 C39.4593333,4.94 40.7246667,5.25633333 41.782,5.889 C42.8393333,6.52166667 43.602,7.41866667 44.07,8.58 L40.95,9.88 C40.3953333,8.70133333 39.4073333,8.112 37.986,8.112 C36.946,8.112 36.0923333,8.46733333 35.425,9.178 C34.7576667,9.88866667 34.424,10.8246667 34.424,11.986 C34.424,13.1646667 34.7576667,14.1093333 35.425,14.82 C36.0923333,15.5306667 36.946,15.886 37.986,15.886 C39.4246667,15.886 40.4646667,15.262 41.106,14.014 L44.2,15.366 C43.628,16.5273333 42.8133333,17.4286667 41.756,18.07 C40.6986667,18.7113333 39.442,19.032 37.986,19.032 Z" id="Path"></path>
        </g>
    </g>
</svg>