<?xml version="1.0" encoding="UTF-8"?>
<svg width="110px" height="110px" viewBox="0 0 110 110" version="1.1" xmlns="http://www.w3.org/2000/svg" xmlns:xlink="http://www.w3.org/1999/xlink">
    <title>viz_currency</title>
    <g id="viz_currency" stroke="none" stroke-width="1" fill="none" fill-rule="evenodd">
        <g id="Group" transform="translate(19.000000, 19.000000)">
            <circle id="Oval" stroke="#9aa0a6" stroke-width="7" cx="36" cy="36" r="32.5"></circle>
            <path d="M35.7525,20.06 C38.5425,20.06 40.7775,20.7425 42.4575,22.1075 C44.1375,23.4725 45.2775,25.01 45.8775,26.72 L41.4225,28.61 C41.1225,27.53 40.4925,26.6 39.5325,25.82 C38.5725,25.04 37.3275,24.65 35.7975,24.65 C34.3275,24.65 33.0825,25.04 32.0625,25.82 C31.0425,26.6 30.5325,27.59 30.5325,28.79 C30.5325,29.9 30.99,30.8225 31.905,31.5575 C32.759,32.2435 34.0507333,32.8968333 35.7802,33.5175 L38.2275,34.37 C40.9875,35.33 43.1175,36.575 44.6175,38.105 C46.1175,39.635 46.8675,41.675 46.8675,44.225 C46.8675,46.325 46.335,48.0875 45.27,49.5125 C44.205,50.9375 42.84,51.995 41.175,52.685 C39.51,53.375 37.8075,53.72 36.0675,53.72 C33.3975,53.72 30.9975,52.94 28.8675,51.38 C26.7375,49.82 25.2525,47.63 24.4125,44.81 L29.0925,42.92 C29.5725,44.72 30.4275,46.19 31.6575,47.33 C32.8875,48.47 34.3725,49.04 36.1125,49.04 C37.7325,49.04 39.105,48.62 40.23,47.78 C41.355,46.94 41.9175,45.785 41.9175,44.315 C41.9175,42.965 41.4225,41.8475 40.4325,40.9625 C39.4975,40.1266667 37.9202778,39.3109028 35.7008333,38.5152083 L33.2775,37.655 C31.0875,36.875 29.265,35.7875 27.81,34.3925 C26.355,32.9975 25.6275,31.145 25.6275,28.835 C25.6275,27.245 26.055,25.775 26.91,24.425 C27.765,23.075 28.965,22.01 30.51,21.23 C32.055,20.45 33.8025,20.06 35.7525,20.06 Z" id="Path" fill="#9aa0a6" fill-rule="nonzero"></path>
            <line x1="36" y1="14" x2="36" y2="21" id="Line-Copy-4" stroke="#9aa0a6" stroke-width="5"></line>
            <line x1="36" y1="52" x2="36" y2="59" id="Line-Copy-5" stroke="#9aa0a6" stroke-width="5"></line>
        </g>
        <g id="S" transform="translate(43.412500, 37.060000)"></g>
    </g>
</svg>