<?xml version="1.0" encoding="UTF-8"?>
<svg width="110px" height="110px" viewBox="0 0 110 110" version="1.1" xmlns="http://www.w3.org/2000/svg" xmlns:xlink="http://www.w3.org/1999/xlink">
    <title>viz_line</title>
    <g id="viz_line" stroke="none" stroke-width="1" fill="none" fill-rule="evenodd">
        <path d="M88.1848681,33.1583406 C89.7542734,31.6035859 92.2869054,31.6154626 93.8416601,33.1848679 C95.3445896,34.7019597 95.3835892,37.1191334 93.9668812,38.6829968 L93.8151328,38.84166 L66.2578818,66.14166 C64.8378618,67.5484238 62.6084032,67.6843587 61.0319068,66.4919462 L60.8595019,66.3539866 L45.2420004,53.1430003 L21.844917,76.8176775 C20.3437446,78.336508 17.927116,78.4009733 16.3484126,77.0008213 L16.1881594,76.850753 C14.6693289,75.3495806 14.6048635,72.932952 16.0050156,71.3542486 L16.1550839,71.1939954 L42.1550839,44.8881592 C43.5729843,43.4535802 45.8262314,43.3057778 47.4155704,44.5116324 L47.583248,44.646014 L63.2290004,57.8810003 L88.1848681,33.1583406 Z" id="Path-10" fill="#9aa0a6" fill-rule="nonzero"></path>
    </g>
</svg>