<?xml version="1.0" encoding="UTF-8"?>
<svg width="110px" height="110px" viewBox="0 0 110 110" version="1.1" xmlns="http://www.w3.org/2000/svg" xmlns:xlink="http://www.w3.org/1999/xlink">
    <title>viz_number</title>
    <g id="viz_number" stroke="none" stroke-width="1" fill="none" fill-rule="evenodd">
        <g id="Group" transform="translate(20.000000, 20.000000)" fill="#9aa0a6">
            <path d="M-10.5,30.5 L51.5,30.5 C53.709139,30.5 55.5,32.290861 55.5,34.5 L55.5,35.5 C55.5,37.709139 53.709139,39.5 51.5,39.5 L-10.5,39.5 C-12.709139,39.5 -14.5,37.709139 -14.5,35.5 L-14.5,34.5 C-14.5,32.290861 -12.709139,30.5 -10.5,30.5 Z" id="Rectangle-Copy-60" transform="translate(20.500000, 35.000000) rotate(-90.000000) translate(-20.500000, -35.000000) "></path>
            <path d="M19.5,30.5 L81.5,30.5 C83.709139,30.5 85.5,32.290861 85.5,34.5 L85.5,35.5 C85.5,37.709139 83.709139,39.5 81.5,39.5 L19.5,39.5 C17.290861,39.5 15.5,37.709139 15.5,35.5 L15.5,34.5 C15.5,32.290861 17.290861,30.5 19.5,30.5 Z" id="Rectangle-Copy-61" transform="translate(50.500000, 35.000000) rotate(-90.000000) translate(-50.500000, -35.000000) "></path>
            <path d="M4,14 L66,14 C68.209139,14 70,15.790861 70,18 L70,19 C70,21.209139 68.209139,23 66,23 L4,23 C1.790861,23 2.705415e-16,21.209139 0,19 L0,18 C-2.705415e-16,15.790861 1.790861,14 4,14 Z" id="Rectangle-Copy-63" transform="translate(35.000000, 18.500000) rotate(-360.000000) translate(-35.000000, -18.500000) "></path>
            <path d="M4,44 L66,44 C68.209139,44 70,45.790861 70,48 L70,49 C70,51.209139 68.209139,53 66,53 L4,53 C1.790861,53 2.705415e-16,51.209139 0,49 L0,48 C-2.705415e-16,45.790861 1.790861,44 4,44 Z" id="Rectangle-Copy-62" transform="translate(35.000000, 48.500000) rotate(-360.000000) translate(-35.000000, -48.500000) "></path>
        </g>
    </g>
</svg>