<?xml version="1.0" encoding="UTF-8"?>
<svg width="110px" height="110px" viewBox="0 0 110 110" version="1.1" xmlns="http://www.w3.org/2000/svg" xmlns:xlink="http://www.w3.org/1999/xlink">
    <title>viz_percent</title>
    <g id="viz_percent" stroke="none" stroke-width="1" fill="none" fill-rule="evenodd">
        <g id="%-copy-5" transform="translate(19.000000, 22.000000)" fill="#9aa0a6" fill-rule="nonzero">
            <path d="M16.1194226,31.5251397 C19.1010499,31.5251397 21.8186789,30.8184358 24.2723097,29.4050279 C26.7259405,27.9916201 28.6671041,26.0712291 30.0958005,23.6438547 C31.5244969,21.2164804 32.2388451,18.5893855 32.2388451,15.7625698 C32.2388451,12.9357542 31.5244969,10.3086592 30.0958005,7.88128492 C28.6671041,5.45391061 26.7259405,3.53351955 24.2723097,2.12011173 C21.8186789,0.706703911 19.1010499,0 16.1194226,0 C13.1377953,0 10.4201662,0.706703911 7.96653543,2.12011173 C5.51290464,3.53351955 3.57174103,5.45391061 2.14304462,7.88128492 C0.714348206,10.3086592 0,12.9357542 0,15.7625698 C0,18.5893855 0.714348206,21.2164804 2.14304462,23.6438547 C3.57174103,26.0712291 5.51290464,27.9916201 7.96653543,29.4050279 C10.4201662,30.8184358 13.1377953,31.5251397 16.1194226,31.5251397 Z M19.9645575,62.4787112 L57.1929452,7.56550735 C58.3200259,5.90302296 57.8859954,3.64163362 56.223511,2.5145529 C56.2107419,2.50589603 56.1979177,2.49732049 56.1850394,2.48882682 C54.4804105,1.3645685 52.1887314,1.81914062 51.0422905,3.50893047 L13.7228276,58.5157377 C12.6107181,60.1549252 13.0379992,62.3852921 14.6771866,63.4974016 C14.7072768,63.5178164 14.7376757,63.5377723 14.7683727,63.5572626 C16.507245,64.6613129 18.8087263,64.1836036 19.9645575,62.4787112 Z M16.1194226,24.150838 C13.8832021,24.150838 12.0041557,23.3519553 10.4822835,21.7541899 C8.9604112,20.1564246 8.19947507,18.1592179 8.19947507,15.7625698 C8.19947507,13.3044693 8.9604112,11.2918994 10.4822835,9.72486034 C12.0041557,8.15782123 13.8832021,7.37430168 16.1194226,7.37430168 C18.4177603,7.37430168 20.3278653,8.15782123 21.8497375,9.72486034 C23.3716098,11.2918994 24.1325459,13.3044693 24.1325459,15.7625698 C24.1325459,18.2206704 23.3716098,20.2332402 21.8497375,21.8002793 C20.3278653,23.3673184 18.4177603,24.150838 16.1194226,24.150838 Z M54.8805774,66 C57.8622047,66 60.5798338,65.2932961 63.0334646,63.8798883 C65.4870954,62.4664804 67.428259,60.5460894 68.8569554,58.1187151 C70.2856518,55.6913408 71,53.0642458 71,50.2374302 C71,47.4106145 70.2856518,44.7835196 68.8569554,42.3561453 C67.428259,39.9287709 65.4870954,38.0083799 63.0334646,36.5949721 C60.5798338,35.1815642 57.8622047,34.4748603 54.8805774,34.4748603 C51.8989501,34.4748603 49.1813211,35.1815642 46.7276903,36.5949721 C44.2740595,38.0083799 42.3328959,39.9287709 40.9041995,42.3561453 C39.4755031,44.7835196 38.7611549,47.4106145 38.7611549,50.2374302 C38.7611549,53.0642458 39.4755031,55.6913408 40.9041995,58.1187151 C42.3328959,60.5460894 44.2740595,62.4664804 46.7276903,63.8798883 C49.1813211,65.2932961 51.8989501,66 54.8805774,66 Z M54.8805774,58.6256983 C52.644357,58.6256983 50.7653106,57.8268156 49.2434383,56.2290503 C47.7215661,54.6312849 46.9606299,52.6340782 46.9606299,50.2374302 C46.9606299,47.7793296 47.7215661,45.7667598 49.2434383,44.1997207 C50.7653106,42.6326816 52.644357,41.849162 54.8805774,41.849162 C57.1789151,41.849162 59.0890201,42.6326816 60.6108924,44.1997207 C62.1327647,45.7667598 62.8937008,47.7793296 62.8937008,50.2374302 C62.8937008,52.6340782 62.1172353,54.6312849 60.5643045,56.2290503 C59.0113736,57.8268156 57.1167979,58.6256983 54.8805774,58.6256983 Z" id="%-copy-2"></path>
        </g>
    </g>
</svg>