<?xml version="1.0" encoding="UTF-8"?>
<svg width="110px" height="110px" viewBox="0 0 110 110" version="1.1" xmlns="http://www.w3.org/2000/svg" xmlns:xlink="http://www.w3.org/1999/xlink">
    <title>viz_map_points</title>
    <g id="viz_map_points" stroke="none" stroke-width="1" fill="none" fill-rule="evenodd">
        <g id="Group-Copy-36" transform="translate(30.000000, 19.000000)" fill="#9aa0a6" fill-rule="nonzero">
            <path d="M25,0 C11.1785714,0 0,11.268 0,25.2 C0,44.1 25,72 25,72 C25,72 50,44.1 50,25.2 C50,11.268 38.8214286,0 25,0 Z M7.14285714,25.2 C7.14285714,15.264 15.1428571,7.2 25,7.2 C34.8571429,7.2 42.8571429,15.264 42.8571429,25.2 C42.8571429,35.568 32.5714286,51.084 25,60.768 C17.5714286,51.156 7.14285714,35.46 7.14285714,25.2 Z" id="Shape"></path>
            <path d="M25,34 C29.97052,34 34,29.97052 34,25 C34,20.029444 29.97052,16 25,16 C20.02948,16 16,20.029444 16,25 C16,29.97052 20.02948,34 25,34 Z" id="Path"></path>
        </g>
    </g>
</svg>