<?xml version="1.0" encoding="UTF-8"?>
<svg width="110px" height="110px" viewBox="0 0 110 110" version="1.1" xmlns="http://www.w3.org/2000/svg" xmlns:xlink="http://www.w3.org/1999/xlink">
    <title>viz_boolean</title>
    <g id="viz_boolean" stroke="none" stroke-width="1" fill="none" fill-rule="evenodd">
        <g id="noun_switch_3350414-2" transform="translate(20.000000, 22.000000)" fill="#9aa0a6" fill-rule="nonzero">
            <g id="noun_switch_3350414">
                <path d="M15.2972028,30.8 L54.7027972,30.8 C63.151209,30.8 70,23.9051851 70,15.4 C70,6.89481485 63.151209,0 54.7027972,0 L15.2972028,0 C6.84879098,0 0,6.89481485 0,15.4 C0,23.9051851 6.84879098,30.8 15.2972028,30.8 Z M15.2972028,6.16 L54.7027972,6.16 C59.7718443,6.16 63.8811189,10.2968889 63.8811189,15.4 C63.8811189,20.5031111 59.7718443,24.64 54.7027972,24.64 L15.2972028,24.64 C10.2281557,24.64 6.11888112,20.5031111 6.11888112,15.4 C6.11888112,10.2968889 10.2281557,6.16 15.2972028,6.16 Z" id="Shape"></path>
                <path d="M19.6340542,21.9997804 C22.2930484,22.0215224 24.7022661,20.4273668 25.7348338,17.9629544 C26.7674016,15.4985421 26.2191958,12.6510518 24.3466309,10.7523518 C22.474066,8.85365189 19.6473211,8.27908795 17.1885612,9.29740315 C14.7298014,10.3157183 13.125,12.7256064 13.125,15.3998806 C13.125,19.0240523 16.0305897,21.9703156 19.6340542,21.9997804 L19.6340542,21.9997804 Z" id="Path"></path>
                <path d="M54.7027971,35.2 L15.2972025,35.2 C6.84879081,35.2 0,42.094815 0,50.6 C0,59.105185 6.84879081,66 15.2972025,66 L54.7027971,66 C63.151209,66 70,59.1051851 70,50.6 C70,42.0948149 63.151209,35.2 54.7027971,35.2 L54.7027971,35.2 Z M54.7027971,59.84 L15.2972025,59.84 C10.2281554,59.84 6.11888082,55.7031111 6.11888082,50.6 C6.11888082,45.4968889 10.2281554,41.36 15.2972025,41.36 L54.7027971,41.36 C59.7718442,41.36 63.8811189,45.4968889 63.8811189,50.6 C63.8811189,55.7031111 59.7718442,59.84 54.7027971,59.84 L54.7027971,59.84 Z" id="Shape"></path>
                <path d="M50.3659458,44.0002196 C47.7069516,43.9784776 45.2977339,45.5726332 44.2651662,48.0370456 C43.2325984,50.5014579 43.7808042,53.3489482 45.6533691,55.2476482 C47.525934,57.1463481 50.3526789,57.720912 52.8114388,56.7025969 C55.2701986,55.6842817 56.875,53.2743936 56.875,50.6001194 C56.875,46.9759477 53.9694103,44.0296844 50.3659458,44.0002196 Z" id="Path"></path>
            </g>
        </g>
    </g>
</svg>