<?xml version="1.0" encoding="UTF-8"?>
<svg width="110px" height="110px" viewBox="0 0 110 110" version="1.1" xmlns="http://www.w3.org/2000/svg" xmlns:xlink="http://www.w3.org/1999/xlink">
    <title>viz_table</title>
    <g id="viz_table" stroke="none" stroke-width="1" fill="none" fill-rule="evenodd">
        <path d="M81.0526316,23 L28.9473684,23 C25.1263158,23 22,26.1662162 22,30.036036 L22,79.2882883 C22,83.1581081 25.1263158,86.3243243 28.9473684,86.3243243 L81.0526316,86.3243243 C84.8736842,86.3243243 88,83.1581081 88,79.2882883 L88,30.036036 C88,26.1662162 84.8736842,23 81.0526316,23 Z M80.8648649,30.1351351 L80.8648649,40.8378378 L28.2432432,40.8378378 L28.2432432,30.1351351 L80.8648649,30.1351351 Z M63.9189189,79.1891892 L46.0810811,79.1891892 L46.0810811,47.972973 L63.9189189,47.972973 L63.9189189,79.1891892 Z M28.2432432,47.972973 L38.9459459,47.972973 L38.9459459,79.1891892 L28.2432432,79.1891892 L28.2432432,47.972973 Z M71.0540541,79.1891892 L71.0540541,47.972973 L81.7567568,47.972973 L81.7567568,79.1891892 L71.0540541,79.1891892 Z" id="Shape" fill="#9aa0a6" fill-rule="nonzero"></path>
    </g>
</svg>