<?xml version="1.0" encoding="UTF-8"?>
<svg width="172px" height="172px" viewBox="0 0 172 172" version="1.1" xmlns="http://www.w3.org/2000/svg" xmlns:xlink="http://www.w3.org/1999/xlink">
    <title>more_info_docs</title>
    <defs>
        <path d="M67.7884615,0 L10.1682692,0 C4.57572115,0 0,4.60227272 0,10.2272727 L0,139.772727 C0,145.397727 4.57572115,150 10.1682692,150 L98.2932692,150 C103.885817,150 108.461538,145.397727 108.461538,139.772727 L108.461538,40.9090908 L67.7884615,0 Z" id="path-1"></path>
        <path d="M67.7884615,0 L10.1682692,0 C4.57572115,0 0,4.60227272 0,10.2272727 L0,139.772727 C0,145.397727 4.57572115,150 10.1682692,150 L98.2932692,150 C103.885817,150 108.461538,145.397727 108.461538,139.772727 L108.461538,40.9090908 L67.7884615,0 Z" id="path-3"></path>
        <linearGradient x1="50.0053945%" y1="8.58610612%" x2="50.0053945%" y2="100.013939%" id="linearGradient-5">
            <stop stop-color="#1A237E" stop-opacity="0.2" offset="0%"></stop>
            <stop stop-color="#1A237E" stop-opacity="0.02" offset="100%"></stop>
        </linearGradient>
        <path d="M67.7884615,0 L10.1682692,0 C4.57572115,0 0,4.60227272 0,10.2272727 L0,139.772727 C0,145.397727 4.57572115,150 10.1682692,150 L98.2932692,150 C103.885817,150 108.461538,145.397727 108.461538,139.772727 L108.461538,40.9090908 L67.7884615,0 Z" id="path-6"></path>
        <path d="M67.7884615,0 L10.1682692,0 C4.57572115,0 0,4.60227272 0,10.2272727 L0,139.772727 C0,145.397727 4.57572115,150 10.1682692,150 L98.2932692,150 C103.885817,150 108.461538,145.397727 108.461538,139.772727 L108.461538,40.9090908 L67.7884615,0 Z" id="path-8"></path>
        <path d="M67.7884615,0 L10.1682692,0 C4.57572115,0 0,4.60227272 0,10.2272727 L0,139.772727 C0,145.397727 4.57572115,150 10.1682692,150 L98.2932692,150 C103.885817,150 108.461538,145.397727 108.461538,139.772727 L108.461538,40.9090908 L67.7884615,0 Z" id="path-10"></path>
        <path d="M67.7884615,0 L10.1682692,0 C4.57572115,0 0,4.60227272 0,10.2272727 L0,139.772727 C0,145.397727 4.57572115,150 10.1682692,150 L98.2932692,150 C103.885817,150 108.461538,145.397727 108.461538,139.772727 L108.461538,40.9090908 L67.7884615,0 Z" id="path-12"></path>
        <path d="M67.7884615,0 L10.1682692,0 C4.57572115,0 0,4.60227272 0,10.2272727 L0,139.772727 C0,145.397727 4.57572115,150 10.1682692,150 L98.2932692,150 C103.885817,150 108.461538,145.397727 108.461538,139.772727 L108.461538,40.9090908 L67.7884615,0 Z" id="path-14"></path>
        <radialGradient cx="3.16804688%" cy="2.71743122%" fx="3.16804688%" fy="2.71743122%" r="161.248516%" gradientTransform="translate(0.031680,0.027174),scale(1.000000,0.723077),translate(-0.031680,-0.027174)" id="radialGradient-16">
            <stop stop-color="#FFFFFF" stop-opacity="0.1" offset="0%"></stop>
            <stop stop-color="#FFFFFF" stop-opacity="0" offset="100%"></stop>
        </radialGradient>
    </defs>
    <g id="more_info_docs" stroke="none" stroke-width="1" fill="none" fill-rule="evenodd">
        <g id="Google_Docs_logo_(2014-2020)" transform="translate(31.769231, 11.000000)">
            <g id="Group">
                <g id="Path-Clipped">
                    <mask id="mask-2" fill="white">
                        <use xlink:href="#path-1"></use>
                    </mask>
                    <g id="path-1"></g>
                    <path d="M67.7884615,0 L10.1682692,0 C4.57572115,0 0,4.60227272 0,10.2272727 L0,139.772727 C0,145.397727 4.57572115,150 10.1682692,150 L98.2932692,150 C103.885817,150 108.461538,145.397727 108.461538,139.772727 L108.461538,40.9090908 L84.7355769,23.8636364 L67.7884615,0 Z" id="Path" fill="#4285F4" fill-rule="nonzero" mask="url(#mask-2)"></path>
                </g>
                <g id="Path-Clipped">
                    <mask id="mask-4" fill="white">
                        <use xlink:href="#path-3"></use>
                    </mask>
                    <g id="path-3"></g>
                    <polygon id="Path" fill="url(#linearGradient-5)" fill-rule="nonzero" mask="url(#mask-4)" points="70.7626802 37.9176136 108.461538 75.8267045 108.461538 40.9090908"></polygon>
                </g>
                <g id="Shape-Clipped">
                    <mask id="mask-7" fill="white">
                        <use xlink:href="#path-6"></use>
                    </mask>
                    <g id="path-6"></g>
                    <path d="M27.1153846,109.090909 L81.3461538,109.090909 L81.3461538,102.272727 L27.1153846,102.272727 L27.1153846,109.090909 Z M27.1153846,122.727273 L67.7884615,122.727273 L67.7884615,115.909091 L27.1153846,115.909091 L27.1153846,122.727273 Z M27.1153846,75 L27.1153846,81.8181819 L81.3461538,81.8181819 L81.3461538,75 L27.1153846,75 Z M27.1153846,95.4545455 L81.3461538,95.4545455 L81.3461538,88.6363636 L27.1153846,88.6363636 L27.1153846,95.4545455 Z" id="Shape" fill="#F1F1F1" fill-rule="nonzero" mask="url(#mask-7)"></path>
                </g>
                <g id="Group-Clipped">
                    <mask id="mask-9" fill="white">
                        <use xlink:href="#path-8"></use>
                    </mask>
                    <g id="path-8"></g>
                    <g id="Group" mask="url(#mask-9)">
                        <g transform="translate(67.788462, 0.000001)">
                            <path d="M0,1.02482125e-15 L0,30.6818182 C0,36.3323863 4.55030049,40.909091 10.1682692,40.909091 L40.6730769,40.909091 L0,1.02482125e-15 Z" id="Path" fill="#A1C2FA" fill-rule="nonzero"></path>
                        </g>
                    </g>
                </g>
                <g id="Path-Clipped">
                    <mask id="mask-11" fill="white">
                        <use xlink:href="#path-10"></use>
                    </mask>
                    <g id="path-10"></g>
                    <path d="M10.1682692,0 C4.57572115,0 0,4.60227272 0,10.2272727 L0,11.0795454 C0,5.45454545 4.57572115,0.852272728 10.1682692,0.852272728 L67.7884615,0.852272728 L67.7884615,0 L10.1682692,0 Z" id="Path" fill-opacity="0.2" fill="#FFFFFF" fill-rule="nonzero" mask="url(#mask-11)"></path>
                </g>
                <g id="Path-Clipped">
                    <mask id="mask-13" fill="white">
                        <use xlink:href="#path-12"></use>
                    </mask>
                    <g id="path-12"></g>
                    <path d="M98.2932692,149.147727 L10.1682692,149.147727 C4.57572115,149.147727 0,144.545454 0,138.920454 L0,139.772727 C0,145.397727 4.57572115,150 10.1682692,150 L98.2932692,150 C103.885817,150 108.461538,145.397727 108.461538,139.772727 L108.461538,138.920454 C108.461538,144.545454 103.885817,149.147727 98.2932692,149.147727 Z" id="Path" fill-opacity="0.2" fill="#1A237E" fill-rule="nonzero" mask="url(#mask-13)"></path>
                </g>
                <g id="Path-Clipped">
                    <mask id="mask-15" fill="white">
                        <use xlink:href="#path-14"></use>
                    </mask>
                    <g id="path-14"></g>
                    <path d="M77.9567308,40.9090908 C72.3387621,40.9090908 67.7884615,36.3323864 67.7884615,30.6818181 L67.7884615,31.5340908 C67.7884615,37.1846592 72.3387621,41.7613636 77.9567308,41.7613636 L108.461538,41.7613636 L108.461538,40.9090908 L77.9567308,40.9090908 Z" id="Path" fill-opacity="0.1" fill="#1A237E" fill-rule="nonzero" mask="url(#mask-15)"></path>
                </g>
            </g>
            <path d="M67.7884615,0 L10.1682692,0 C4.57572115,0 0,4.60227272 0,10.2272727 L0,139.772727 C0,145.397727 4.57572115,150 10.1682692,150 L98.2932692,150 C103.885817,150 108.461538,145.397727 108.461538,139.772727 L108.461538,40.9090908 L67.7884615,0 Z" id="Path" fill="url(#radialGradient-16)" fill-rule="nonzero"></path>
        </g>
    </g>
</svg>