<?xml version="1.0" encoding="UTF-8"?>
<svg width="172px" height="172px" viewBox="0 0 172 172" version="1.1" xmlns="http://www.w3.org/2000/svg" xmlns:xlink="http://www.w3.org/1999/xlink">
    <title>more_info_github</title>
    <g id="more_info_github" stroke="none" stroke-width="1" fill="none" fill-rule="evenodd">
        <path d="M85.5643882,11.0808398 C43.0999253,11.0808398 8.6655971,45.5088009 8.6655971,87.9796309 C8.6655971,121.955531 30.6994413,150.78048 61.2536837,160.948673 C65.0968405,161.66051 66.5077808,159.280504 66.5077808,157.249412 C66.5077808,155.415699 66.4364697,149.358079 66.403361,142.932443 C45.010043,147.584216 40.4957982,133.859384 40.4957982,133.859384 C36.997736,124.97097 31.9575721,122.607518 31.9575721,122.607518 C24.9805489,117.83477 32.4834912,117.932823 32.4834912,117.932823 C40.2054603,118.475296 44.2714641,125.857265 44.2714641,125.857265 C51.13006,137.613402 62.2609525,134.214666 66.6491295,132.249792 C67.3393187,127.279666 69.3322081,123.887296 71.5313903,121.966992 C54.451118,120.022492 36.4960117,113.428765 36.4960117,83.9632901 C36.4960117,75.5676862 39.4999902,68.7078169 44.4191799,63.3225584 C43.6207507,61.3856991 40.9886085,53.5644039 45.1641258,42.9721646 C45.1641258,42.9721646 51.621597,40.9054173 66.316769,50.8545836 C72.4507936,49.1507586 79.0292389,48.2962993 85.5643882,48.2670108 C92.0995375,48.2962993 98.6830765,49.1507586 104.828562,50.8545836 C119.505906,40.9054173 125.954463,42.9721646 125.954463,42.9721646 C130.140168,53.5644039 127.506752,61.3856991 126.708323,63.3225584 C131.638974,68.7078169 134.622577,75.5676862 134.622577,83.9632901 C134.622577,113.498803 116.633089,120.002117 99.5095207,121.905868 C102.267731,124.292241 104.725415,128.97203 104.725415,136.146432 C104.725415,146.435599 104.636277,154.716596 104.636277,157.249412 C104.636277,159.295785 106.020475,161.693619 109.918389,160.938486 C140.456077,150.758832 162.461906,121.94407 162.461906,87.9796309 C162.461906,45.5088009 128.032671,11.0808398 85.5643882,11.0808398" id="Fill-5" fill="#0076B8"></path>
    </g>
</svg>