<?xml version="1.0" encoding="UTF-8"?>
<svg width="110px" height="110px" viewBox="0 0 110 110" version="1.1" xmlns="http://www.w3.org/2000/svg" xmlns:xlink="http://www.w3.org/1999/xlink">
    <title>query_save_hover</title>
    <g id="query_save_hover" stroke="none" stroke-width="1" fill="none" fill-rule="evenodd">
        <circle id="Oval" class="hoverfill" fill="transparent" cx="55" cy="55" r="55"></circle>
        <g id="Shape-2" transform="translate(24.000000, 24.000000) scale(1.1)" fill="#4285F4" fill-rule="nonzero" stroke="#4285F4" class="primaryfill primarystroke">
            <path d="M6.42790369,60 L53.5713363,60 C55.2765816,60 56.9114179,59.322713 58.1173102,58.1173546 C59.3226882,56.9115187 60,55.2766723 60,53.5714548 L60,13.7573316 C60.0028562,11.7971763 59.1112652,9.94330635 57.578773,8.72163787 L48.5146215,1.43595332 L48.5141432,1.43595332 C47.3690354,0.506593851 45.9388873,0 44.4642162,0 L6.4286499,0 C4.7234046,0 3.08856831,0.677287031 1.88267604,1.88264538 C0.677298064,3.08848127 0,4.72332766 0,6.42854519 L0,53.5712099 C0,55.2764274 0.677298064,56.9112371 1.88267604,58.1171097 C3.08853158,59.3224681 4.7234046,60 6.4286499,60 L6.42790369,60 Z M14.9994369,55.7143032 L14.9994369,42.8572128 C14.9994369,42.2889784 15.2252111,41.7436908 15.6269956,41.3419129 C16.0287801,40.9401349 16.5740765,40.7143644 17.1423202,40.7143644 L42.8569198,40.7143644 C43.4251635,40.7143644 43.9704599,40.9401349 44.3722444,41.3419129 C44.7740289,41.7436908 44.9998031,42.2889784 44.9998031,42.8572128 L44.9998031,55.7143032 L14.9994369,55.7143032 Z M29.99962,4.28594169 L29.99962,11.7859111 C29.99962,12.0700283 29.8867354,12.3426721 29.6858407,12.543561 C29.484946,12.74445 29.2123002,12.8573353 28.9281784,12.8573353 L13.9279952,12.8573353 C13.3363146,12.8573353 12.8565536,12.3775821 12.8565536,11.7859111 L12.8565536,4.28594169 L29.99962,4.28594169 Z M4.28493541,6.42879009 C4.28493541,5.86055567 4.51079457,5.3152681 4.91257907,4.91349015 C5.31436357,4.5117122 5.85966002,4.28593778 6.42790369,4.28593778 L8.57078699,4.28593778 L8.57078699,11.7859111 C8.57078699,13.2065583 9.13521021,14.569165 10.1396225,15.5742221 C11.1445735,16.5786793 12.5073248,17.1430321 13.9279952,17.1430321 L28.9281784,17.1430321 C30.3488488,17.1430321 31.7114776,16.578618 32.7165511,15.5742221 C33.7210246,14.5692875 34.2853866,13.2065583 34.2853866,11.7859111 L34.2853866,4.28593778 L44.4640823,4.28593778 C44.9648802,4.28498512 45.4499066,4.45957363 45.8354051,4.7786009 L54.8995566,12.0642855 L54.9000349,12.0642855 C55.4233148,12.4780266 55.7241878,13.1117955 55.7143788,13.7785642 L55.7143788,53.5718711 C55.7143788,54.1401056 55.4883605,54.6853931 55.086576,55.0871711 C54.6847915,55.488949 54.139495,55.7147195 53.5712513,55.7147195 L49.2854847,55.7147195 L49.2854847,42.8576292 C49.2854847,41.1524116 48.6081867,39.517602 47.4028087,38.3117293 C46.1969532,37.106371 44.5620801,36.429084 42.8568348,36.429084 L17.1422352,36.429084 C15.4369899,36.429084 13.8021536,37.106371 12.5962614,38.3117293 C11.3908834,39.5175652 10.7135853,41.1524116 10.7135853,42.8576292 L10.7135853,55.7147195 L6.42781871,55.7147195 C5.85957504,55.7147195 5.31427859,55.488949 4.91249409,55.0871711 C4.51070959,54.6853931 4.28493541,54.1401056 4.28493541,53.5718711 L4.28493541,6.42879009 Z" id="Shape"></path>
        </g>
    </g>
</svg>