<?xml version="1.0" encoding="UTF-8"?>
<svg width="16px" height="16px" viewBox="3 3 10 10" version="1.1" xmlns="http://www.w3.org/2000/svg" xmlns:xlink="http://www.w3.org/1999/xlink">
    <title>malloy-icon-location</title>
    <g id="malloy-icon-location" stroke="none" stroke-width="1" fill="none" fill-rule="evenodd">
        <g id="Group-2" transform="translate(5.000000, 4.000000)" fill="#85B0F7" fill-rule="nonzero">
            <path d="M3,8.8817842e-16 C1.5225738,8.8817842e-16 0.327652872,1.20819783 0.327652872,2.70203987 C0.327652872,4.72856978 3,7.72011393 3,7.72011393 C3,7.72011393 5.67234713,4.72856978 5.67234713,2.70203987 C5.67234713,1.20819783 4.4774262,8.8817842e-16 3,8.8817842e-16 Z M1.09118062,2.70203987 C1.09118062,1.63666415 1.9463317,0.772011393 3,0.772011393 C4.0536683,0.772011393 4.90881938,1.63666415 4.90881938,2.70203987 C4.90881938,3.81373628 3.80933942,5.47742083 3,6.51577615 C2.20593114,5.48514094 1.09118062,3.80215611 1.09118062,2.70203987 Z" id="Shape-Copy-22"></path>
            <path d="M3,3.5631295 C3.49196129,3.5631295 3.89078238,3.16430842 3.89078238,2.67234713 C3.89078238,2.18038227 3.49196129,1.78156475 3,1.78156475 C2.50803871,1.78156475 2.10921762,2.18038227 2.10921762,2.67234713 C2.10921762,3.16430842 2.50803871,3.5631295 3,3.5631295 Z" id="Path-Copy-16"></path>
        </g>
    </g>
</svg>