<?xml version="1.0" encoding="UTF-8"?>
<svg width="16px" height="16px" viewBox="3 3 10 10" version="1.1" xmlns="http://www.w3.org/2000/svg" xmlns:xlink="http://www.w3.org/1999/xlink">
    <title>malloy-icon-number</title>
    <g id="malloy-icon-number" stroke="none" stroke-width="1" fill="none" fill-rule="evenodd">
        <path d="M12,7 L12,6 L10,6 L10,4 L9,4 L9,6 L7,6 L7,4 L6,4 L6,6 L4,6 L4,7 L6,7 L6,9 L4,9 L4,10 L6,10 L6,12 L7,12 L7,10 L9,10 L9,12 L10,12 L10,10 L12,10 L12,9 L10,9 L10,7 L12,7 Z M9,9 L7,9 L7,7 L9,7 L9,9 Z" id="Shape-Copy-21" fill="#85B0F7" fill-rule="nonzero"></path>
    </g>
</svg>