<?xml version="1.0" encoding="UTF-8"?>
<svg width="16px" height="16px" viewBox="3 3 10 10" version="1.1" xmlns="http://www.w3.org/2000/svg" xmlns:xlink="http://www.w3.org/1999/xlink">
    <title>malloy-icon-date</title>
    <g id="malloy-icon-date" stroke="none" stroke-width="1" fill="none" fill-rule="evenodd">
        <g id="Group-Copy-22" transform="translate(4.500000, 4.000000)" fill="#85B0F7" fill-rule="nonzero">
            <path d="M6.09698937,0.743966277 L5.7723657,0.743966277 L5.7723657,0.0947189331 L5.12311836,0.0947189331 L5.12311836,0.743966277 L1.87688164,0.743966277 L1.87688164,0.0947189331 L1.2276343,0.0947189331 L1.2276343,0.743966277 L0.903010626,0.743966277 C0.545924587,0.743966277 0.253763282,1.03612758 0.253763282,1.39321362 L0.253763282,6.58719237 C0.253763282,6.94427841 0.545924587,7.23643971 0.903010626,7.23643971 L6.09698937,7.23643971 C6.45407541,7.23643971 6.74623672,6.94427841 6.74623672,6.58719237 L6.74623672,1.39321362 C6.74623672,1.03612758 6.45407541,0.743966277 6.09698937,0.743966277 Z M6.09698937,6.58719237 L0.903010626,6.58719237 L0.903010626,2.36708464 L6.09698937,2.36708464 L6.09698937,6.58719237 Z" id="Shape"></path>
        </g>
    </g>
</svg>