<?xml version="1.0" encoding="UTF-8"?>
<svg width="16px" height="16px" viewBox="1.5 1.5 13 13" version="1.1" xmlns="http://www.w3.org/2000/svg" xmlns:xlink="http://www.w3.org/1999/xlink">
    <title>type-icon-distance</title>
    <g id="type-icon-distance" stroke="none" stroke-width="1" fill="none" fill-rule="evenodd">
        <path d="M7.99610114,4.10113525 C5.8439278,4.10113525 4.10113525,5.84782666 4.10113525,8 C4.10113525,10.1521733 5.8439278,11.8988647 7.99610114,11.8988647 C10.1521733,11.8988647 11.8988647,10.1521733 11.8988647,8 C11.8988647,5.84782666 10.1521733,4.10113525 7.99610114,4.10113525 Z M10.6980144,6.4404541 L9.5478493,6.4404541 C9.42308563,5.95309601 9.24373785,5.48523224 9.00980597,5.05245825 C9.72719708,5.29808673 10.3237234,5.79714142 10.6980144,6.4404541 Z M8,4.89650366 C8.32360577,5.36436743 8.57703198,5.88291644 8.74468317,6.4404541 L7.25531683,6.4404541 C7.42296802,5.88291644 7.67639423,5.36436743 8,4.89650366 Z M4.98227869,8.77977295 C4.91989685,8.53024561 4.8809082,8.26902167 4.8809082,8 C4.8809082,7.73097833 4.91989685,7.46975439 4.98227869,7.22022705 L6.30009497,7.22022705 C6.26890405,7.47755212 6.24551086,7.7348772 6.24551086,8 C6.24551086,8.2651228 6.26890405,8.52244788 6.30009497,8.77977295 L4.98227869,8.77977295 Z M5.3019856,9.5595459 L6.4521507,9.5595459 C6.57691437,10.046904 6.75626215,10.5147678 6.99019403,10.9475417 C6.27280292,10.7019133 5.67627661,10.2067574 5.3019856,9.5595459 L5.3019856,9.5595459 Z M6.4521507,6.4404541 L5.3019856,6.4404541 C5.67627661,5.79324255 6.27280292,5.29808673 6.99019403,5.05245825 C6.75626215,5.48523224 6.57691437,5.95309601 6.4521507,6.4404541 L6.4521507,6.4404541 Z M8,11.1034963 C7.67639423,10.6356326 7.42296802,10.1170836 7.25531683,9.5595459 L8.74468317,9.5595459 C8.57703198,10.1170836 8.32360577,10.6356326 8,11.1034963 Z M8.91233435,8.77977295 L7.08766565,8.77977295 C7.05257587,8.52244788 7.02528381,8.2651228 7.02528381,8 C7.02528381,7.7348772 7.05257587,7.47365326 7.08766565,7.22022705 L8.91233435,7.22022705 C8.94742413,7.47365326 8.97471619,7.7348772 8.97471619,8 C8.97471619,8.2651228 8.94742413,8.52244788 8.91233435,8.77977295 Z M9.00980597,10.9475417 C9.24373785,10.5147678 9.42308563,10.046904 9.5478493,9.5595459 L10.6980144,9.5595459 C10.3237234,10.2028586 9.72719708,10.7019133 9.00980597,10.9475417 L9.00980597,10.9475417 Z M9.69990503,8.77977295 C9.73109595,8.52244788 9.75448914,8.2651228 9.75448914,8 C9.75448914,7.7348772 9.73109595,7.47755212 9.69990503,7.22022705 L11.0177213,7.22022705 C11.0801031,7.46975439 11.1190918,7.73097833 11.1190918,8 C11.1190918,8.26902167 11.0801031,8.53024561 11.0177213,8.77977295 L9.69990503,8.77977295 Z" id="Shape-Copy-26" fill="#4285f4" fill-rule="nonzero"></path>
    </g>
</svg>