<?xml version="1.0" encoding="UTF-8"?>
<svg width="16px" height="16px" viewBox="1.5 1.5 13 13" version="1.1" xmlns="http://www.w3.org/2000/svg" xmlns:xlink="http://www.w3.org/1999/xlink">
    <title>type-icon-average</title>
    <g id="type-icon-average" stroke="none" stroke-width="1" fill="none" fill-rule="evenodd">
        <path d="M4.41498506,4.47102819 L5.41498506,4.47102819 L5.41498506,7.60902819 L6.38998506,7.60902819 L6.483244,7.05041648 L6.54364821,6.70726068 C6.55375344,6.65243195 6.5638915,6.59877378 6.57408328,6.54626903 L6.57408328,6.54626903 L6.63604534,6.24494478 C6.91927717,4.95003854 7.27208445,4.47102819 8.10517978,4.47102819 C8.80685946,4.47102819 9.17751923,4.83392314 9.44530059,5.71673347 L9.44530059,5.71673347 L9.51297288,5.95892899 L9.57687776,6.2253318 C9.60803835,6.36468828 9.63812368,6.5133548 9.66764002,6.6716798 L9.66764002,6.6716798 L9.72606405,7.00131102 L9.81937671,7.57326138 L9.82498506,7.60902819 L11.5850149,7.60974536 L11.5850149,8.60974536 L10.0252776,8.61151943 C10.2757427,9.61923038 10.5930546,10.0190062 11.1557069,10.0190062 C11.393522,10.0190062 11.5850149,10.212488 11.5850149,10.4495815 C11.5850149,10.476647 11.5825195,10.5031442 11.5777446,10.5288501 L11.5850149,10.5289718 L11.5850149,11.5289718 L4.41498506,11.5289718 L4.41498506,4.47102819 Z M9.14183678,8.61032799 L7.06953368,8.61055285 C6.85505955,9.56758449 6.5955838,10.1843572 6.18252219,10.5298281 L10.0788576,10.5296645 C9.63436973,10.1674352 9.34864848,9.52569813 9.14183678,8.61032799 Z M6.19098506,8.60902819 L5.41498506,8.60902819 L5.41611605,9.94762989 C5.73820917,9.80412788 5.96190884,9.43735727 6.14461991,8.78552705 L6.19098506,8.60902819 Z M8.10517978,5.33217898 C7.85286852,5.33217898 7.68100552,5.58113011 7.51762732,6.24210504 L7.51762732,6.24210504 L7.46623231,6.46472024 C7.4576855,6.50416886 7.44914122,6.54480636 7.44058896,6.58665653 L7.44058896,6.58665653 L7.38909582,6.85249973 L7.33690774,7.14858809 L7.26098506,7.60902819 L8.95598506,7.60902819 L8.87526449,7.12113673 L8.82259674,6.82795881 L8.7707472,6.56506868 L8.71919413,6.3312772 L8.66741574,6.12539524 L8.61489027,5.94623366 C8.47336247,5.50303964 8.31830033,5.33217898 8.10517978,5.33217898 Z" id="Combined-Shape-Copy" fill="#ea8600" fill-rule="nonzero"></path>
    </g>
</svg>