<?xml version="1.0" encoding="UTF-8"?>
<svg width="16px" height="16px" viewBox="1.5 1.5 13 13" version="1.1" xmlns="http://www.w3.org/2000/svg" xmlns:xlink="http://www.w3.org/1999/xlink">
    <title>type-icon-location</title>
    <g id="type-icon-location" stroke="none" stroke-width="1" fill="none" fill-rule="evenodd">
        <g id="Group-2" transform="translate(5.327653, 4.000000)" fill="#4285f4" fill-rule="nonzero">
            <path d="M2.67234713,4.4408921e-16 C1.19492093,4.4408921e-16 1.05693232e-13,1.20819783 1.05693232e-13,2.70203987 C1.05693232e-13,4.72856978 2.67234713,7.72011393 2.67234713,7.72011393 C2.67234713,7.72011393 5.34469426,4.72856978 5.34469426,2.70203987 C5.34469426,1.20819783 4.14977333,4.4408921e-16 2.67234713,4.4408921e-16 Z M0.763527751,2.70203987 C0.763527751,1.63666415 1.61867883,0.772011393 2.67234713,0.772011393 C3.72601542,0.772011393 4.58116651,1.63666415 4.58116651,2.70203987 C4.58116651,3.81373628 3.48168654,5.47742083 2.67234713,6.51577615 C1.87827827,5.48514094 0.763527751,3.80215611 0.763527751,2.70203987 Z" id="Shape-Copy-22"></path>
            <path d="M2.67234713,3.5631295 C3.16430842,3.5631295 3.5631295,3.16430842 3.5631295,2.67234713 C3.5631295,2.18038227 3.16430842,1.78156475 2.67234713,1.78156475 C2.18038584,1.78156475 1.78156475,2.18038227 1.78156475,2.67234713 C1.78156475,3.16430842 2.18038584,3.5631295 2.67234713,3.5631295 Z" id="Path-Copy-16"></path>
        </g>
    </g>
</svg>