<?xml version="1.0" encoding="UTF-8"?>
<svg width="16px" height="16px" viewBox="1.5 1.5 13 13" version="1.1" xmlns="http://www.w3.org/2000/svg" xmlns:xlink="http://www.w3.org/1999/xlink">
    <title>type-icon-date</title>
    <g id="type-icon-date" stroke="none" stroke-width="1" fill="none" fill-rule="evenodd">
        <g id="Group-Copy-22" transform="translate(4.753763, 4.094719)" fill="#4285f4" fill-rule="nonzero">
            <path d="M5.84322609,0.649247344 L5.51860242,0.649247344 L5.51860242,0 L4.86935508,0 L4.86935508,0.649247344 L1.62311836,0.649247344 L1.62311836,0 L0.973871015,0 L0.973871015,0.649247344 L0.649247344,0.649247344 C0.292161305,0.649247344 0,0.941408648 0,1.29849469 L0,6.49247344 C0,6.84955947 0.292161305,7.14172078 0.649247344,7.14172078 L5.84322609,7.14172078 C6.20031213,7.14172078 6.49247344,6.84955947 6.49247344,6.49247344 L6.49247344,1.29849469 C6.49247344,0.941408648 6.20031213,0.649247344 5.84322609,0.649247344 Z M5.84322609,6.49247344 L0.649247344,6.49247344 L0.649247344,2.2723657 L5.84322609,2.2723657 L5.84322609,6.49247344 Z" id="Shape"></path>
        </g>
    </g>
</svg>