<?xml version="1.0" encoding="UTF-8"?>
<svg width="16px" height="16px" viewBox="1.5 1.5 13 13" version="1.1" xmlns="http://www.w3.org/2000/svg" xmlns:xlink="http://www.w3.org/1999/xlink">
    <title>type-icon-string</title>
    <g id="type-icon-string" stroke="none" stroke-width="1" fill="none" fill-rule="evenodd">
        <path d="M4.8045,10.45 L5.2245,9.253 L7.1425,9.253 L7.5625,10.45 L8.6055,10.45 L6.7225,5.438 L5.6375,5.438 L3.7615,10.45 L4.8045,10.45 Z M6.8345,8.385 L5.5255,8.385 L5.9735,7.125 L6.1555,6.523 L6.2115,6.523 L6.3935,7.125 L6.8345,8.385 Z M10.2505,10.562 C10.4791667,10.562 10.681,10.5176667 10.856,10.429 C11.031,10.3403333 11.1721667,10.226 11.2795,10.086 L11.2795,10.086 L11.3355,10.086 L11.3355,10.45 L12.2385,10.45 L12.2385,8.252 C12.2385,7.76666667 12.0961667,7.398 11.8115,7.146 C11.5268333,6.894 11.1115,6.768 10.5655,6.768 C10.2575,6.768 9.97283333,6.82866667 9.7115,6.95 C9.45016667,7.07133333 9.23316667,7.244 9.0605,7.468 L9.0605,7.468 L9.6485,7.93 C9.75116667,7.804 9.88066667,7.7025 10.037,7.6255 C10.1933333,7.5485 10.3555,7.51 10.5235,7.51 C10.7708333,7.51 10.968,7.57066667 11.115,7.692 C11.262,7.81333333 11.3355,7.972 11.3355,8.168 L11.3355,8.168 L11.3355,8.322 C11.0741667,8.21466667 10.7591667,8.161 10.3905,8.161 C10.1245,8.161 9.88183333,8.21 9.6625,8.308 C9.44316667,8.406 9.2705,8.546 9.1445,8.728 C9.0185,8.91 8.9555,9.12 8.9555,9.358 C8.9555,9.71733333 9.07683333,10.0078333 9.3195,10.2295 C9.56216667,10.4511667 9.8725,10.562 10.2505,10.562 Z M10.4675,9.848 C10.2761667,9.848 10.1291667,9.8025 10.0265,9.7115 C9.92383333,9.6205 9.8725,9.50266667 9.8725,9.358 C9.8725,9.00333333 10.1105,8.826 10.5865,8.826 C10.8478333,8.826 11.0975,8.882 11.3355,8.994 C11.3355,9.22266667 11.2573333,9.42216667 11.101,9.5925 C10.9446667,9.76283333 10.7335,9.848 10.4675,9.848 Z" id="Aa-Copy" fill="#4285f4" fill-rule="nonzero"></path>
    </g>
</svg>