<?xml version="1.0" encoding="UTF-8"?>
<svg width="16px" height="16px" viewBox="1.5 1.5 13 13" version="1.1" xmlns="http://www.w3.org/2000/svg" xmlns:xlink="http://www.w3.org/1999/xlink">
    <title>type-icon-percent</title>
    <g id="type-icon-percent" stroke="none" stroke-width="1" fill="none" fill-rule="evenodd">
        <path d="M5.86494374,7.83686592 C6.19341393,7.83686592 6.49280083,7.75869751 6.76310443,7.60236068 C7.03340802,7.44602385 7.24725581,7.23360969 7.40464777,6.96511818 C7.56203974,6.69662668 7.64073573,6.4060441 7.64073573,6.09337044 C7.64073573,5.78069679 7.56203974,5.49011421 7.40464777,5.22162271 C7.24725581,4.9531312 7.03340802,4.74071703 6.76310443,4.58438021 C6.49280083,4.42804338 6.19341393,4.34987497 5.86494374,4.34987497 C5.53647354,4.34987497 5.23708665,4.42804338 4.96678305,4.58438021 C4.69647945,4.74071703 4.48263167,4.9531312 4.3252397,5.22162271 C4.16784774,5.49011421 4.08915175,5.78069679 4.08915175,6.09337044 C4.08915175,6.4060441 4.16784774,6.69662668 4.3252397,6.96511818 C4.48263167,7.23360969 4.69647945,7.44602385 4.96678305,7.60236068 C5.23708665,7.75869751 5.53647354,7.83686592 5.86494374,7.83686592 Z M6.05997292,11.5991456 L10.6174969,4.84947309 L9.94002708,4.40085437 L5.37223845,11.1607228 L6.05997292,11.5991456 Z M5.86494374,7.02119552 C5.61859109,7.02119552 5.41158644,6.93283123 5.24392978,6.75610264 C5.07627312,6.57937406 4.99244479,6.35846332 4.99244479,6.09337044 C4.99244479,5.82148031 5.07627312,5.59887027 5.24392978,5.42554031 C5.41158644,5.25221035 5.61859109,5.16554537 5.86494374,5.16554537 C6.11813951,5.16554537 6.32856573,5.25221035 6.49622239,5.42554031 C6.66387905,5.59887027 6.74770739,5.82148031 6.74770739,6.09337044 C6.74770739,6.36526058 6.66387905,6.58787062 6.49622239,6.76120058 C6.32856573,6.93453054 6.11813951,7.02119552 5.86494374,7.02119552 Z M10.1350563,11.650125 C10.4635265,11.650125 10.7629134,11.5719566 11.0332169,11.4156198 C11.3035205,11.259283 11.5173683,11.0468688 11.6747603,10.7783773 C11.8321523,10.5098858 11.9108482,10.2193032 11.9108482,9.90662956 C11.9108482,9.5939559 11.8321523,9.30337332 11.6747603,9.03488182 C11.5173683,8.76639031 11.3035205,8.55397615 11.0332169,8.39763932 C10.7629134,8.24130249 10.4635265,8.16313408 10.1350563,8.16313408 C9.80658607,8.16313408 9.50719917,8.24130249 9.23689557,8.39763932 C8.96659198,8.55397615 8.75274419,8.76639031 8.59535223,9.03488182 C8.43796026,9.30337332 8.35926427,9.5939559 8.35926427,9.90662956 C8.35926427,10.2193032 8.43796026,10.5098858 8.59535223,10.7783773 C8.75274419,11.0468688 8.96659198,11.259283 9.23689557,11.4156198 C9.50719917,11.5719566 9.80658607,11.650125 10.1350563,11.650125 Z M10.1350563,10.8344546 C9.88870362,10.8344546 9.68169896,10.7460903 9.5140423,10.5693618 C9.34638564,10.3926332 9.26255731,10.1717224 9.26255731,9.90662956 C9.26255731,9.63473942 9.34638564,9.41212938 9.5140423,9.23879942 C9.68169896,9.06546946 9.88870362,8.97880448 10.1350563,8.97880448 C10.388252,8.97880448 10.5986783,9.06546946 10.7663349,9.23879942 C10.9339916,9.41212938 11.0178199,9.63473942 11.0178199,9.90662956 C11.0178199,10.1717224 10.9322808,10.3926332 10.7612026,10.5693618 C10.5901243,10.7460903 10.3814089,10.8344546 10.1350563,10.8344546 Z" id="%-copy-6" fill="#ea8600" fill-rule="nonzero"></path>
    </g>
</svg>