<svg xmlns="http://www.w3.org/2000/svg" height="24px.0" version="1.1" width="24px.0" fill="#505050"><path d="M19.6 21.0 13.3 14.7Q12.55 15.3 11.575 15.65Q10.6 16.0 9.5 16.0Q6.775 16.0 4.8875 14.1125Q3.0 12.225 3.0 9.5Q3.0 6.775 4.8875 4.8875Q6.775 3.0 9.5 3.0Q12.225 3.0 14.1125 4.8875Q16.0 6.775 16.0 9.5Q16.0 10.6 15.65 11.575Q15.3 12.55 14.7 13.3L21.0 19.6ZM9.5 14.0Q11.375 14.0 12.6875 12.6875Q14.0 11.375 14.0 9.5Q14.0 7.625 12.6875 6.3125Q11.375 5.0 9.5 5.0Q7.625 5.0 6.3125 6.3125Q5.0 7.625 5.0 9.5Q5.0 11.375 6.3125 12.6875Q7.625 14.0 9.5 14.0Z" /></svg>