<?xml version="1.0" encoding="UTF-8"?>
<svg width="78px" height="73px" viewBox="-20 -20 116 112" version="1.1" xmlns="http://www.w3.org/2000/svg" xmlns:xlink="http://www.w3.org/1999/xlink">
    <title>database_b</title>
    <g id="icons" stroke="none" stroke-width="1" fill="none" fill-rule="evenodd">
        <g id="database_b" transform="translate(-0.000189, 0.800000)" fill="#000000" fill-rule="nonzero">
            <g id="Shape-2">
                <path d="M38.9978747,0 C49.4323909,0 58.8817175,1.35601948 65.8935492,3.63769481 C69.399635,4.77856169 72.3064537,6.14483766 74.4415973,7.78792208 C76.5767408,9.43100649 78,11.4644805 78,13.7176948 L78,59.1428571 C77.5289095,61.1095617 75.9098694,63.0619481 74.4415973,64.2103247 C72.3064537,65.8534091 69.3994651,67.2213799 65.8935492,68.3623052 C58.8808682,70.6440097 49.4317114,72 38.9978747,72 C28.564038,72 19.1123333,70.6439805 12.0988029,68.3623052 C8.59271719,67.2214383 5.68589845,65.8534091 3.55075491,64.2103247 C1.77316722,62.6163312 0.466092472,61.0553571 0.000162359918,59.1428571 L0.000162359918,12.826461 C-0.00497251122,12.4857468 0.111806422,12.1513003 0.334077073,11.8687938 C0.867540225,10.3512127 2.01808874,8.96790097 3.55089079,7.78869643 C5.68603434,6.14561201 8.59302294,4.77924838 12.0989388,3.63846916 C19.1116199,1.35676461 28.562815,0.000774350649 38.9980106,0.000774350649 L38.9978747,0 Z M38.9980026,4.39968547 C29.1795807,4.39968547 20.2971169,5.97898133 14.0341392,8.43960024 C10.9023181,9.66989245 8.43317659,11.1339692 6.85248078,12.602151 C3.94393403,15.3862114 4.29446142,18.3655235 6.85248078,20.7802963 C8.43327627,22.2484263 10.9024843,23.7104505 14.0341392,24.9407772 C20.2982797,27.4014306 29.1795807,28.9827618 38.9980026,28.9827618 C48.8164245,28.9827618 57.7038721,27.4014306 63.968511,24.9407772 C67.1003321,23.710485 69.5714672,22.2484781 71.152163,20.7802963 C74.08729,18.0024452 73.4953805,14.8214996 71.152163,12.602151 C69.5713675,11.1340209 67.100166,9.66992695 63.968511,8.43960024 C57.705035,5.97894683 48.8172551,4.39968547 38.9980026,4.39968547 Z M73.3181233,24.4886668 C71.264963,26.4046321 68.5511168,28.0180283 65.3038377,29.3722628 C58.4452957,32.2325658 49.203832,33.9324103 38.9993316,33.9324103 C28.7948312,33.9324103 19.5508756,32.2325291 12.691503,29.3722628 C9.44422385,28.0179367 6.73170664,26.4046321 4.67921092,24.4886668 L4.67921092,34.5578783 C4.85118531,35.7254798 5.51373193,36.9581006 6.85314528,38.278818 C8.43394077,39.8377628 10.9031488,41.3838137 14.0348037,42.6902452 C20.2989442,45.3031082 29.1802452,46.9886668 38.9986671,46.9886668 C48.817089,46.9886668 57.7045366,45.3030899 63.9691755,42.6902452 C67.1009966,41.3838503 69.5721317,39.8378178 71.1528275,38.278818 C72.4811934,36.9688517 73.1398693,35.7461761 73.3189539,34.5871829 L73.3181233,24.4886668 Z M73.3181233,43.1016944 C71.264963,44.782251 68.5517813,46.1967717 65.3038377,47.3852582 C58.4452957,49.8941247 49.203832,51.3851147 38.9993316,51.3851147 C28.7948312,51.3851147 19.5508756,49.8940926 12.691503,47.3852582 C9.44422385,46.197334 6.73170664,44.7841788 4.67921092,43.1036222 L4.67921092,55.7057886 C4.85118531,56.7299305 5.51373193,57.811103 6.85314528,58.9695481 C8.43394077,60.3369502 10.9031488,61.6911148 14.0348037,62.8370291 C20.2989442,65.1288579 29.1802452,66.6016944 38.9986671,66.6016944 C48.817089,66.6016944 57.7045366,65.1288579 63.9691755,62.8370291 C67.1009966,61.6911469 69.5721317,60.3369984 71.1528275,58.9695481 C72.4811934,57.8205331 73.1398693,56.7480839 73.3189539,55.7314925 L73.3181233,43.1016944 Z" id="Shape"></path>
            </g>
        </g>
    </g>
</svg>