<?xml version="1.0" encoding="UTF-8"?>
<svg width="160px" height="160px" viewBox="0 0 160 160" version="1.1" xmlns="http://www.w3.org/2000/svg" xmlns:xlink="http://www.w3.org/1999/xlink">
    <title>tip</title>
    <g id="tip" stroke="none" stroke-width="1" fill="none" fill-rule="evenodd">
        <g id="info_FILL0_wght400_GRAD0_opsz48" fill="#4285F4" fill-rule="nonzero">
            <path d="M69.1947368,126 L92.1947368,126 L92.1947368,70.4210526 L69.1947368,70.4210526 L69.1947368,126 Z M88.1893939,54.0057416 C90.3964646,51.9148325 91.5,49.2431154 91.5,45.9905901 C91.5,42.7380649 90.3964646,39.9501861 88.1893939,37.6269537 C85.9823232,35.3037214 83.2525253,34.1421053 80,34.1421053 C76.7474747,34.1421053 74.0176768,35.3037214 71.8106061,37.6269537 C69.6035354,39.9501861 68.5,42.7380649 68.5,45.9905901 C68.5,49.2431154 69.6035354,51.9148325 71.8106061,54.0057416 C74.0176768,56.0966507 76.7474747,57.1421053 80,57.1421053 C83.2525253,57.1421053 85.9823232,56.0966507 88.1893939,54.0057416 Z M80,160 C69.0666667,160 58.7333333,157.9 49,153.7 C39.2666667,149.5 30.7666667,143.766667 23.5,136.5 C16.2333333,129.233333 10.5,120.733333 6.3,111 C2.1,101.266667 0,90.8666667 0,79.8 C0,68.8666667 2.1,58.5333333 6.3,48.8 C10.5,39.0666667 16.2333333,30.6 23.5,23.4 C30.7666667,16.2 39.2666667,10.5 49,6.3 C58.7333333,2.1 69.1333333,0 80.2,0 C91.1333333,0 101.466667,2.1 111.2,6.3 C120.933333,10.5 129.4,16.2 136.6,23.4 C143.8,30.6 149.5,39.0666667 153.7,48.8 C157.9,58.5333333 160,68.9333333 160,80 C160,90.9333333 157.9,101.266667 153.7,111 C149.5,120.733333 143.8,129.233333 136.6,136.5 C129.4,143.766667 120.933333,149.5 111.2,153.7 C101.466667,157.9 91.0666667,160 80,160 Z M80.1867647,143.5 C97.7426471,143.5 112.683824,137.305637 125.010294,124.916912 C137.336765,112.528186 143.5,97.4936275 143.5,79.8132353 C143.5,62.2573529 137.336765,47.3161765 125.010294,34.9897059 C112.683824,22.6632353 97.6803922,16.5 80,16.5 C62.4441176,16.5 47.4718137,22.6632353 35.0830882,34.9897059 C22.6943627,47.3161765 16.5,62.3196078 16.5,80 C16.5,97.5558824 22.6943627,112.528186 35.0830882,124.916912 C47.4718137,137.305637 62.5063725,143.5 80.1867647,143.5 Z" id="Shape"></path>
        </g>
    </g>
</svg>