<?xml version="1.0" encoding="UTF-8"?>
<svg width="120px" height="120px" viewBox="0 0 120 120" version="1.1" xmlns="http://www.w3.org/2000/svg" xmlns:xlink="http://www.w3.org/1999/xlink">
    <title>malloy-icon</title>
    <g id="malloy-icon" stroke="none" stroke-width="1" fill="none" fill-rule="evenodd">
        <rect fill="#FFFFFF" x="0" y="0" width="120" height="120"></rect>
        <g id="Group-5-Copy" transform="translate(0.809217, 20.500000)" fill-rule="nonzero">
            <path d="M35.4833703,4.14331427 C37.6382073,0.258621929 42.5342133,-1.14370286 46.4189056,1.01113418 C50.2191481,3.11912695 51.643779,7.85040278 49.6865864,11.6919247 L49.5510857,11.9466695 L15.0788496,74.0924507 C12.9240125,77.9771431 8.02800661,79.3794679 4.14331427,77.2246308 C0.343071763,75.116638 -1.08155908,70.3853622 0.875633526,66.5438403 L1.01113418,66.2890955 L35.4833703,4.14331427 Z" id="Line-Copy-8" fill="#4987F4"></path>
            <path d="M69.0073955,4.14331427 C71.1622325,0.258621929 76.0582385,-1.14370286 79.9429308,1.01113418 C83.7431733,3.11912695 85.1678042,7.85040278 83.2106116,11.6919247 L83.0751109,11.9466695 L48.6028748,74.0924507 C46.4480377,77.9771431 41.5520318,79.3794679 37.6673395,77.2246308 C33.867097,75.116638 32.4424661,70.3853622 34.3996587,66.5438403 L34.5351594,66.2890955 L69.0073955,4.14331427 Z" id="Line-Copy-10" fill="#FABF00"></path>
            <path d="M68.9053479,4.14331427 C71.0888823,0.0298118902 76.6370384,-0.902088857 79.8408832,1.01113418 C83.0447281,2.92435722 84.1802246,6.54150715 85.034456,8.04499188 L82.9730633,11.9466695 L48.5008272,74.0924507 C46.3459902,77.9771431 41.4499842,79.3794679 37.5652919,77.2246308 C33.7650494,75.116638 32.3404185,70.3853622 34.2976111,66.5438403 L34.4331118,66.2890955 L68.9053479,4.14331427 Z" id="Line-Copy-11" fill="#36A851" transform="translate(59.228217, 39.147201) scale(-1, 1) translate(-59.228217, -39.147201) "></path>
            <path d="M102.429373,4.14331427 C104.612908,0.0298118902 110.161064,-0.902088857 113.364908,1.01113418 C116.568753,2.92435722 117.70425,6.54150715 118.558481,8.04499188 L116.497089,11.9466695 L82.0248524,74.0924507 C79.8700154,77.9771431 74.9740094,79.3794679 71.0893171,77.2246308 C67.2890746,75.116638 65.8644437,70.3853622 67.8216363,66.5438403 L67.957137,66.2890955 L102.429373,4.14331427 Z" id="Line-Copy-16" fill="#EA4335" transform="translate(92.752242, 39.147201) scale(-1, 1) translate(-92.752242, -39.147201) "></path>
            <polygon id="Line-Copy-14" fill="#C29502" transform="translate(59.339168, 38.257514) scale(-1, 1) translate(-59.339168, -38.257514) " points="59.4000436 21.6947523 68.5991624 38.2627043 59.4072674 54.8202764 50.0791737 38.3848425"></polygon>
            <path d="M35.790557,4.14331427 C38.1734121,-0.058517779 43.3436864,-0.922988772 46.7260923,1.01113418 C49.4170054,2.35366909 50.5792651,5.58431908 51.9196651,7.92048075 L49.8582724,11.9466695 L42.9638252,24.6822456 L33.4219776,8.41969417 L35.790557,4.14331427 Z" id="Line-Copy-12" fill-opacity="0.166348" fill="#000000" transform="translate(42.670821, 12.356029) scale(-1, 1) translate(-42.670821, -12.356029) "></path>
            <path d="M69.3145822,4.14331427 C71.6974372,-0.058517779 76.8677116,-0.922988772 80.2501175,1.01113418 C82.9410306,2.35366909 84.1032903,5.58431908 85.4436903,7.92048075 L83.3822976,11.9466695 L76.4878503,24.6822456 L66.9460028,8.41969417 L69.3145822,4.14331427 Z" id="Line-Copy-17" fill-opacity="0.106348" fill="#000000" transform="translate(76.194847, 12.356029) scale(-1, 1) translate(-76.194847, -12.356029) "></path>
        </g>
    </g>
</svg>