<?xml version="1.0" encoding="UTF-8"?>
<svg width="172px" height="172px" viewBox="0 0 172 172" version="1.1" xmlns="http://www.w3.org/2000/svg" xmlns:xlink="http://www.w3.org/1999/xlink">
    <title>more_info_slack</title>
    <g id="more_info_slack" stroke="none" stroke-width="1" fill="none" fill-rule="evenodd">
        <g id="Slack_Mark" transform="translate(15.000000, 15.000000)" fill-rule="nonzero">
            <g id="Group" transform="translate(0.000000, 74.815961)" fill="#E01E5A">
                <path d="M29.8338762,14.9169381 C29.8338762,23.1270358 23.1270358,29.8338762 14.9169381,29.8338762 C6.70684039,29.8338762 0,23.1270358 0,14.9169381 C0,6.70684039 6.70684039,0 14.9169381,0 L29.8338762,0 L29.8338762,14.9169381 Z" id="Path"></path>
                <path d="M37.3501629,14.9169381 C37.3501629,6.70684039 44.0570033,0 52.267101,0 C60.4771987,0 67.1840391,6.70684039 67.1840391,14.9169381 L67.1840391,52.267101 C67.1840391,60.4771987 60.4771987,67.1840391 52.267101,67.1840391 C44.0570033,67.1840391 37.3501629,60.4771987 37.3501629,52.267101 L37.3501629,14.9169381 Z" id="Path"></path>
            </g>
            <g id="Group" fill="#36C5F0">
                <path d="M52.267101,29.8338762 C44.0570033,29.8338762 37.3501629,23.1270358 37.3501629,14.9169381 C37.3501629,6.70684039 44.0570033,0 52.267101,0 C60.4771987,0 67.1840391,6.70684039 67.1840391,14.9169381 L67.1840391,29.8338762 L52.267101,29.8338762 Z" id="Path"></path>
                <path d="M52.267101,37.3501629 C60.4771987,37.3501629 67.1840391,44.0570033 67.1840391,52.267101 C67.1840391,60.4771987 60.4771987,67.1840391 52.267101,67.1840391 L14.9169381,67.1840391 C6.70684039,67.1840391 0,60.4771987 0,52.267101 C0,44.0570033 6.70684039,37.3501629 14.9169381,37.3501629 L52.267101,37.3501629 Z" id="Path"></path>
            </g>
            <g id="Group" transform="translate(74.815961, 0.000000)" fill="#2EB67D">
                <path d="M37.3501629,52.267101 C37.3501629,44.0570033 44.0570033,37.3501629 52.267101,37.3501629 C60.4771987,37.3501629 67.1840391,44.0570033 67.1840391,52.267101 C67.1840391,60.4771987 60.4771987,67.1840391 52.267101,67.1840391 L37.3501629,67.1840391 L37.3501629,52.267101 Z" id="Path"></path>
                <path d="M29.8338762,52.267101 C29.8338762,60.4771987 23.1270358,67.1840391 14.9169381,67.1840391 C6.70684039,67.1840391 0,60.4771987 0,52.267101 L0,14.9169381 C0,6.70684039 6.70684039,0 14.9169381,0 C23.1270358,0 29.8338762,6.70684039 29.8338762,14.9169381 L29.8338762,52.267101 Z" id="Path"></path>
            </g>
            <g id="Group" transform="translate(74.815961, 74.815961)" fill="#ECB22E">
                <path d="M14.9169381,37.3501629 C23.1270358,37.3501629 29.8338762,44.0570033 29.8338762,52.267101 C29.8338762,60.4771987 23.1270358,67.1840391 14.9169381,67.1840391 C6.70684039,67.1840391 0,60.4771987 0,52.267101 L0,37.3501629 L14.9169381,37.3501629 Z" id="Path"></path>
                <path d="M14.9169381,29.8338762 C6.70684039,29.8338762 0,23.1270358 0,14.9169381 C0,6.70684039 6.70684039,0 14.9169381,0 L52.267101,0 C60.4771987,0 67.1840391,6.70684039 67.1840391,14.9169381 C67.1840391,23.1270358 60.4771987,29.8338762 52.267101,29.8338762 L14.9169381,29.8338762 Z" id="Path"></path>
            </g>
        </g>
    </g>
</svg>