<?xml version="1.0" encoding="UTF-8"?>
<svg width="172px" height="172px" viewBox="0 0 172 172" version="1.1" xmlns="http://www.w3.org/2000/svg" xmlns:xlink="http://www.w3.org/1999/xlink">
    <title>more_info_vsc</title>
    <defs>
        <path d="M104.067893,145.37595 C106.37931,146.276449 109.014911,146.218773 111.347901,145.096085 L141.56259,130.55735 C144.737522,129.029613 146.756599,125.816378 146.756599,122.291284 L146.756599,23.7091534 C146.756599,20.1840599 144.737669,16.9708242 141.562736,15.443088 L111.347901,0.90384718 C108.286118,-0.569420299 104.702909,-0.208561966 102.015649,1.7450472 C101.63188,2.02411955 101.266163,2.33571315 100.923046,2.67909424 L43.080547,55.449964 L17.8855209,36.3247909 C15.5400569,34.5444866 12.259504,34.6903626 10.0811958,36.6718702 L2.00033719,44.0226147 C-0.664149197,46.4462999 -0.667203202,50.6381087 1.99373314,53.0659031 L23.843692,73 L1.99373314,92.9340941 C-0.667203202,95.3617418 -0.664149197,99.5536973 2.00033719,101.977382 L10.0811958,109.328127 C12.259504,111.309635 15.5400569,111.455511 17.8855209,109.67506 L43.080547,90.5500332 L100.923046,143.320771 C101.838073,144.236385 102.912478,144.925848 104.067893,145.37595 Z M110.089757,39.6844897 L66.2005815,72.9999986 L110.089757,106.315361 L110.089757,39.6844897 Z" id="path-1"></path>
        <linearGradient x1="49.999991%" y1="-5.69966671e-07%" x2="49.999991%" y2="100.000047%" id="linearGradient-3">
            <stop stop-color="#FFFFFF" offset="0%"></stop>
            <stop stop-color="#FFFFFF" stop-opacity="0" offset="100%"></stop>
        </linearGradient>
    </defs>
    <g id="more_info_vsc" stroke="none" stroke-width="1" fill="none" fill-rule="evenodd">
        <g id="Visual_Studio_Code_1.35_icon" transform="translate(12.621700, 13.000000)">
            <mask id="mask-2" fill="white">
                <use xlink:href="#path-1"></use>
            </mask>
            <g id="Shape"></g>
            <g id="Group" mask="url(#mask-2)">
                <g transform="translate(-0.089201, -0.000181)">
                    <path d="M141.652671,15.4658692 L111.414208,0.906648986 C107.914063,-0.778579048 103.731206,-0.0677135659 100.984363,2.67915757 L1.99495342,92.9342749 C-0.667611919,95.3617758 -0.664550576,99.5537312 2.00155747,101.977416 L10.0873177,109.328161 C12.2669614,111.309669 15.549569,111.455545 17.8963537,109.67524 L137.102483,19.2429438 C141.101747,16.2090446 146.8458,19.0614059 146.8458,24.0812153 L146.8458,23.7301735 C146.8458,20.2065476 144.82731,16.9944859 141.652671,15.4658692 Z" id="Path" fill="#0065A9" fill-rule="nonzero"></path>
                    <path d="M141.652671,130.534196 L111.414208,145.093478 C107.914063,146.778977 103.731206,146.067795 100.984363,143.320952 L1.99495342,53.0659371 C-0.667611919,50.6382894 -0.664550576,46.4463339 2.00155747,44.0226487 L10.0873177,36.6719042 C12.2669614,34.6903966 15.549569,34.5445205 17.8963537,36.3248248 L137.102483,126.757121 C141.101747,129.791021 146.8458,126.938659 146.8458,121.918997 L146.8458,122.270038 C146.8458,125.793518 144.82731,129.005579 141.652671,130.534196 Z" id="Path" fill="#007ACC" fill-rule="nonzero"></path>
                    <path d="M111.415529,145.096119 C107.914356,146.780445 103.7315,146.067942 100.984363,143.320805 C104.369157,146.705599 110.15665,144.30833 110.15665,139.52157 L110.15665,6.47839239 C110.15665,1.69157372 104.369157,-0.705689448 100.984363,2.67909887 C103.7315,-0.0680202872 107.914356,-0.779889584 111.415529,0.903847403 L141.648709,15.4431219 C144.825549,16.9708581 146.8458,20.1840939 146.8458,23.7091874 L146.8458,122.291318 C146.8458,125.816412 144.825549,129.029647 141.648562,130.557383 L111.415529,145.096119 Z" id="Path" fill="#1F9CF0" fill-rule="nonzero"></path>
                    <g id="Group" opacity="0.25" style="mix-blend-mode: overlay;" stroke-width="1" fill="none" fill-rule="evenodd" transform="translate(0.000000, 0.000090)">
                        <path d="M104.067866,145.376041 C106.379282,146.276392 109.015031,146.218717 111.347874,145.096176 L141.562563,130.55744 C144.737495,129.029704 146.756572,125.816468 146.756572,122.291228 L146.756572,23.7092438 C146.756572,20.1840036 144.737642,16.9707679 141.562709,15.4430317 L111.347874,0.903848109 C108.286238,-0.569419369 104.702882,-0.208561037 102.015622,1.74503492 C101.631853,2.02412194 101.266136,2.33571555 100.923019,2.67909664 L43.0805198,55.4499077 L17.8854937,36.3248813 C15.5401765,34.5444303 12.2595062,34.6904531 10.081198,36.6718139 L2.00033939,44.0225584 C-0.664149931,46.4463904 -0.667203935,50.6381991 1.99373534,53.0658468 L23.8436649,72.9999423 L1.99373534,92.9341846 C-0.667203935,95.3618322 -0.664149931,99.553641 2.00033939,101.977326 L10.081198,109.328071 C12.2595062,111.309578 15.5401765,111.455454 17.8854937,109.67515 L43.0805198,90.5499769 L100.923019,143.320861 C101.838046,144.236329 102.912451,144.925938 104.067866,145.376041 Z M110.089729,39.6845801 L66.2005544,72.9999423 L110.089729,106.315451 L110.089729,39.6845801 Z" id="Shape" fill="url(#linearGradient-3)"></path>
                    </g>
                </g>
            </g>
        </g>
    </g>
</svg>