<?xml version="1.0" encoding="UTF-8"?>
<svg width="186px" height="186px" viewBox="0 0 186 186" version="1.1" xmlns="http://www.w3.org/2000/svg" xmlns:xlink="http://www.w3.org/1999/xlink">
    <title>samples_flights</title>
    <g id="samples_flights" stroke="none" stroke-width="1" fill="none" fill-rule="evenodd">
        <g id="noun-flight-5003680" transform="translate(14.003975, 14.000000)" fill="#4285F4" fill-rule="nonzero">
            <path d="M151.493732,41.3904537 C157.288426,35.074095 159.393669,26.2045426 157.054371,17.9574591 C154.715135,9.7116357 148.268297,3.26738106 140.020268,0.933122525 C131.771925,-1.39993896 122.904893,0.709166012 116.591054,6.50730671 C110.828491,11.7901023 101.529574,20.9586037 91.2619864,31.2778535 L44.1830473,9.24037379 C43.3979678,8.87243668 42.5255348,8.7309321 41.6641587,8.83305985 C40.8027827,8.93396219 39.9869577,9.27480489 39.3089202,9.81379495 L17.5631441,27.1874828 C16.3695221,28.1411266 15.7222615,29.6227035 15.8317921,31.1459568 C15.9425386,32.6705647 16.7952959,34.042611 18.1131912,34.8152474 L62.2876952,60.7103965 C51.0186762,72.2774193 41.5140542,82.1153268 37.4900571,86.2782453 L19.5427276,80.8798393 C18.0759564,80.4454656 16.4885661,80.7543249 15.29255,81.7079813 L1.72833432,92.6141034 C0.620868827,93.5111706 -0.0165633115,94.8659541 0.000327410789,96.2922144 C0.0178955108,97.7183803 0.686076859,99.0584211 1.81568788,99.9296886 L33.6605186,124.327258 L58.079194,156.172089 C58.9454843,157.307874 60.2855251,157.982194 61.7128879,157.999718 C63.1415424,158.015423 64.4975544,157.374311 65.3897389,156.259474 L76.2886157,142.695258 C77.2508909,141.502865 77.5609913,139.91182 77.1155291,138.44508 L71.7183832,120.513817 C75.9402095,116.435952 85.9664956,106.744211 97.7133918,95.2868137 L124.829223,141.537264 C125.604442,142.860074 126.981403,143.715307 128.511114,143.824806 C130.040667,143.934324 131.52467,143.28213 132.480928,142.083626 L149.846111,120.337849 C150.385069,119.662301 150.725947,118.848901 150.829303,117.990014 C150.931437,117.131095 150.792387,116.25989 150.428163,115.476039 L127.315224,66.1352952 C137.371121,56.1238147 146.263985,47.0854145 151.493858,41.3880596 L151.493732,41.3904537 Z M122.876541,13.3591903 C126.811704,9.74282215 132.341786,8.42606092 137.485346,9.88048355 C142.628905,11.3337406 146.650382,15.3500829 148.11079,20.492697 C149.571418,25.633736 148.260913,31.1650782 144.650669,35.1052814 C129.430421,51.6867074 80.5987406,99.0312038 64.4510897,114.608678 L41.9508535,116.061935 L43.3967078,93.5468933 C58.8349456,77.5328087 106.431139,28.4302156 122.874903,13.3599148 L122.876541,13.3591903 Z M28.6399096,30.2297997 L42.8599858,18.8829721 L84.2970125,38.2957498 C79.2038557,43.4478143 73.9925684,48.7428955 68.995491,53.8669238 L28.6399096,30.2297997 Z M19.2178215,90.4826513 L33.981613,94.9224678 L32.8999787,112.026818 L12.1767401,96.1359042 L19.2179475,90.4842264 L19.2178215,90.4826513 Z M61.8519039,145.818124 L45.9682353,125.110951 L63.0725856,124.005943 L67.5124021,138.777295 L61.8531639,145.818502 L61.8519039,145.818124 Z M140.775674,116.79866 L129.428846,131.00393 L104.56348,88.5777577 C109.758701,83.5006667 115.093159,78.2487425 120.300667,73.1039233 L140.775674,116.79866 Z M75.9551096,82.0399438 C76.8263142,82.9111483 77.3160674,84.0936817 77.3160674,85.3255465 C77.3160674,86.5573168 76.8263142,87.7386217 75.9551096,88.6098892 L63.9439162,100.618563 C62.7699826,101.790039 61.0620362,102.246558 59.4599977,101.817099 C57.8578647,101.388868 56.606406,100.138669 56.175655,98.5377964 C55.7449669,96.9356634 56.2002655,95.2263624 57.369277,94.0513577 L69.3779503,82.0401643 C70.2503834,81.1689598 71.4329169,80.6792065 72.6660732,80.6792065 C73.9003006,80.6792065 75.0828341,81.1689598 75.9551411,82.0401643 L75.9551096,82.0399438 Z" id="Shape"></path>
        </g>
    </g>
</svg>