<?xml version="1.0" encoding="UTF-8"?>
<svg width="186px" height="186px" viewBox="0 0 186 186" version="1.1" xmlns="http://www.w3.org/2000/svg" xmlns:xlink="http://www.w3.org/1999/xlink">
    <title>samples_election</title>
    <g id="samples_election" stroke="none" stroke-width="1" fill="none" fill-rule="evenodd">
        <g id="noun-election-3139186" transform="translate(17.809580, 16.000000)" fill="#4285F4" fill-rule="nonzero">
            <path d="M150.218445,109.597687 L134.499819,55.1496616 C134.013762,53.2054365 132.231209,51.908997 130.286868,51.908997 L112.947186,51.908997 L125.425148,24.8470319 C125.911204,23.7121482 125.911204,22.578422 125.586787,21.4434516 C125.262371,20.3084811 124.290261,19.4992265 123.318178,19.0131991 L83.1303491,0.378292894 C80.8617392,-0.593819656 78.2686288,0.378292894 77.296632,2.48526018 L54.6105334,51.7477596 L20.0943743,51.7477596 C18.1501492,51.7477596 16.3675667,53.0442858 15.8814236,54.9884241 L0.161639682,109.598497 C0,109.922911 0,110.408967 0,110.895024 L0,149.624423 C0,152.054675 1.9442251,154 4.37557714,154 L146.005263,154 C148.435515,154 150.38084,152.055775 150.38084,149.624423 L150.38084,110.895024 C150.38084,110.408967 150.38084,110.084554 150.21807,109.598497 L150.218445,109.597687 Z M83.4547946,10.2624499 L115.540238,25.0090796 L90.5854719,79.1330098 L78.4318948,79.1330098 L56.3934082,68.9237157 L83.4547946,10.2624499 Z M23.4971473,60.6592832 L50.5591124,60.6592832 L46.6696784,69.247811 C46.1836221,70.3826947 46.1836221,71.5164209 46.5080387,72.6513914 C46.8324524,73.7862751 47.8045649,74.5956165 48.7766486,75.0816438 L57.5266454,79.1328362 L35.1649315,79.1328362 C32.7346791,79.1328362 30.7893544,81.0770613 30.7893544,83.5084134 C30.7893544,85.9386658 32.7335795,87.8839905 35.1649315,87.8839905 L115.216493,87.8839905 C117.646745,87.8839905 119.59207,85.9397654 119.59207,83.5084134 C119.59207,81.0781609 117.647845,79.1328362 115.216493,79.1328362 L100.308105,79.1328362 L108.896633,60.6592832 L127.045685,60.6592832 L140.171259,106.356849 L10.2090077,106.355719 L23.4971473,60.6592832 Z M8.75051767,145.24818 L8.75051767,115.269357 L141.629628,115.269357 L141.629628,145.24818 L8.75051767,145.24818 Z" id="Shape"></path>
        </g>
    </g>
</svg>