<?xml version="1.0" encoding="UTF-8"?>
<svg width="186px" height="186px" viewBox="0 0 186 186" version="1.1" xmlns="http://www.w3.org/2000/svg" xmlns:xlink="http://www.w3.org/1999/xlink">
    <title>samples_names</title>
    <g id="samples_names" stroke="none" stroke-width="1" fill="none" fill-rule="evenodd">
        <g id="noun-name-2853813" transform="translate(10.894737, 41.000000)" fill="#4285F4" fill-rule="nonzero">
            <path d="M38.3157895,43.7894737 C32.5086797,43.7894737 26.939597,41.4827068 22.8343338,37.3761925 C18.7278195,33.2709293 16.4210526,27.7018466 16.4210526,21.8947368 C16.4210526,16.0876271 18.7278195,10.5185444 22.8343338,6.4132812 C26.939597,2.30676692 32.5086797,0 38.3157895,0 C44.1228992,0 49.691982,2.30676692 53.7972451,6.4132812 C57.9037594,10.5185444 60.2105263,16.0876271 60.2105263,21.8947368 C60.2105263,27.7018466 57.9037594,33.2709293 53.7972451,37.3761925 C49.691982,41.4827068 44.1228992,43.7894737 38.3157895,43.7894737 L38.3157895,43.7894737 Z M38.3157895,10.9473684 C35.4127976,10.9473684 32.6281624,12.1007519 30.5744361,14.1533835 C28.5218045,16.2072349 27.3684211,18.9918075 27.3684211,21.8947368 C27.3684211,24.7976662 28.5218045,27.5823639 30.5744361,29.6360902 C32.6282875,31.6887218 35.4128602,32.8421053 38.3157895,32.8421053 C41.2187188,32.8421053 44.0034165,31.6887218 46.0571429,29.6360902 C48.1097744,27.5822388 49.2631579,24.7976662 49.2631579,21.8947368 C49.2631579,18.9918075 48.1097744,16.2071098 46.0571429,14.1533835 C44.0032914,12.1007519 41.2187188,10.9473684 38.3157895,10.9473684 Z M71.1578947,104 L5.47368421,104 C4.02218827,104 2.62930767,103.423293 1.60300752,102.396992 C0.576707368,101.370692 0,99.9778117 0,98.5263158 L0,76.6315789 C0,69.3728481 2.88347429,62.4121985 8.01628872,57.2794466 C13.1491032,52.1466947 20.1096902,49.2631579 27.3684211,49.2631579 L49.2631579,49.2631579 C56.5218887,49.2631579 63.4825383,52.1466322 68.6152902,57.2794466 C73.7480421,62.4122611 76.6315789,69.3728481 76.6315789,76.6315789 L76.6315789,98.5263158 C76.6315789,99.9778117 76.0548716,101.370692 75.0285714,102.396992 C74.0022713,103.423293 72.6093907,104 71.1578947,104 Z M10.9473684,93.0526316 L65.6842105,93.0526316 L65.6842105,76.6315789 C65.6842105,72.2757774 63.954151,68.0998256 60.875188,65.0195489 C57.7950051,61.9405859 53.6189594,60.2105263 49.2631579,60.2105263 L27.3684211,60.2105263 C23.0126195,60.2105263 18.8366677,61.9405859 15.756391,65.0195489 C12.677428,68.0997317 10.9473684,72.2757774 10.9473684,76.6315789 L10.9473684,93.0526316 Z M164.210526,38.3157895 C164.210526,36.8642935 163.633819,35.4714129 162.607519,34.4451128 C161.581219,33.4188126 160.188338,32.8421053 158.736842,32.8421053 L93.0526316,32.8421053 C91.0965245,32.8421053 89.2895519,33.8855146 88.3121083,35.5789474 C87.3346647,37.2723802 87.3346647,39.3592301 88.3121083,41.0526316 C89.2895519,42.7460331 91.0965871,43.7894737 93.0526316,43.7894737 L158.736842,43.7894737 C160.188338,43.7894737 161.581219,43.2127663 162.607519,42.1864662 C163.633819,41.160166 164.210526,39.7672854 164.210526,38.3157895 Z M164.210526,60.2105263 C164.210526,58.7590304 163.633819,57.3661498 162.607519,56.3398496 C161.581219,55.3135495 160.188338,54.7368421 158.736842,54.7368421 L93.0526316,54.7368421 C91.0965245,54.7368421 89.2895519,55.7802514 88.3121083,57.4736842 C87.3346647,59.167117 87.3346647,61.2539669 88.3121083,62.9473684 C89.2895519,64.6407699 91.0965871,65.6842105 93.0526316,65.6842105 L158.736842,65.6842105 C160.188338,65.6842105 161.581219,65.1075032 162.607519,64.081203 C163.633819,63.0549029 164.210526,61.6620223 164.210526,60.2105263 Z M131.368421,82.1052632 C131.368421,80.6537672 130.791714,79.2608866 129.765414,78.2345865 C128.739113,77.2082863 127.346233,76.6315789 125.894737,76.6315789 L93.0526316,76.6315789 C91.0965245,76.6315789 89.2895519,77.6749883 88.3121083,79.3684211 C87.3346647,81.0618538 87.3346647,83.1487038 88.3121083,84.8421053 C89.2895519,86.5355068 91.0965871,87.5789474 93.0526316,87.5789474 L125.894737,87.5789474 C127.346233,87.5789474 128.739113,87.00224 129.765414,85.9759398 C130.791714,84.9496397 131.368421,83.5567591 131.368421,82.1052632 Z" id="Shape"></path>
        </g>
    </g>
</svg>