<?xml version="1.0" encoding="UTF-8"?>
<svg width="186px" height="186px" viewBox="0 0 186 186" version="1.1" xmlns="http://www.w3.org/2000/svg" xmlns:xlink="http://www.w3.org/1999/xlink">
    <title>samples_iowa</title>
    <g id="samples_iowa" stroke="none" stroke-width="1" fill="none" fill-rule="evenodd">
        <g id="noun-liquor-779667" transform="translate(21.470001, 17.000000)" fill="#4285F4" fill-rule="nonzero">
            <path d="M51.412104,0 C53.8815472,0 55.8822851,2.00185072 55.8822851,4.47018109 L55.8822851,4.47018109 L55.8822851,35.4050611 L67.3417893,44.5720674 C72.2603728,48.506717 75.9998643,56.2964873 75.9998643,62.6072354 L75.9998643,62.6072354 L75.9998643,138.569642 C75.9998643,145.987282 70.0050607,152 62.5906782,152 L62.5906782,152 L13.4102718,152 C5.99996071,152 0,145.990539 0,138.569642 L0,138.569642 L0,62.6072354 C0,56.3040873 3.74682007,48.5015598 8.65916067,44.5720674 L8.65916067,44.5720674 L20.1181221,35.4050611 L20.1181221,4.47018109 C20.1181221,2.00179644 22.1189142,0 24.5883032,0 L24.5883032,0 Z M67.060045,84.9415836 L33.5302939,84.9415836 L33.5302939,111.765384 L67.060045,111.765384 L67.060045,102.824208 L51.4126469,102.824208 C48.9432579,102.824208 46.94138,100.822412 46.94138,98.3529412 C46.94138,95.8846108 48.9431765,93.8827601 51.4126469,93.8827601 L67.060045,93.8827601 L67.060045,84.9415836 Z M67.060045,76.0001357 L67.060045,62.6066925 C67.060045,59.0113304 64.552493,53.7906453 61.7565737,51.5532476 L48.6199033,41.0437484 C47.5596434,40.1955296 46.9414886,38.9104713 46.9414886,37.552344 L46.9414886,26.8235294 L29.05995,26.8235294 L29.05995,37.552344 C29.05995,38.9105527 28.4418224,40.195611 27.3815353,41.0437484 L14.2448649,51.5532476 C11.4542928,53.7851353 8.94139361,59.018659 8.94139361,62.6066925 L8.94139361,138.569099 C8.94139361,141.055453 10.9421315,143.058281 13.410489,143.058281 L62.5908953,143.058281 C65.0613428,143.058281 67.060045,141.054367 67.060045,138.569099 L67.060045,120.705747 L29.0597871,120.705747 C26.5903982,120.705747 24.5885203,118.70395 24.5885203,116.23448 L24.5885203,80.4681454 C24.5885203,77.999815 26.5903167,75.9979643 29.0597871,75.9979643 L67.060045,76.0001357 Z M46.94138,17.8815387 L46.94138,8.94036218 L29.0598414,8.94036218 L29.0598414,17.8815387 L46.94138,17.8815387 Z M102.823394,102.822851 C100.158928,102.822851 98.0861255,105.138475 98.3808985,107.787035 L102.85108,148.021107 C103.102364,150.285865 105.016168,151.9981 107.294661,151.9981 L134.118461,151.9981 C136.395922,151.9981 138.309612,150.285757 138.560957,148.021107 L143.032223,107.787035 C143.325911,105.138475 141.253081,102.822851 138.588642,102.822851 L102.823394,102.822851 Z M107.818249,111.764027 L133.593516,111.764027 L130.116768,143.057195 L111.295811,143.057195 L107.818249,111.764027 Z" id="Shape"></path>
        </g>
    </g>
</svg>