<?xml version="1.0" encoding="UTF-8"?>
<svg width="186px" height="186px" viewBox="0 0 186 186" version="1.1" xmlns="http://www.w3.org/2000/svg" xmlns:xlink="http://www.w3.org/1999/xlink">
    <title>samples_met</title>
    <g id="samples_met" stroke="none" stroke-width="1" fill="none" fill-rule="evenodd">
        <g id="noun-the-metropolitan-museum-of-art-4383937" transform="translate(15.931715, 27.000000)" fill="#4285F4" fill-rule="nonzero" stroke="#4285F4">
            <path d="M150.85682,53.2751125 C151.726478,53.2751125 152.56154,52.9304748 153.17672,52.3152627 C153.790668,51.7000822 154.13657,50.8662537 154.13657,49.9965954 L154.13657,35.238335 C154.13657,34.3686767 153.790668,33.5336149 153.17672,32.9196678 C152.56154,32.3044873 151.726478,31.9585846 150.85682,31.9585846 L149.528867,31.9585846 L149.528867,17.3325123 C149.528867,16.4616206 149.182965,15.6277922 148.569017,15.0126117 C147.953837,14.3974312 147.118775,14.0527619 146.249117,14.0527619 L142.658218,14.0527619 L142.658218,3.27975045 C142.658218,2.4100921 142.313581,1.57503033 141.698369,0.959849829 C141.083188,0.345902656 140.24936,0 139.378468,0 L14.7580074,0 C12.9457975,0 11.4782885,1.46754056 11.4782885,3.27971882 L11.4782885,14.0527302 L7.88739014,14.0527302 C6.07518025,14.0527302 4.60767132,15.5202708 4.60767132,17.3324491 L4.60767132,31.9759145 L3.27971882,31.9746793 C1.46750894,31.9746793 0,33.4434532 0,35.2543981 L0,50.0126585 C0,50.8823168 0.345902656,51.7161452 0.959849829,52.3313257 C1.57503033,52.9465063 2.4100921,53.2924089 3.27975045,53.2924089 L4.60770294,53.2924089 L4.60770294,108.634304 L3.27975045,108.634304 C1.46754056,108.634304 0,110.101845 0,111.912758 L0,128.72025 C0,129.589908 0.34593428,130.42497 0.959881453,131.04015 C1.57506196,131.654097 2.41012372,132 3.27978207,132 L150.856061,132 C151.725719,132 152.560781,131.654097 153.175961,131.04015 C153.789909,130.42497 154.13657,129.589908 154.13657,128.72025 L154.13657,111.912758 C154.13657,111.0431 153.789909,110.209271 153.175961,109.594091 C152.560781,108.97891 151.725719,108.634241 150.856061,108.634241 L149.528108,108.634241 L149.528108,53.2765337 L150.85682,53.2751125 Z M18.0362715,6.55706585 L136.101089,6.55706585 L136.101089,14.0503585 L18.0362715,14.0515937 L18.0362715,6.55706585 Z M147.577417,115.191595 L147.577417,125.50514 L6.55678124,125.506376 L6.55678124,115.191595 L147.577417,115.191595 Z M6.55678124,46.7163073 L6.55678124,38.5174846 L23.0530933,38.5174846 L23.0530933,46.7163073 L6.55678124,46.7163073 Z M124.520402,35.2377658 L124.520402,46.7163073 L112.631698,46.7163073 L112.631698,35.2377658 C112.631698,34.3681075 112.287061,33.5330457 111.671849,32.9190985 C111.056668,32.303918 110.22284,31.9580154 109.353181,31.9580154 L108.025229,31.9580154 L108.023993,20.610397 L129.127913,20.610397 L129.127913,31.9741436 L127.799961,31.9741436 C125.988984,31.9741436 124.520242,33.4429175 124.520242,35.2538624 L124.520402,35.2377658 Z M94.1848217,108.633768 L94.1848217,53.2760612 L101.465601,53.2760612 L101.465601,108.633768 L94.1848217,108.633768 Z M66.5053357,108.633768 L66.5053357,83.528471 C66.5053357,79.755735 68.5188952,76.269828 71.7862175,74.38346 C75.0536029,72.4971552 79.0783818,72.4971552 82.3457673,74.38346 C85.6131528,76.2697648 87.626649,79.755735 87.626649,83.528471 L87.626649,108.633768 L66.5053357,108.633768 Z M52.666067,108.633768 L52.666067,53.2760612 L59.9468468,53.2760612 L59.9468468,108.633768 L52.666067,108.633768 Z M48.058459,38.5329804 L64.5708993,38.5329804 L64.5708993,46.7318031 L48.058459,46.7318031 L48.058459,38.5329804 Z M104.744372,46.7318031 L89.5610854,46.7318031 L89.5610854,38.5329804 L106.073526,38.5329804 L106.073526,46.7318031 L104.744372,46.7318031 Z M86.2801017,53.2912407 L87.6241191,53.2912407 L87.6265896,70.0816555 C84.6198486,67.7036933 80.8992288,66.4104323 77.0657748,66.4104323 C73.2323208,66.4104323 69.5117642,67.7037882 66.50496,70.0816555 L66.50496,53.2741638 L86.2809909,53.2741638 L86.2801017,53.2912407 Z M101.464653,31.9748077 L94.1848217,31.9735724 L94.1848217,20.6098258 L101.465601,20.6098258 L101.464653,31.9748077 Z M87.6253841,31.9748077 L86.2813666,31.9748077 L86.2813666,31.9735724 C84.4703901,31.9735724 83.0016478,33.4423463 83.0016478,35.2532913 L83.0016478,46.7318328 L71.1303369,46.7318328 L71.1303369,35.2532913 C71.1303369,34.3836329 70.7844343,33.5498045 70.1692538,32.934624 C69.5540733,32.3194435 68.7202448,31.9735408 67.8505865,31.9735408 L66.506569,31.9735408 L66.5053338,20.6097942 L87.6266471,20.6097942 L87.6253841,31.9748077 Z M59.9458981,31.9748077 L52.666067,31.9735724 L52.666067,20.6098258 L59.9468468,20.6098258 L59.9458981,31.9748077 Z M26.3296498,53.2912407 L46.1069456,53.2912407 L46.1069456,70.0816555 C43.1039047,67.70246 39.3855934,66.4079023 35.5549856,66.4079023 C31.7231127,66.4079023 28.0047699,67.7025232 25.0030255,70.0816555 L25.0030255,53.2741638 L26.3296498,53.2912407 Z M25.0016973,83.5452317 L25.0029325,83.5439965 C24.8892824,80.6731436 25.9504174,77.8814138 27.9417453,75.8097294 C29.9330731,73.7381084 32.6815414,72.5682756 35.5548926,72.5682756 C38.4269788,72.5682756 41.1766804,73.7381084 43.166775,75.8097294 C45.1581028,77.8813505 46.2192125,80.6731752 46.106821,83.5439965 L46.106821,108.633166 L25.0029009,108.633166 L25.0016973,83.5452317 Z M129.126682,108.633136 L108.022762,108.633136 L108.022762,83.5278385 C107.910349,80.6569856 108.97148,77.8639909 110.962808,75.7935715 C112.952903,73.7219504 115.702604,72.5521177 118.574691,72.5521177 C121.44801,72.5521177 124.196478,73.7219504 126.187838,75.7935715 C128.179166,77.8639592 129.240276,80.6570173 129.126651,83.5278385 L129.126682,108.633136 Z M129.126682,70.1468008 L129.126682,70.1455655 C126.124875,67.76637 122.406595,66.4718124 118.574722,66.4718124 C114.744114,66.4718124 111.025772,67.7664333 108.022762,70.1455655 L108.022762,53.2726123 L129.126682,53.2726123 L129.126682,70.1468008 Z M46.1075149,20.607867 L46.1075149,31.9716453 L44.778329,31.9716453 C42.9673525,31.9716453 41.4998752,33.4404192 41.4998752,35.2513641 L41.4998752,46.7299056 L29.6111712,46.7299056 L29.6111712,35.2513641 C29.6111712,34.3817058 29.2652685,33.5478773 28.650088,32.9326968 C28.0349075,32.3175163 27.2010791,31.9716137 26.3314207,31.9716137 L25.0034682,31.9716137 L25.0034682,20.607867 L46.1075149,20.607867 Z M136.096599,46.7137774 L131.177495,46.7137774 L131.177495,38.5149547 L147.57514,38.5149547 L147.57514,46.7137774 L136.096599,46.7137774 Z M143.016866,31.9555171 L135.686436,31.9555171 L135.686436,20.6078987 L142.967216,20.6078987 L143.016866,31.9555171 Z M11.1608474,20.6078987 L18.4416271,20.6078987 L18.4416271,31.9716453 L11.1608474,31.9716453 L11.1608474,20.6078987 Z M11.1608474,53.2722664 L18.4416271,53.2722664 L18.4416271,108.629973 L11.1608474,108.629973 L11.1608474,53.2722664 Z M142.966267,108.629973 L135.685487,108.629973 L135.685487,53.2722664 L142.966267,53.2722664 L142.966267,108.629973 Z" id="Shape"></path>
        </g>
    </g>
</svg>