<?xml version="1.0" encoding="UTF-8"?>
<svg width="186px" height="186px" viewBox="0 0 186 186" version="1.1" xmlns="http://www.w3.org/2000/svg" xmlns:xlink="http://www.w3.org/1999/xlink">
    <title>samples_ecommerce</title>
    <g id="samples_ecommerce" stroke="none" stroke-width="1" fill="none" fill-rule="evenodd">
        <g id="noun-online-shop-5006763-2" transform="translate(36.371917, 31.500000)" fill="#4285F4" fill-rule="nonzero" stroke="#4285F4">
            <g id="noun-online-shop-5006763">
                <path d="M109.11451,26.5885372 L81.2123189,26.5885372 L81.2123189,21.2787518 C81.2055356,13.6745776 76.5181542,6.65102012 68.9152804,2.85043719 C61.3121171,-0.950145731 51.9466523,-0.950145731 44.3437784,2.85043719 C36.7406151,6.65102012 32.0533967,13.6745776 32.0467399,21.2787518 L32.0467399,26.5885372 L4.14339115,26.5885372 C1.85514869,26.5895167 0.00115769521,28.195562 0,30.1765281 L0,112.237531 C0.00565273628,115.09223 1.31823859,117.828349 3.65050242,119.845717 C5.98172431,121.864037 9.14289791,122.997994 12.4382773,123 L100.831201,123 C104.125712,122.996083 107.283326,121.861079 109.612319,119.843711 C111.941283,117.826369 113.251534,115.091228 113.256167,112.237531 L113.256167,30.1765281 C113.256167,29.2246526 112.8209,28.3119612 112.043074,27.6392128 C111.266376,26.9654618 110.2127,26.5874592 109.113815,26.5884369 L109.11451,26.5885372 Z M40.3329344,20.5657135 C40.3284211,16.2414324 42.0434959,12.0922528 45.1006216,9.0339115 C48.1566476,5.97470191 52.3035118,4.25494568 56.6277928,4.25494568 C60.9520739,4.25494568 65.0992275,5.97452826 68.154964,9.0339115 C71.2118582,12.0919634 72.9269837,16.241143 72.9226505,20.5657135 L72.9226505,26.6957096 L40.3335222,26.6957096 L40.3329344,20.5657135 Z M104.970453,111.485627 L104.970453,111.484673 C104.9677,112.411728 104.53131,113.299628 103.755741,113.955435 C102.980172,114.611339 101.928754,114.980817 100.831114,114.983677 L12.4381905,114.983677 C10.149948,114.982722 8.29479934,113.416946 8.29248395,111.484673 L8.29248395,34.9836768 L32.0466531,34.9836768 L32.0466531,48.2774968 C32.0568281,50.2041488 33.9086901,51.7613473 36.1900442,51.7613473 C38.4715142,51.7613473 40.3233055,50.2041732 40.3334354,48.2774968 L40.3334354,34.9836768 L72.9225555,34.9836768 L72.9225555,48.2774968 C72.9225555,50.2108457 74.7789487,51.7774785 77.0671043,51.7774785 C79.35526,51.7774785 81.2116532,50.2107479 81.2116532,48.2774968 L81.2116532,34.9836768 L104.970453,34.9836768 L104.970453,111.485627 Z" id="Shape"></path>
            </g>
        </g>
    </g>
</svg>