<?xml version="1.0" encoding="UTF-8"?>
<svg width="186px" height="186px" viewBox="0 0 186 186" version="1.1" xmlns="http://www.w3.org/2000/svg" xmlns:xlink="http://www.w3.org/1999/xlink">
    <title>samples_sessions</title>
    <g id="samples_sessions" stroke="none" stroke-width="1" fill="none" fill-rule="evenodd">
        <g id="Group" transform="translate(24.000000, 37.750000)">
            <path d="M85.5161897,73.664839 L56.6443102,52.2668857 L56.6443102,52.2661716 C56.0879707,51.8569522 55.393817,51.6805617 54.7096456,51.7748268 C54.0254742,51.8698104 53.4048714,52.2269006 52.9799472,52.7725082 C52.5557361,53.317421 52.3607705,54.0065836 52.4364604,54.6929123 L56.5313968,90.3933423 C56.6063848,91.0382244 56.9156239,91.6338532 57.4005333,92.0659076 C57.8847296,92.4979802 58.5110549,92.7379393 59.1609464,92.7386588 C59.8101249,92.7400806 60.4378762,92.5029714 60.9234986,92.0723431 L67.9165925,82.5096299 C69.1335188,80.8520564 70.9909943,79.7822319 73.0357201,79.5608296 L84.7380457,78.3117625 C85.3586485,78.1125187 85.8849863,77.6918727 86.2149323,77.1290978 C86.5448784,76.5663411 86.6562925,75.9021709 86.5270163,75.2629929 C86.3984677,74.623815 86.0385235,74.0546229 85.5164822,73.6639786 L85.5161897,73.664839 Z" id="Path" stroke="#4285F4" fill="#4285F4" fill-rule="nonzero"></path>
            <rect id="Rectangle-Copy-6" stroke="#4285F4" stroke-width="9" x="4.5" y="4.5" width="129" height="101.5" rx="10"></rect>
            <rect id="Rectangle-Copy-6" fill="#4285F4" x="6.48636961" y="33.9021454" width="126.5" height="9.44181679" rx="4.72090839"></rect>
            <circle id="Oval" fill="#4285F4" cx="22.9398977" cy="21.5" r="7.03847627"></circle>
            <circle id="Oval-Copy" fill="#4285F4" cx="22.9398977" cy="21.5" r="7.03847627"></circle>
            <circle id="Oval-Copy-2" fill="#4285F4" cx="42.9398977" cy="21.5" r="7.03847627"></circle>
            <circle id="Oval-Copy-3" fill="#4285F4" cx="62.9398977" cy="21.5" r="7.03847627"></circle>
        </g>
    </g>
</svg>