<?xml version="1.0" encoding="UTF-8"?>
<svg width="15px" height="14px" viewBox="0 0 15 14" version="1.1" xmlns="http://www.w3.org/2000/svg" xmlns:xlink="http://www.w3.org/1999/xlink">
    <title>panel_icon_query</title>
    <g id="window-org" stroke="none" stroke-width="1" fill="none" fill-rule="evenodd">
        <g id="z" transform="translate(-76.000000, -86.000000)" fill="#939BA5" fill-rule="nonzero" stroke="#939BA5" stroke-width="0.25">
            <g id="noun_explore_2232152-copy" transform="translate(77.058375, 86.177891)">
                <path d="M1.89319474,1.8964973 C0.960203984,2.8308601 0.313970678,4.05198036 0.0958154857,5.35679538 C-0.0112040426,5.99754051 -0.0331567664,6.6465179 0.0532820834,7.29137916 C0.142465024,7.96642542 0.327691131,8.61128668 0.614448585,9.22870704 C1.17698713,10.4429671 2.14839516,11.4761171 3.3173777,12.1264666 C4.44794297,12.7562353 5.77471072,13.0416207 7.06443324,12.9153926 C7.7092945,12.8522785 8.33769122,12.7054697 8.93590294,12.4543854 C9.58350829,12.1840925 10.1734877,11.8218725 10.7072133,11.3636094 C11.7101784,10.501965 12.4373624,9.31651793 12.7529328,8.03228359 C13.0602709,6.77960629 12.9944127,5.42814173 12.5388937,4.21936988 C12.0518177,2.92964736 11.1737087,1.82240685 10.0239348,1.06092175 C8.94139112,0.34334209 7.62834383,-0.0284821691 6.32901699,0.00170282605 C5.02557402,0.0318878212 3.72761922,0.457221844 2.67526053,1.23105536 C2.39810739,1.43411805 2.13604675,1.65364529 1.89319474,1.8964973 C1.74089772,2.04879432 1.72992136,2.32869155 1.89319474,2.47824448 C2.05784017,2.62916945 2.31166854,2.64014581 2.47494192,2.47824448 C2.61763463,2.33555177 2.76718756,2.19971929 2.92222867,2.07211909 C2.95790185,2.04330614 2.99494707,2.01449319 3.03062024,1.98568024 C3.08550205,1.94177479 2.9414373,2.05291045 3.02650411,1.98979637 C3.04296865,1.97744797 3.05806115,1.9664716 3.07452569,1.9541232 C3.15410432,1.89512525 3.23368294,1.8388714 3.31600565,1.78398959 C3.6329481,1.57269462 3.97047123,1.39158465 4.32171481,1.24340376 C4.28878573,1.25712422 4.25585664,1.27084467 4.22292755,1.28456512 C4.71411975,1.07875834 5.2313808,0.937437677 5.75961822,0.864719279 C5.722573,0.87020746 5.68689982,0.874323596 5.6498546,0.879811777 C6.19318451,0.807093379 6.7447467,0.807093379 7.28807661,0.879811777 C7.25103139,0.874323596 7.21535821,0.87020746 7.17831299,0.864719279 C7.70655041,0.937437677 8.22381146,1.07875834 8.71500366,1.28456512 C8.68207457,1.27084467 8.64914549,1.25712422 8.6162164,1.24340376 C8.8892534,1.35865556 9.15405813,1.493116 9.4078865,1.64815711 C9.53685875,1.72636369 9.66171487,1.8086864 9.7838269,1.8964973 C9.81538394,1.91982207 9.84831302,1.94314683 9.87987006,1.9664716 C9.90593892,1.98568024 10.0019821,2.06388682 9.89084642,1.97470388 C9.95258846,2.0240975 10.0157025,2.07349113 10.0760725,2.12562885 C10.3134364,2.32457541 10.5343356,2.5427306 10.7387704,2.77597829 C10.786792,2.8308601 10.8348135,2.88711396 10.8814631,2.94473986 C10.9061599,2.97492485 10.9308567,3.00648189 10.9555535,3.03803893 C10.9953428,3.08743256 10.9281126,3.00236576 10.9281126,3.00236576 C10.9445772,3.02294644 10.9596697,3.04489916 10.9761342,3.06547984 C11.0666892,3.18621982 11.151756,3.31107593 11.2327067,3.4373041 C11.4124446,3.71994541 11.5688577,4.01905128 11.699202,4.32776145 C11.6854816,4.29483237 11.6717611,4.26190328 11.6580407,4.2289742 C11.8638475,4.72016639 12.0051681,5.23742745 12.0778865,5.76566486 C12.0723983,5.72861964 12.0682822,5.69294646 12.062794,5.65590124 C12.1355124,6.19923116 12.1355124,6.75079334 12.062794,7.29412325 C12.0682822,7.25707803 12.0723983,7.22140486 12.0778865,7.18435964 C12.0051681,7.71259705 11.8638475,8.2298581 11.6580407,8.7210503 C11.6717611,8.68812121 11.6854816,8.65519213 11.699202,8.62226304 C11.5839502,8.89530004 11.4494898,9.16010477 11.2944487,9.41393314 C11.2162421,9.5429054 11.1339194,9.66776151 11.0461085,9.78987354 C11.0227837,9.82143058 10.999459,9.85435966 10.9761342,9.8859167 C10.9569256,9.91198556 10.878719,10.0080287 10.9679019,9.89689307 C10.9185083,9.9586351 10.8691147,10.0217492 10.816977,10.0821192 C10.6180304,10.319483 10.3998752,10.5403823 10.1666275,10.744817 C10.1117457,10.7928386 10.0554919,10.8408602 9.99786595,10.8875097 C9.96768096,10.9122065 9.93612392,10.9369034 9.90456688,10.9616002 C9.85517325,11.0013895 9.94024005,10.9341593 9.94024005,10.9341593 C9.91965937,10.9506238 9.89770665,10.9657163 9.87712597,10.9821808 C9.75638599,11.0727358 9.63152987,11.1578026 9.50530171,11.2387533 C9.22266039,11.4184912 8.92355453,11.5749044 8.61484435,11.7052487 C8.64777344,11.6915282 8.68070253,11.6778078 8.71363161,11.6640873 C8.22243942,11.8698941 7.70517836,12.0112148 7.17694095,12.0839332 C7.21398617,12.078445 7.24965934,12.0743289 7.28670457,12.0688407 C6.74337465,12.1415591 6.19181247,12.1415591 5.64848255,12.0688407 C5.68552778,12.0743289 5.72120095,12.078445 5.75824617,12.0839332 C5.23000876,12.0112148 4.7127477,11.8698941 4.22155551,11.6640873 C4.2544846,11.6778078 4.28741368,11.6915282 4.32034277,11.7052487 C4.04730576,11.5899969 3.78250103,11.4555365 3.52867267,11.3004953 C3.39970041,11.2222888 3.2748443,11.139966 3.15273227,11.0521552 C3.12117523,11.0288304 3.08824614,11.0055056 3.0566891,10.9821808 C3.03062024,10.9629722 2.93457708,10.8847656 3.04571274,10.9739486 C2.98397071,10.9245549 2.92085663,10.8751613 2.86048664,10.8230236 C2.62312281,10.624077 2.40222353,10.4059218 2.19778879,10.1726742 C2.1497672,10.1177923 2.10174562,10.0615385 2.05509608,10.0039126 C2.03039927,9.9737276 2.00570245,9.94217056 1.98100564,9.91061352 C1.94121633,9.86121989 2.00844654,9.94628669 2.00844654,9.94628669 C1.991982,9.92570602 1.9768895,9.90375329 1.96042496,9.88317261 C1.86986998,9.76243263 1.78480317,9.63757652 1.7038525,9.51134835 C1.52411458,9.22870704 1.36770142,8.92960118 1.23735712,8.620891 C1.25107757,8.65382008 1.26479803,8.68674917 1.27851848,8.71967825 C1.07271169,8.22848606 0.931391034,7.71122501 0.858672637,7.18298759 C0.864160818,7.22003281 0.868276953,7.25570599 0.873765134,7.29275121 C0.801046737,6.7494213 0.801046737,6.19785911 0.873765134,5.6545292 C0.868276953,5.69157442 0.864160818,5.72724759 0.858672637,5.76429282 C0.931391034,5.2360554 1.07271169,4.71879435 1.27851848,4.22760215 C1.26479803,4.26053124 1.25107757,4.29346032 1.23735712,4.32638941 C1.38553801,3.97514583 1.56664798,3.6376227 1.77794294,3.32068025 C1.83282475,3.23835754 1.88907861,3.15877891 1.94807655,3.07920029 C1.96042496,3.06273575 1.97140132,3.04764325 1.98374973,3.03117871 C2.04686381,2.94748395 1.93572815,3.0915487 1.97963359,3.03529484 C2.00844654,2.99824962 2.03725949,2.96257644 2.06607244,2.92690327 C2.19367265,2.77049011 2.32950513,2.62230923 2.47219783,2.47961652 C2.62449486,2.3273195 2.63684326,2.04742227 2.47219783,1.89786934 C2.3102965,1.74557232 2.05509608,1.73322391 1.89319474,1.8964973 Z" id="Path"></path>
                <path d="M6.16836964,6.17066644 C6.09118278,6.2541117 6.04424482,6.35633213 6.04320176,6.47211242 C6.04320176,6.58372045 6.08909665,6.69428542 6.16836964,6.77355841 C6.33004482,6.93731972 6.60854336,6.93731972 6.77126161,6.77355841 C6.93397986,6.60875403 6.93606599,6.33547082 6.77126161,6.17066644 C6.69198862,6.09139345 6.58142365,6.04549856 6.46981562,6.04549856 C6.35403533,6.04654162 6.25285796,6.09347958 6.16836964,6.17066644 C6.11100103,6.22386279 6.07657986,6.31460951 6.07657986,6.39179637 C6.07657986,6.46898323 6.11100103,6.55972994 6.16836964,6.61292629 C6.29770979,6.73183578 6.48233241,6.73183578 6.61062949,6.61292629 C6.61480176,6.60875403 6.62001708,6.60458177 6.62418935,6.60145257 C6.60332803,6.61814162 6.58246672,6.63378761 6.56056234,6.65047666 C6.5678638,6.64526133 6.57516526,6.64108907 6.58350978,6.63795987 C6.55847621,6.64839053 6.53344263,6.65882118 6.50840905,6.66925184 C6.51675358,6.66612264 6.52509811,6.66403651 6.53344263,6.66195038 C6.50527986,6.66612264 6.47816015,6.66925184 6.44999738,6.6734241 C6.4614711,6.67238104 6.47294482,6.67238104 6.48441854,6.6734241 C6.45625577,6.66925184 6.42913606,6.66612264 6.40097329,6.66195038 C6.41036088,6.66403651 6.41766234,6.66612264 6.42600687,6.66925184 C6.40097329,6.65882118 6.37593971,6.64839053 6.35090614,6.63795987 C6.35925066,6.64213213 6.36655212,6.6463044 6.37385358,6.65047666 C6.35299227,6.63378761 6.33213095,6.61814162 6.31022657,6.60145257 C6.32065723,6.60875403 6.32795869,6.61709856 6.33630322,6.62752921 C6.31961416,6.6066679 6.30396818,6.58580659 6.28727913,6.56390221 C6.29249446,6.57120367 6.29666672,6.57850513 6.29979592,6.58684965 C6.28936526,6.56181607 6.2789346,6.5367825 6.26850395,6.51174892 C6.27163314,6.52009345 6.27371927,6.52843797 6.27580541,6.5367825 C6.27163314,6.50861972 6.26850395,6.48150002 6.26433168,6.45333724 C6.26537475,6.46481096 6.26537475,6.47628469 6.26433168,6.48775841 C6.26850395,6.45959564 6.27163314,6.43247593 6.27580541,6.40431315 C6.27371927,6.41370075 6.27163314,6.42100221 6.26850395,6.42934673 C6.2789346,6.40431315 6.28936526,6.37927958 6.29979592,6.354246 C6.29562365,6.36259053 6.29145139,6.36989199 6.28727913,6.37719345 C6.30396818,6.35633213 6.31961416,6.33547082 6.33630322,6.31356644 C6.32900176,6.3239971 6.32065723,6.33129856 6.31022657,6.33964308 C6.33108789,6.32295403 6.3519492,6.30730805 6.37385358,6.29061899 C6.36655212,6.29583432 6.35925066,6.30000659 6.35090614,6.30313578 C6.37593971,6.29270513 6.40097329,6.28227447 6.42600687,6.27184381 C6.41766234,6.27497301 6.40931781,6.27705914 6.40097329,6.27914527 C6.42913606,6.27497301 6.45625577,6.27184381 6.48441854,6.26767155 C6.47294482,6.26871461 6.4614711,6.26871461 6.44999738,6.26767155 C6.47816015,6.27184381 6.50527986,6.27497301 6.53344263,6.27914527 C6.52405504,6.27705914 6.51675358,6.27497301 6.50840905,6.27184381 C6.53344263,6.28227447 6.55847621,6.29270513 6.58350978,6.30313578 C6.57516526,6.29896352 6.5678638,6.29479126 6.56056234,6.29061899 C6.58142365,6.30730805 6.60228497,6.32295403 6.62418935,6.33964308 C6.61375869,6.33234162 6.60645723,6.3239971 6.5981127,6.31356644 C6.61480176,6.33442775 6.63044774,6.35528907 6.64713679,6.37719345 C6.64192146,6.36989199 6.6377492,6.36259053 6.63462,6.354246 C6.64505066,6.37927958 6.65548132,6.40431315 6.66591197,6.42934673 C6.66278278,6.42100221 6.66069665,6.41265768 6.65861051,6.40431315 C6.66278278,6.43247593 6.66591197,6.45959564 6.67008424,6.48775841 C6.66904117,6.47628469 6.66904117,6.46481096 6.67008424,6.45333724 C6.66591197,6.48150002 6.66278278,6.50861972 6.65861051,6.5367825 C6.66069665,6.52739491 6.66278278,6.52009345 6.66591197,6.51174892 C6.65548132,6.5367825 6.64505066,6.56181607 6.63462,6.58684965 C6.63879227,6.57850513 6.64296453,6.57120367 6.64713679,6.56390221 C6.63044774,6.58476352 6.61480176,6.60562483 6.5981127,6.62752921 C6.6012419,6.62231388 6.60541416,6.61814162 6.60958643,6.61396936 C6.66591197,6.55347155 6.70137621,6.47628469 6.70137621,6.39283943 C6.70137621,6.31565257 6.66695504,6.22490586 6.60958643,6.17170951 C6.55013168,6.11747009 6.47190176,6.07679053 6.3884565,6.07991972 C6.30918351,6.08304892 6.22573825,6.11016863 6.16836964,6.17066644 Z" id="Path"></path>
                <path d="M3.68710555,9.70849202 C3.82738583,9.65557928 3.96889665,9.60389707 4.10917694,9.55098433 C4.44634184,9.42547039 4.78350674,9.29995644 5.12067165,9.1744425 C5.52551563,9.02308746 5.93159015,8.87296294 6.33643414,8.72160789 C6.68221275,8.59240236 7.02676082,8.46442736 7.37253943,8.33522183 C7.53004712,8.27615645 7.68878534,8.21955212 7.8450625,8.15925621 C7.84629303,8.15925621 7.84629303,8.15925621 7.84752356,8.15802568 C7.92504688,8.12726246 7.98780385,8.09280765 8.03948606,8.02512856 C8.07024928,7.98575164 8.08747668,7.94637472 8.10593462,7.89961462 C8.10716514,7.89592304 8.10839567,7.89346198 8.1096262,7.88977039 C8.11700938,7.8688514 8.12562308,7.84916294 8.13300625,7.82824395 C8.16746106,7.73841534 8.20068534,7.64981727 8.23514014,7.55998866 C8.3569625,7.24128169 8.47755433,6.92134419 8.59937668,6.60263722 C8.75196226,6.20025429 8.90577836,5.79787136 9.05836394,5.3942579 C9.19618317,5.03248242 9.3340024,4.67070694 9.47182163,4.30770093 C9.54688389,4.11081632 9.62194615,3.91270118 9.69700841,3.71581656 C9.70069999,3.70720286 9.70439158,3.69735863 9.70685264,3.68874493 C9.80283389,3.43648651 9.50504591,3.13869853 9.2527875,3.23467978 C9.11373774,3.28759252 8.97591851,3.34050526 8.83686875,3.393418 C8.50339543,3.52016248 8.16992212,3.64690695 7.8364488,3.77365142 C7.43283534,3.92746752 7.02799135,4.08128363 6.62437789,4.23509973 C6.27367717,4.36799685 5.92297645,4.50212449 5.57227573,4.63502161 C5.39877116,4.70147016 5.2252666,4.76545766 5.05176203,4.83313675 C5.04930097,4.83436728 5.04560939,4.83559781 5.04314833,4.83682834 C4.99638823,4.85528627 4.95701131,4.87251367 4.91763439,4.90327689 C4.85118583,4.9549591 4.81550049,5.01771608 4.78473727,5.09523939 C4.78473727,5.09646992 4.78473727,5.09646992 4.78350674,5.09770045 C4.7773541,5.1124668 4.77243198,5.12846367 4.76627934,5.14323002 C4.73551612,5.22444492 4.70598343,5.30689035 4.67522021,5.38810526 C4.55955049,5.69942905 4.44265025,6.01075285 4.32698054,6.32330718 C4.17685602,6.72569011 4.02673151,7.12807304 3.87660699,7.53045597 C3.74001829,7.89592304 3.60466011,8.2613901 3.46807141,8.62685717 C3.39300915,8.82743337 3.31917742,9.02677904 3.24411516,9.22735524 C3.24042358,9.23719947 3.23673199,9.24581318 3.23427093,9.25565741 C3.20227718,9.3405639 3.22688776,9.46484731 3.2711868,9.53990957 C3.31548584,9.61620236 3.40408391,9.69003409 3.49145146,9.70972255 C3.70064136,9.75771317 3.8729154,9.64573505 3.9455166,9.45131149 C3.99719881,9.31349226 4.04888103,9.1744425 4.10056324,9.03662327 C4.22361612,8.70684154 4.346669,8.37582928 4.46972189,8.04604755 C4.61984641,7.64489515 4.7687404,7.24374275 4.91886492,6.84135982 C5.04807044,6.49558121 5.17604544,6.14980261 5.30525097,5.80525453 C5.36800794,5.63667208 5.43568703,5.46932016 5.49352188,5.29827665 C5.49475241,5.29581559 5.49475241,5.29335454 5.49598294,5.29089348 C5.40984592,5.3770305 5.3237089,5.46316752 5.23757189,5.54930454 C5.37785217,5.4963918 5.51690193,5.44347905 5.65718222,5.38933579 C5.99065554,5.26259132 6.32535938,5.13584684 6.6588327,5.00787185 C7.06490722,4.85405574 7.47098173,4.69900911 7.87705625,4.545193 C8.22775697,4.41229589 8.57968822,4.27816824 8.93038894,4.14527113 C9.10020192,4.08128363 9.27247596,4.02098771 9.44105841,3.95084757 C9.44351947,3.94961704 9.44598052,3.94838651 9.44844158,3.94838651 C9.29708653,3.79703146 9.14573149,3.64567642 8.99437644,3.49432137 C8.9414637,3.63460166 8.88855096,3.77365142 8.83440769,3.9139317 C8.70766322,4.24740502 8.58091875,4.58210887 8.45294375,4.91558218 C8.29912764,5.3216567 8.14408101,5.72773122 7.9902649,6.13380574 C7.85736779,6.48450645 7.72324015,6.8364377 7.59034303,7.18713842 C7.52635553,7.3569514 7.45621539,7.52553385 7.39591947,7.69780789 C7.39468895,7.70026895 7.39345842,7.70273001 7.39345842,7.70519107 C7.47959544,7.61905405 7.56573245,7.53291703 7.65186947,7.44678001 C7.51405024,7.49846222 7.37500048,7.55014443 7.23718125,7.60182664 C6.90739952,7.72487953 6.57638727,7.84793241 6.24660554,7.9709853 C5.84545313,8.12110981 5.44430073,8.2700038 5.0419178,8.42012832 C4.6961392,8.54933385 4.35036059,8.67730885 4.00581252,8.80651438 C3.83723006,8.86927135 3.66741708,8.93079779 3.49883463,8.99478529 C3.49637358,8.99601582 3.49391252,8.99601582 3.49145146,8.99724635 C3.3991618,9.03170116 3.32163848,9.07969178 3.2711868,9.16705933 C3.2244267,9.24581318 3.20473824,9.36271342 3.23427093,9.45131149 C3.29087526,9.62850765 3.49391252,9.78109322 3.68710555,9.70849202 Z" id="Path"></path>
            </g>
        </g>
    </g>
</svg>