<?xml version="1.0" encoding="UTF-8"?>
<svg width="110px" height="110px" viewBox="0 0 110 110" version="1.1" xmlns="http://www.w3.org/2000/svg" xmlns:xlink="http://www.w3.org/1999/xlink">
    <title>alert_outline</title>
    <g id="alert_outline" stroke="none" stroke-width="1" fill="none" fill-rule="evenodd">
        <path d="M54.0787732,20.8756898 C55.4385401,20.5119661 56.9370629,20.666976 58.2520419,21.4269314 C59.0865559,21.9092155 59.7796762,22.6023358 60.2619602,23.4368497 L60.2619602,23.4368497 L90.6657826,76.0457109 C91.425738,77.3606899 91.5807479,78.8592127 91.2170242,80.2189797 C90.8533006,81.5787466 89.9708433,82.7997576 88.6558643,83.559713 C87.8192733,84.0431974 86.8700737,84.2977528 85.9038224,84.2977528 L85.9038224,84.2977528 L25.0961776,84.2977528 C23.5773946,84.2977528 22.2023946,83.6821443 21.2070903,82.6868401 C20.2117861,81.6915359 19.5961776,80.3165359 19.5961776,78.7977528 C19.5961776,77.8315015 19.850733,76.8823018 20.3342174,76.0457109 L20.3342174,76.0457109 L50.7380398,23.4368497 C51.4979952,22.1218707 52.7190062,21.2394134 54.0787732,20.8756898 Z" id="Triangle" stroke="#EA4335" stroke-width="7"></path>
        <polygon id="Path" fill="#EA4335" fill-rule="nonzero" points="50.4640684 39.8293463 60.4640684 39.8293463 60.4640684 60.8293463 50.4640684 60.8293463"></polygon>
        <path d="M60.464247,71.3304517 C60.464247,74.092878 58.2250065,76.331047 55.4636517,76.331047 C52.7022969,76.331047 50.4630564,74.0929673 50.4630564,71.3304517 C50.4630564,68.5691861 52.7022969,66.331047 55.4636517,66.331047 C58.2250065,66.331047 60.464247,68.5691266 60.464247,71.3304517" id="Path" fill="#EA4335" fill-rule="nonzero"></path>
    </g>
</svg>