<?xml version="1.0" encoding="UTF-8"?>
<svg width="110px" height="110px" viewBox="0 0 110 110" version="1.1" xmlns="http://www.w3.org/2000/svg" xmlns:xlink="http://www.w3.org/1999/xlink">
    <title>project_folder</title>
    <g id="project_folder" stroke="none" stroke-width="1" fill="none" fill-rule="evenodd">
        <path d="M24.1875,84 C22.7375,84 21.46875,83.4411458 20.38125,82.3234375 C19.29375,81.2057292 18.75,79.9520833 18.75,78.5625 L18.75,31.4375 C18.75,30.0479167 19.29375,28.7942708 20.38125,27.6765625 C21.46875,26.5588542 22.7375,26 24.1875,26 L49.5625,26 L55,31.4375 L85.8125,31.4375 C87.2020833,31.4375 88.4557292,31.9963542 89.5734375,33.1140625 C90.6911458,34.2317708 91.25,35.4854167 91.25,36.875 L91.25,78.5625 C91.25,79.9520833 90.6911458,81.2057292 89.5734375,82.3234375 C88.4557292,83.4411458 87.2020833,84 85.8125,84 L24.1875,84 Z M24.1875,31.4375 L24.1875,78.5625 L85.8125,78.5625 L85.8125,36.875 L52.734375,36.875 L47.296875,31.4375 L24.1875,31.4375 Z M24.1875,31.4375 L24.1875,78.5625 L24.1875,31.4375 Z" id="Shape" fill="#606368" fill-rule="nonzero"></path>
    </g>
</svg>