<?xml version="1.0" encoding="UTF-8"?>
<svg width="110px" height="110px" viewBox="0 0 110 110" version="1.1" xmlns="http://www.w3.org/2000/svg" xmlns:xlink="http://www.w3.org/1999/xlink">
    <title>insert_order_by</title>
    <g id="insert_order_by" stroke="none" stroke-width="1" fill="none" fill-rule="evenodd">
        <path d="M30.5506412,37.7046734 L30.5506412,81.9762916 C30.5506412,84.1931505 32.3445678,85.9877768 34.5621264,85.9877768 C36.7789852,85.9877768 38.5736115,84.1938502 38.5736115,81.9762916 L38.5736115,37.7046734 L48.2669139,47.3979757 C49.0509443,48.1820061 50.0817035,48.5733031 51.1022983,48.5733031 C52.122893,48.5733031 53.1545362,48.1812879 53.9376827,47.3979757 C55.5050252,45.8306331 55.5050252,43.2835564 53.9376827,41.7163427 L37.4081909,25.1861143 C37.0370387,24.8149622 36.5831526,24.515735 36.0882769,24.3092959 C36.0674175,24.2992257 36.0472763,24.2992257 36.026417,24.2884366 C35.5725492,24.1028605 35.0776736,24 34.5619349,24 C34.0461961,24 33.5513205,24.1028586 33.0974527,24.2884366 C33.0765934,24.2985068 33.0564522,24.2985068 33.0355928,24.3092959 C32.5407172,24.515735 32.0868494,24.814244 31.7156789,25.1861143 L15.1755069,41.7262862 C13.6081644,43.2936288 13.6081644,45.8407055 15.1755069,47.4079192 C16.7428495,48.9644712 19.2899263,48.9644712 20.85714,47.3971298 L30.5506412,37.7046734 Z" id="Path-Copy" fill="#4285F4" fill-rule="nonzero" class="primaryfill"></path>
        <path d="M79.9439284,72.2964315 L79.9439284,28.0137648 C79.9439284,25.796906 78.1500018,24.0022797 75.9324432,24.0022797 C73.7155844,24.0022797 71.920958,25.7962062 71.920958,28.0137648 L71.920958,72.2853831 L62.2276557,62.5920808 C60.6603131,61.0247382 58.1233641,61.0247382 56.5460227,62.5920808 C54.9786801,64.1594234 54.9786801,66.7065001 56.5460227,68.2737138 L73.0861946,84.8138857 C73.4573467,85.1850378 73.9112329,85.484265 74.4061086,85.6907041 C74.4269679,85.7007743 74.4471091,85.7007743 74.4679685,85.7115634 C74.9218362,85.8971395 75.4167119,86 75.9324506,86 C76.4481893,86 76.943065,85.8971414 77.3969327,85.7115634 C77.4177921,85.7014932 77.4379333,85.7014932 77.4587926,85.6907041 C77.9536683,85.484265 78.407536,85.185756 78.7787066,84.8138857 L95.3188785,68.2737138 C96.8862211,66.7063712 96.8862211,64.1592945 95.3188785,62.5920808 C93.7515359,61.0355288 91.2044592,61.0355288 89.6372455,62.6028702 L79.9439284,72.2964315 Z" id="Path-Copy-2" class="primaryfill" fill="#4285F4" fill-rule="nonzero"></path>
    </g>
</svg>