<?xml version="1.0" encoding="UTF-8"?>
<svg width="110px" height="110px" viewBox="6 6 100 100" version="1.1" xmlns="http://www.w3.org/2000/svg" xmlns:xlink="http://www.w3.org/1999/xlink">
    <title>insert_group_by</title>
    <g id="insert_group_by" stroke="none" stroke-width="1" fill="none" fill-rule="evenodd">
        <path d="M31.7463881,49.3114698 C32.6824928,49.3083801 33.6154932,49.1963884 34.5261904,48.9793527 L45.0010173,67.8024842 L45.0010173,67.8032565 C43.2956473,70.2493007 42.5480527,73.2367133 42.8986175,76.1988173 C43.2492613,79.1601303 44.6742783,81.890304 46.9033203,83.870708 C49.1330544,85.851903 52.0117188,86.9463056 54.9937928,86.9463056 C57.9758669,86.9463056 60.8545313,85.8518634 63.0834745,83.870708 C65.3132086,81.890304 66.7382058,79.1601303 67.0889682,76.1988173 C67.4396121,73.2369111 66.6919779,70.2493007 64.9865684,67.8032565 L75.4613953,48.980125 L75.4613953,48.9793527 C78.5099046,49.699958 81.7183727,49.2180056 84.4200741,47.6338999 C87.1225664,46.0505653 89.1106817,43.4862425 89.9717699,40.4749053 C90.8328581,37.4635681 90.5008399,34.235723 89.0449384,31.4630387 C87.5882658,28.6903544 85.1197206,26.584791 82.151685,25.5847028 C79.1834516,24.5837248 75.9441385,24.7652355 73.1066007,26.0913707 C70.2688652,27.4167347 68.0507969,29.7848559 66.9138836,32.7028673 L43.0841815,32.7028673 C42.0044302,29.9371034 39.9514417,27.6601133 37.310837,26.3015513 C34.6702324,24.9429696 31.623898,24.5961814 28.7454313,25.32606 C25.8669647,26.0559385 23.3534966,27.8122421 21.6791694,30.2652067 C20.0046839,32.7173803 19.284138,35.6972794 19.6532888,38.644554 C20.021708,41.5910378 21.4544362,44.3012413 23.6819162,46.2662229 C25.9086844,48.2303345 28.776474,49.3139413 31.7460915,49.3115686 L31.7463881,49.3114698 Z M54.9987359,80.3146003 C53.5304767,80.3146003 52.1224442,79.7314725 51.0836021,78.6934213 C50.0455509,77.6545989 49.4624231,76.2465862 49.4624231,74.7782874 C49.4624231,73.3099887 50.0455509,71.9019957 51.0836021,70.8639445 C52.1224245,69.8251221 53.5304372,69.2419944 54.9987359,69.2419944 C56.4670347,69.2419944 57.8750277,69.8251221 58.9138698,70.8639445 C59.951921,71.9019957 60.5350488,73.3099887 60.5350488,74.7782874 C60.5350488,76.2465862 59.951921,77.6545792 58.9138698,78.6934213 C57.8750474,79.7314725 56.4670347,80.3146003 54.9987359,80.3146003 Z M78.2510838,31.5953952 C79.7193431,31.5953952 81.1273755,32.1785229 82.1654268,33.2165742 C83.203478,34.2553966 83.7873769,35.6634093 83.7873769,37.131708 C83.7873769,38.6000068 83.203478,40.0079998 82.1654268,41.046051 C81.1273755,42.0848734 79.7193826,42.6680011 78.2510838,42.6680011 C76.7828246,42.6680011 75.3740012,42.0848734 74.33595,41.046051 C73.2978987,40.0079998 72.714771,38.6000068 72.714771,37.131708 C72.714771,35.6634093 73.2978987,34.2554163 74.33595,33.2165742 C75.3740012,32.1785229 76.7827851,31.5953952 78.2510838,31.5953952 Z M43.7166018,39.3459801 L66.2808701,39.3459801 C66.7149337,41.7696815 67.8734779,44.0047541 69.6028318,45.75738 L59.7591401,63.5727121 C56.7137943,62.2774614 53.2720118,62.2774614 50.2258752,63.5727121 L40.3380911,45.75738 C42.0882652,44.0118524 43.2661865,41.7758109 43.7156132,39.3459801 L43.7166018,39.3459801 Z M31.7465858,31.5953952 C33.214845,31.5953952 34.6236684,32.1785229 35.6617196,33.2165742 C36.6997709,34.2553966 37.2828986,35.6634093 37.2828986,37.131708 C37.2828986,38.6000068 36.6997709,40.0079998 35.6617196,41.046051 C34.6236684,42.0848734 33.2148846,42.6680011 31.7465858,42.6680011 C30.2783266,42.6680011 28.8702941,42.0848734 27.8322428,41.046051 C26.7941916,40.0079998 26.2102927,38.6000068 26.2102927,37.131708 C26.2102927,35.6634093 26.7941916,34.2554163 27.8322428,33.2165742 C28.8702941,32.1785229 30.278287,31.5953952 31.7465858,31.5953952 L31.7465858,31.5953952 Z" id="Shape-Copy-3" fill="#4285F4" fill-rule="nonzero" class="primaryfill"></path>
    </g>
</svg>