<?xml version="1.0" encoding="UTF-8"?>
<svg width="110px" height="110px" viewBox="0 0 110 110" version="1.1" xmlns="http://www.w3.org/2000/svg" xmlns:xlink="http://www.w3.org/1999/xlink">
    <title>insert_filter</title>
    <g id="insert_filter" stroke="none" stroke-width="1" fill="none" fill-rule="evenodd">
        <path d="M87.3843313,20.5 C88.0702245,20.5 88.6794354,20.684137 89.1839151,20.9924545 C89.72968,21.3260038 90.1536978,21.8060023 90.4194477,22.364077 C90.6824778,22.9164401 90.7905536,23.5453405 90.7077209,24.1843828 C90.641307,24.6967561 90.4522801,25.21669 90.1181537,25.7073778 L89.9660074,25.9157747 L65.9667297,54.9330833 L65.9667297,86.0952768 C65.9667297,87.3578277 65.3421199,88.3687734 64.46847,88.9512067 C64.0000984,89.2634544 63.4591929,89.4523731 62.9014864,89.49211 C62.4335638,89.5254497 61.9536386,89.4542406 61.4987219,89.2647425 L61.3053966,89.1762469 L45.2981054,81.501442 C44.7448345,81.2248066 44.1940182,80.794047 43.8075879,80.2144017 C43.516589,79.7779032 43.3168206,79.2579753 43.2760203,78.6543848 L43.268304,78.4241163 L43.268304,54.9330833 L19.2778986,25.9265022 C18.8405281,25.4244753 18.5999563,24.8470099 18.5253334,24.2601464 C18.4451968,23.6299215 18.5577673,22.9877736 18.8297244,22.4166636 C19.0989541,21.8512813 19.5239716,21.3563425 20.06756,21.0111708 C20.5069962,20.7321343 21.0239609,20.5500465 21.6001779,20.5088845 L21.8507024,20.5 L87.3843313,20.5 Z M80.4108174,26.9794004 L28.8312662,26.9794004 L49.2106529,51.6044926 L49.3557497,51.8317181 C49.767411,52.5135117 49.9668805,53.1962297 49.9668805,53.8764024 L49.9668805,53.8764024 L49.9668805,76.3587304 L59.2681532,80.9104171 L59.2681532,53.6572264 L59.2765596,53.4785743 C59.3429907,52.7639199 59.7932531,52.0547544 60.2732157,51.568472 L60.2732157,51.568472 L80.4108174,26.9794004 Z" id="Shape-Copy-2" stroke="#4285F4" fill="#4285F4" class="primaryfill primarystroke" fill-rule="nonzero"></path>
    </g>
</svg>