<?xml version="1.0" encoding="UTF-8"?>
<svg width="110px" height="110px" viewBox="0 0 110 110" version="1.1" xmlns="http://www.w3.org/2000/svg" xmlns:xlink="http://www.w3.org/1999/xlink">
    <title>insert_measure</title>
    <g id="insert_measure" stroke="none" stroke-width="1" fill="none" fill-rule="evenodd">
        <path d="M64.4079772,43.4952662 C64.4079772,65.775216 64.4079772,77.6781315 64.4079772,79.2040126 C64.4079772,81.4928343 72.4309475,81.4935567 72.4309475,79.2040126 C72.4309475,77.6776499 72.4309475,65.7747344 72.4309475,43.4952662 L82.1242499,53.5032288 C82.9082803,54.3127101 83.9390395,54.7167092 84.9596343,54.7167092 C85.980229,54.7167092 87.0118722,54.3119686 87.7950187,53.5032288 C89.3623612,51.8850077 89.3623612,49.2552488 87.7950187,47.6371608 L71.2655269,30.5703346 C70.8943747,30.1871342 70.4404886,29.8781937 69.9456129,29.6650532 C69.9247535,29.6546561 69.9046123,29.6546561 69.883753,29.6435167 C69.4298852,29.4519166 68.9350096,29.3457171 68.4192709,29.3457171 C67.9035322,29.3457171 67.4086565,29.4519147 66.9547887,29.6435167 C66.9339294,29.6539139 66.9137882,29.6539139 66.8929288,29.6650532 C66.3980532,29.8781937 65.9441854,30.1863928 65.5730149,30.5703346 L49.0328429,47.6474271 C47.4655004,49.2656482 47.4655004,51.8954071 49.0328429,53.5134951 C50.6001855,55.1205753 53.1472623,55.1205753 54.714476,53.5023554 L64.4079772,43.4952662 Z" id="Path-Copy-3" fill="#4285F4" class="primaryfill" fill-rule="nonzero" transform="translate(68.413931, 55.133308) rotate(-270.000000) translate(-68.413931, -55.133308) "></path>
        <rect id="Rectangle-Copy-50" class="primaryfill" fill="#4285F4" fill-rule="nonzero" transform="translate(32.019040, 39.025784) rotate(-90.000000) translate(-32.019040, -39.025784) " x="24.0122609" y="34.8667243" width="16.0135574" height="8.31811859"></rect>
        <rect id="Rectangle-Copy-51" class="primaryfill" fill="#4285F4" fill-rule="nonzero" transform="translate(32.019040, 72.330197) rotate(-90.000000) translate(-32.019040, -72.330197) " x="24.0122609" y="68.1711376" width="16.0135574" height="8.31811859"></rect>
        <circle id="Oval-Copy-16" class="primarystroke" stroke="#4285F4" stroke-width="7" fill-rule="nonzero" transform="translate(32.019040, 88.946306) rotate(-180.000000) translate(-32.019040, -88.946306) " cx="32.0190396" cy="88.9463056" r="9.09652528"></circle>
        <circle id="Oval-Copy-20" class="primarystroke" stroke="#4285F4" stroke-width="7" fill-rule="nonzero" transform="translate(32.019040, 55.133308) rotate(-90.000000) translate(-32.019040, -55.133308) " cx="32.0190396" cy="55.1333084" r="9.09652528"></circle>
        <circle id="Oval-Copy-21" class="primarystroke" stroke="#4285F4" stroke-width="7" fill-rule="nonzero" cx="32.0190396" cy="23.2007668" r="9.09652528"></circle>
    </g>
</svg>