<?xml version="1.0" encoding="UTF-8"?>
<svg width="110px" height="110px" viewBox="0 0 110 110" version="1.1" xmlns="http://www.w3.org/2000/svg" xmlns:xlink="http://www.w3.org/1999/xlink">
    <title>insert_nest</title>
    <g id="insert_nest" stroke="none" stroke-width="1" fill="none" fill-rule="evenodd">
        <path d="M27.3181186,27 C29.5272576,27 31.3181186,28.790861 31.3181186,31 L31.318,59.317 L72.9431634,59.317258 L62.9360743,49.6237568 C61.3178543,48.0565431 61.3178543,45.5094664 62.9249345,43.9421238 C64.5430225,42.3747812 67.1727815,42.3747812 68.7910025,43.9421238 L68.7910025,43.9421238 L85.8680951,60.4822957 C86.2520369,60.8534663 86.560236,61.307334 86.7733764,61.8022097 C86.7845158,61.823069 86.7845158,61.8432103 86.7949129,61.8640696 C86.986515,62.3179374 87.0927126,62.812813 87.0927126,63.3285517 C87.0927126,63.8442904 86.9865131,64.3391661 86.7949129,64.7930338 C86.7837736,64.8138932 86.7837736,64.8340344 86.7733764,64.8548938 C86.560236,65.3497694 86.2512954,65.8036556 85.8680951,66.1748077 L85.8680951,66.1748077 L68.8012688,82.7042995 C67.1831809,84.2716421 64.5534219,84.2716421 62.9352009,82.7042995 C62.1264611,81.921153 61.7217204,80.8895099 61.7217204,79.8689151 C61.7217204,78.8483204 62.1257196,77.8175611 62.9352009,77.0335308 L62.9352009,77.0335308 L72.9431634,67.3402284 L27.234417,67.3402284 C25.2840646,67.3402284 23.6511005,66.037955 23.2100653,64.2817501 C23.0737364,63.8793045 23,63.4482633 23,63 L23,31 C23,28.790861 24.790861,27 27,27 L27.3181186,27 Z" id="Combined-Shape-Copy" fill="#4285F4" class="primaryfill" fill-rule="nonzero"></path>
    </g>
</svg>