<?xml version="1.0" encoding="UTF-8"?>
<svg width="18px" height="16px" viewBox="0 0 18 16" version="1.1" xmlns="http://www.w3.org/2000/svg" xmlns:xlink="http://www.w3.org/1999/xlink">
    <title>insert_aggregate</title>
    <g id="insert_aggregate" stroke="none" stroke-width="1" fill="none" fill-rule="evenodd">
        <g id="noun-speed-3217237" transform="translate(2.064869, 1.999998)" class="primaryfill" fill="#757A7F" fill-rule="nonzero">
            <path d="M11.8446225,2.03621885 C10.5452294,0.734225808 8.7819106,0.00183924762 6.94240159,3.45315391e-06 C5.10301638,-0.00183083161 3.33816236,0.727168868 2.03621885,2.02656198 C0.734225808,3.32602938 0.00183924744,5.08952153 3.45306125e-06,6.92878293 C-0.00183080704,8.76826718 0.727168868,10.5330222 2.02656198,11.8349657 C2.16903541,11.9766666 2.37621479,12.0317008 2.57024349,11.9791798 C2.76417315,11.9267554 2.915365,11.7747068 2.9669178,11.5804751 C3.0184706,11.3863523 2.96246846,11.1793685 2.82009136,11.0375612 C1.75895044,9.98394766 1.14504619,8.56154094 1.1062454,7.06660868 C1.06745946,5.57165167 1.60669386,4.11928391 2.61175068,3.01196336 C3.6168075,1.90464282 5.0101941,1.22762229 6.50198168,1.12189199 C7.99364546,1.01617408 9.46862019,1.48971951 10.619768,2.44418921 L7.65783416,5.4021613 L7.65773744,5.40225802 C7.43024398,5.29315525 7.18205017,5.23405524 6.9298079,5.22892967 C6.48130841,5.22892967 6.05128078,5.40699731 5.73411466,5.72415353 C5.41704758,6.0412206 5.2388908,6.47134728 5.2388908,6.91984677 C5.2388908,7.36824721 5.41705501,7.79837389 5.73411466,8.11544096 C6.05128078,8.43260708 6.48130841,8.61066482 6.9298079,8.61066482 C7.37830738,8.61066482 7.80833502,8.43259717 8.12550114,8.11544096 C8.44256821,7.79837389 8.62072499,7.36824721 8.62072499,6.91984677 C8.62294964,6.67291082 8.57168545,6.4285847 8.47051369,6.20340641 L11.4324476,3.24147253 L11.4324476,3.24137581 C12.3463832,4.35726373 12.8129831,5.77296017 12.7418937,7.21356636 C12.6707053,8.65417256 12.066755,10.016781 11.0472872,11.0371898 C10.9421487,11.1432964 10.8831477,11.286535 10.8831477,11.4358945 C10.8831477,11.585254 10.9421487,11.7284727 11.0472872,11.8345992 C11.152136,11.9404137 11.2949982,12.0000035 11.4440358,12.0000035 C11.5929892,12.0000035 11.7358465,11.9404162 11.8407101,11.8345992 C13.139608,10.5351318 13.8695927,8.77312533 13.8702619,6.93584482 C13.8710351,5.09858908 13.142406,3.33606262 11.8445729,2.03560477 L11.8446225,2.03621885 Z M7.14940516,7.44777753 C7.12561114,7.46073853 7.09939993,7.46857297 7.07231614,7.47089434 C6.97984794,7.50174926 6.87983748,7.50174926 6.78736433,7.47089434 C6.76028054,7.46857297 6.73407082,7.46073828 6.71027531,7.44777753 C6.64450463,7.41856675 6.58347077,7.37958768 6.52920909,7.33219229 C6.48026611,7.27841345 6.44002918,7.21738206 6.40985271,7.15122263 C6.40588696,7.12443102 6.40588696,7.09715409 6.40985271,7.07036248 C6.37899779,6.97915215 6.37899779,6.88030052 6.40985271,6.78919914 C6.40627398,6.76356635 6.40627398,6.73764633 6.40985271,6.71211011 C6.4381919,6.644985 6.47862197,6.58356486 6.52920909,6.53104389 C6.63918345,6.43296728 6.78251609,6.38063946 6.92984519,6.38470029 C7.07899176,6.38470029 7.22205202,6.44399097 7.32748518,6.54941917 C7.43291339,6.65484738 7.49220407,6.79789774 7.49220407,6.94705917 C7.48823831,7.09117674 7.43049422,7.22851965 7.33048376,7.33221952 C7.27622209,7.37961492 7.2151907,7.41859399 7.14941754,7.44780477 L7.14940516,7.44777753 Z" id="Shape"></path>
        </g>
    </g>
</svg>