<?xml version="1.0" encoding="UTF-8"?>
<svg width="110px" height="110px" viewBox="0 0 110 110" version="1.1" xmlns="http://www.w3.org/2000/svg" xmlns:xlink="http://www.w3.org/1999/xlink">
    <title>insert_limit</title>
    <g id="insert_limit" stroke="none" stroke-width="1" fill="none" fill-rule="evenodd">
        <rect id="Rectangle-Copy-46" class="primaryfill" fill="#4285F4" x="24" y="23" width="61.9377906" height="8" rx="4"></rect>
        <rect id="Rectangle-Copy-47" class="primaryfill" fill="#4285F4" x="24" y="39" width="61.9377906" height="8" rx="4"></rect>
        <rect id="Rectangle-Copy-48" class="primaryfill" fill="#4285F4" x="24" y="55" width="53.5" height="8" rx="4"></rect>
        <rect id="Rectangle-Copy-49" class="primaryfill" fill="#4285F4" x="24" y="71.1904762" width="40" height="7.61904762" rx="3.80952381"></rect>
        <path d="M77.1113683,65.3807638 L87.6203313,83.396129 C87.8986116,83.8731809 87.7374754,84.4854986 87.2604234,84.7637789 C87.1074874,84.8529916 86.933607,84.9 86.7565524,84.9 L65.7386264,84.9 C65.1863417,84.9 64.7386264,84.4522847 64.7386264,83.9 C64.7386264,83.7229454 64.7856348,83.549065 64.8748475,83.396129 L75.3838105,65.3807638 C75.6620908,64.9037119 76.2744085,64.7425757 76.7514604,65.020856 C76.9004641,65.1077747 77.0244495,65.2317602 77.1113683,65.3807638 Z" id="Triangle-Copy-2" fill="#4285F4" class="primaryfill" transform="translate(76.247589, 74.400000) rotate(-90.000000) translate(-76.247589, -74.400000) "></path>
    </g>
</svg>