<?xml version="1.0" encoding="UTF-8"?>
<svg width="110px" height="110px" viewBox="0 0 110 110" version="1.1" xmlns="http://www.w3.org/2000/svg" xmlns:xlink="http://www.w3.org/1999/xlink">
    <title>item_edit</title>
    <g id="item_edit" stroke="none" stroke-width="1" fill="none" fill-rule="evenodd">
        <g id="noun-edit-1269277" transform="translate(24.000000, 19.000000)" fill="#4285F4" fill-rule="nonzero" stroke="#4285F4" class="primaryfill primarystroke" >
            <path d="M3.59891474,39.407072 L3.06867736,55.867955 C3.03311545,56.9719519 3.89925313,57.8957468 5.00325002,57.9313087 C5.0461704,57.9326913 5.08912418,57.9326911 5.13204455,57.9313083 L21.5822973,57.4013025 C22.0903599,57.3849333 22.5731262,57.1757204 22.9324738,56.8161862 L59.5846859,20.1449445 C60.3655318,19.3636932 60.3652031,18.0973633 59.5839519,17.3165174 C59.5834627,17.3160285 59.5829732,17.3155398 59.5824835,17.3150514 L43.6370127,1.4108896 C42.8555349,0.631436244 41.5903551,0.632410128 40.8100781,1.41306566 L4.18332144,38.057592 C3.82420961,38.416878 3.61526942,38.8993513 3.59891474,39.407072 Z M19.6812157,53.0009522 L9.73874131,53.3226566 C8.63474957,53.358378 7.71082953,52.4923738 7.67510814,51.388382 C7.67371403,51.3452961 7.6737133,51.3021764 7.67510597,51.2590905 L7.99671088,41.3093667 C8.01311902,40.8017362 8.22204313,40.3193622 8.58108638,39.9601325 L30.3814317,18.1484685 C31.1612436,17.3682518 32.4255308,17.3667397 33.2072068,18.1450889 L42.8519496,27.7487844 C43.634662,28.5281657 43.6373624,29.7944927 42.8579812,30.5772051 C42.8571049,30.5780852 42.8562277,30.5789644 42.8553498,30.5798429 L21.0311311,52.4158307 C20.6718495,52.7753061 20.1891879,52.984516 19.6812157,53.0009522 Z M46.0079854,24.5968587 L36.3860729,14.9699505 C35.6062481,14.1882519 35.6062481,12.922488 36.3860729,12.1407894 L40.8083468,7.71621952 C41.5884586,6.93423458 42.8547885,6.93390593 43.6360397,7.71475178 C43.6362845,7.7149964 43.6365292,7.71524109 43.6360397,7.71621952 L53.2579523,17.3431277 C54.0377771,18.1248263 54.0377771,19.3905902 53.2579523,20.1722888 L48.8356784,24.5968587 C48.0555666,25.3788436 46.7892367,25.3791723 46.0079854,24.5983264 C46.0077407,24.5980818 46.007496,24.5978371 46.0079854,24.5968587 Z" id="Shape"></path>
            <path d="M2,64 L60,64 C61.1045695,64 62,64.8954305 62,66 C62,67.1045695 61.1045695,68 60,68 L2,68 C0.8954305,68 1.3527075e-16,67.1045695 0,66 C-1.3527075e-16,64.8954305 0.8954305,64 2,64 Z" id="Path"></path>
        </g>
    </g>
</svg>