<?xml version="1.0" encoding="UTF-8"?>
<svg width="110px" height="110px" viewBox="0 0 110 110" version="1.1" xmlns="http://www.w3.org/2000/svg" xmlns:xlink="http://www.w3.org/1999/xlink">
    <title>item_rename</title>
    <g id="item_rename" stroke="none" stroke-width="1" fill="none" fill-rule="evenodd">
        <g id="noun-rename-3187972" transform="translate(19.000000, 29.000000)" fill="#4285F4" class="primaryfill" fill-rule="nonzero">
            <path d="M70.5666667,14.4545455 L48.6666667,14.4545455 L48.6666667,4.81818182 L51.1,4.81818182 C51.9695899,4.81818182 52.7728819,4.35895403 53.2074057,3.61363636 C53.6419295,2.8683187 53.6419295,1.94984935 53.2074057,1.20454545 C52.7728819,0.459241558 51.9695621,0 51.1,0 L41.3666667,0 C40.4970768,0 39.6937848,0.459227792 39.259261,1.20454545 C38.8247371,1.94986312 38.8247371,2.86833247 39.259261,3.61363636 C39.6937848,4.35894026 40.4971046,4.81818182 41.3666667,4.81818182 L43.8,4.81818182 L43.8,14.4545455 L2.43333333,14.4545455 C1.78806895,14.4545455 1.1688621,14.7083673 0.712619048,15.1600649 C0.256376,15.6117626 0,16.2248005 0,16.8636364 L0,36.1363636 C0,36.7751995 0.256376,37.3882374 0.712619048,37.8399351 C1.1688621,38.2916327 1.78806895,38.5454545 2.43333333,38.5454545 L43.8,38.5454545 L43.8,48.1818182 L41.3666667,48.1818182 C40.4970768,48.1818182 39.6937848,48.641046 39.259261,49.3863636 C38.8247371,50.1316813 38.8247371,51.0501506 39.259261,51.7954545 C39.6937848,52.5407584 40.4971046,53 41.3666667,53 L51.1,53 C51.9695899,53 52.7728819,52.5407722 53.2074057,51.7954545 C53.6419295,51.0501369 53.6419295,50.1316675 53.2074057,49.3863636 C52.7728819,48.6410597 51.9695621,48.1818182 51.1,48.1818182 L48.6666667,48.1818182 L48.6666667,38.5454545 L70.5666667,38.5454545 C71.211931,38.5454545 71.8311379,38.2916327 72.287381,37.8399351 C72.743624,37.3882374 73,36.7751995 73,36.1363636 L73,16.8636364 C73,16.2248005 72.743624,15.6117626 72.287381,15.1600649 C71.8311379,14.7083673 71.211931,14.4545455 70.5666667,14.4545455 Z M4.86666667,33.7272727 L4.86666667,19.2727273 L43.8,19.2727273 L43.8,33.7272727 L4.86666667,33.7272727 Z M68.1333333,33.7272727 L48.6666667,33.7272727 L48.6666667,19.2727273 L68.1333333,19.2727273 L68.1333333,33.7272727 Z" id="Shape"></path>
            <path d="M36.5833621,24 L12.4166379,24 C11.553002,24 10.7552101,24.4765571 10.3236615,25.25 C9.89211284,26.0234429 9.89211284,26.9765714 10.3236615,27.75 C10.7552101,28.5234286 11.5530297,29 12.4166379,29 L36.5833621,29 C37.446998,29 38.2447899,28.5234429 38.6763385,27.75 C39.1078872,26.9765571 39.1078872,26.0234286 38.6763385,25.25 C38.2447899,24.4765714 37.4469703,24 36.5833621,24 Z" id="Path"></path>
        </g>
    </g>
</svg>