<?xml version="1.0" encoding="UTF-8"?>
<svg width="110px" height="110px" viewBox="0 0 110 110" version="1.1" xmlns="http://www.w3.org/2000/svg" xmlns:xlink="http://www.w3.org/1999/xlink">
    <title>item_delete</title>
    <g id="item_delete" stroke="none" stroke-width="1" fill="none" fill-rule="evenodd">
        <path d="M55,5 C82.6142375,5 105,27.3857625 105,55 C105,82.6142375 82.6142375,105 55,105 C27.3857625,105 5,82.6142375 5,55 C5,27.3857625 27.3857625,5 55,5 Z M55,10 C30.1471863,10 10,30.1471863 10,55 C10,79.8528137 30.1471863,100 55,100 C79.8528137,100 100,79.8528137 100,55 C100,30.1471863 79.8528137,10 55,10 Z M74.0918831,30.2512627 L79.7487373,35.9081169 L60.6562627,54.9992627 L79.7487373,74.0918831 L74.0918831,79.7487373 L54.9992627,60.6562627 L35.9081169,79.7487373 L30.2512627,74.0918831 L49.3432627,54.9992627 L30.2512627,35.9081169 L35.9081169,30.2512627 L54.9992627,49.3432627 L74.0918831,30.2512627 Z" id="Combined-Shape" fill="#4285F4" class="primaryfill"></path>
    </g>
</svg>