<?xml version="1.0" encoding="UTF-8"?>
<svg width="110px" height="110px" viewBox="0 0 110 110" version="1.1" xmlns="http://www.w3.org/2000/svg" xmlns:xlink="http://www.w3.org/1999/xlink">
    <title>move_icon</title>
    <g id="move_icon" stroke="none" stroke-width="1" fill="none" fill-rule="evenodd">
        <path d="M52.9466923,16.3127809 C54.0529774,15.2742275 55.7502198,15.2309545 56.9057514,16.1829617 L57.0533077,16.3127809 L81.5533077,39.3127809 C82.7612755,40.4467914 82.8212296,42.34534 81.6872191,43.5533077 C80.5968243,44.7148152 78.7995712,44.8149195 77.5890551,43.8127704 L77.4466923,43.6872191 L54.9999906,22.615 L32.5533077,43.6872191 C31.3918003,44.7776139 29.5918121,44.7641211 28.4469384,43.6875913 L28.3127809,43.5533077 C27.2223861,42.3918003 27.2358789,40.5918121 28.3124087,39.4469384 L28.4466923,39.3127809 L52.9466923,16.3127809 Z" id="Path" fill="#979797" class="primaryfill" fill-rule="nonzero"></path>
        <path d="M52.9466923,65.3127809 C54.0529774,64.2742275 55.7502198,64.2309545 56.9057514,65.1829617 L57.0533077,65.3127809 L81.5533077,88.3127809 C82.7612755,89.4467914 82.8212296,91.34534 81.6872191,92.5533077 C80.5968243,93.7148152 78.7995712,93.8149195 77.5890551,92.8127704 L77.4466923,92.6872191 L54.9999906,71.615 L32.5533077,92.6872191 C31.3918003,93.7776139 29.5918121,93.7641211 28.4469384,92.6875913 L28.3127809,92.5533077 C27.2223861,91.3918003 27.2358789,89.5918121 28.3124087,88.4469384 L28.4466923,88.3127809 L52.9466923,65.3127809 Z" id="Path-Copy" fill="#979797" class="primaryfill" fill-rule="nonzero" transform="translate(55.000000, 79.000005) rotate(-180.000000) translate(-55.000000, -79.000005) "></path>
    </g>
</svg>