<?xml version="1.0" encoding="UTF-8"?>
<svg width="110px" height="110px" viewBox="0 0 110 110" version="1.1" xmlns="http://www.w3.org/2000/svg" xmlns:xlink="http://www.w3.org/1999/xlink">
    <title>move_icon_outline</title>
    <g id="move_icon_outline" stroke="none" stroke-width="1" fill="none" fill-rule="evenodd">
        <g id="Group" transform="translate(25.000000, 17.000000)" fill-rule="nonzero" stroke="#979797" class="primarystroke" stroke-width="6">
            <path d="M32.8776058,2.98037748 L53.4553591,24.2930505 C54.9898149,25.8823083 54.9453892,28.4145786 53.3561313,29.9490344 C52.6104198,30.6690317 51.6143254,31.0714286 50.5777533,31.0714286 L9.42224672,31.0714286 C7.21310772,31.0714286 5.42224672,29.2805676 5.42224672,27.0714286 C5.42224672,26.0348564 5.82464355,25.038762 6.54464088,24.2930505 L27.1223942,2.98037748 C28.65685,1.39111966 31.1891202,1.34669386 32.7783781,2.88114969 C32.8120317,2.91364284 32.8451127,2.94672386 32.8776058,2.98037748 Z" id="Triangle"></path>
            <path d="M32.8776058,47.9803775 L53.4553591,69.2930505 C54.9898149,70.8823083 54.9453892,73.4145786 53.3561313,74.9490344 C52.6104198,75.6690317 51.6143254,76.0714286 50.5777533,76.0714286 L9.42224672,76.0714286 C7.21310772,76.0714286 5.42224672,74.2805676 5.42224672,72.0714286 C5.42224672,71.0348564 5.82464355,70.038762 6.54464088,69.2930505 L27.1223942,47.9803775 C28.65685,46.3911197 31.1891202,46.3466939 32.7783781,47.8811497 C32.8120317,47.9136428 32.8451127,47.9467239 32.8776058,47.9803775 Z" id="Triangle-Copy" transform="translate(30.000000, 60.535714) rotate(-180.000000) translate(-30.000000, -60.535714) "></path>
        </g>
    </g>
</svg>