<?xml version="1.0" encoding="UTF-8"?>
<svg width="110px" height="110px" viewBox="0 0 110 110" version="1.1" xmlns="http://www.w3.org/2000/svg" xmlns:xlink="http://www.w3.org/1999/xlink">
    <title>pipeline</title>
    <g id="pipeline" stroke="none" stroke-width="1" fill="none" fill-rule="evenodd">
        <path d="M27,28 C27.5522847,28 28,28.4477153 28,29 L28,30.416 L54.4420782,30.4163284 C56.5842736,30.4163284 58.3331571,32.1002969 58.4371829,34.2166881 L58.4420782,34.4163284 L58.442,72.416 L82,72.416 L82,71 C82,70.4477153 82.4477153,70 83,70 L87,70 C87.5522847,70 88,70.4477153 88,71 L88,82 C88,82.5522847 87.5522847,83 87,83 L83,83 C82.4477153,83 82,82.5522847 82,82 L82,80.416 L54.4420782,80.4163284 C52.2998828,80.4163284 50.5509993,78.73236 50.4469735,76.6159688 L50.4420782,76.4163284 L50.442,38.416 L28,38.416 L28,40 C28,40.5522847 27.5522847,41 27,41 L23,41 C22.4477153,41 22,40.5522847 22,40 L22,29 C22,28.4477153 22.4477153,28 23,28 L27,28 Z" id="Combined-Shape" class="primaryfill" fill="#4285F4" fill-rule="nonzero"></path>
    </g>
</svg>